<?xml version="1.0" encoding="UTF-8"?><svg xmlns="http://www.w3.org/2000/svg" viewBox="0 0 30.67 40.89"><defs><style>.d{fill:#703138;}</style></defs><g id="a"/><g id="b"><g id="c"><g><path class="d" d="M16.21,0c.65,.13,1.31,.22,1.94,.41,4.37,1.26,7.36,5.2,7.4,9.75,.01,1.57,0,3.14,0,4.71,0,.14,0,.29,0,.43,.67,.04,1.31,.02,1.94,.11,1.75,.26,3.11,1.81,3.16,3.59,.03,.94,0,1.89,0,2.83,0,5.04,0,10.09,0,15.13,0,1.83-1.12,3.32-2.85,3.78-.35,.09-.73,.13-1.1,.13-7.59,0-15.17,0-22.76,0-2.29,0-3.95-1.66-3.95-3.96,0-5.88,0-11.76,0-17.65,0-2.29,1.67-3.94,3.96-3.95,.37,0,.74,0,1.14,0,0-.21,0-.38,0-.55,.02-1.88-.08-3.76,.09-5.62C5.59,4.75,8.83,1.19,13.17,.24,13.59,.14,14.03,.08,14.46,0h1.76Zm-.86,17.89c-3.77,0-7.53,0-11.3,0-1.01,0-1.5,.49-1.5,1.49,0,5.83,0,11.66,0,17.49,0,.97,.5,1.47,1.48,1.47,7.53,0,15.06,0,22.6,0,.98,0,1.48-.5,1.48-1.47,0-5.83,0-11.66,0-17.49,0-1-.49-1.49-1.5-1.49-3.75,0-7.51,0-11.26,0Zm7.61-2.56c.02-.07,.03-.11,.03-.14,0-1.78,.05-3.57-.01-5.35-.13-3.92-3.49-7.2-7.41-7.27-4.41-.09-7.9,3.33-7.91,7.75,0,1.54,0,3.09,0,4.63,0,.13,0,.25,0,.39h15.3Z"/><path class="d" d="M16.61,30.86c0,.62,0,1.25,0,1.87,0,.77-.57,1.35-1.29,1.34-.7,0-1.26-.58-1.26-1.33,0-1.21-.01-2.42,0-3.63,0-.29-.07-.44-.34-.58-1.48-.78-2.15-2.52-1.61-4.08,.55-1.61,2.15-2.54,3.85-2.25,1.57,.27,2.79,1.71,2.77,3.34-.02,1.36-.65,2.39-1.85,3.04-.21,.11-.28,.22-.28,.45,.02,.61,0,1.22,0,1.83Zm-1.27-6.16c-.45,0-.84,.37-.86,.82-.02,.46,.37,.88,.84,.88,.46,0,.87-.4,.86-.86,0-.45-.39-.84-.84-.84Z"/></g></g></g></svg>