<?xml version="1.0" encoding="UTF-8"?><svg xmlns="http://www.w3.org/2000/svg" viewBox="0 0 515.7 201.03"><defs><style>.d{fill:#e59c51;}.e{fill:#745342;}.f{fill:#703138;}</style></defs><g id="a"/><g id="b"><g id="c"><g><g><path class="f" d="M184.52,1.89h32.08v3.46h-3.93c-13.68,0-13.99,1.26-13.99,22.49v51.11c0,20.13,0,23.59,13.21,23.59h4.72v3.46h-49.85v-3.46h3.62c13.21,0,13.21-3.46,13.21-23.59V11.95l-41.2,94.04h-3.62L97.25,11.95V81.93c0,14.31,5.03,19.5,16.67,20.6v3.46h-37.11v-3.46c9.59-.94,16.67-3.93,16.67-21.54V27.83c0-21.07-.16-22.49-13.84-22.49h-2.83V1.89h31.61l38.21,86.17L184.52,1.89Z"/><path class="f" d="M247.43,67.62l-6.13,15.25c-.94,2.52-2.52,7.7-2.52,9.91,0,5.03,3.62,9.75,11.32,9.75v3.46h-30.98v-3.46c4.4-.16,10.85-2.83,14.94-12.42L271.49,.31h2.99l38.21,90.42c2.36,5.5,5.66,11.79,13.99,11.79v3.46h-41.04v-3.46c7.39,0,12.89,.16,12.89-5.66,0-1.73-.94-3.93-2.04-6.45l-9.43-22.8h-39.63Zm38.21-3.46l-18.4-44.34-18.24,44.34h36.64Z"/><path class="f" d="M384.4,0c28.3,0,57.24,16.51,57.24,53.78,0,31.76-22.17,54.09-56.77,54.09-31.61,0-56.61-20.13-56.61-54.72S356.1,0,384.4,0Zm1.1,104.1c34.12,0,38.53-32.55,38.53-50.16,0-15.1-3.14-50.16-39.15-50.16-32.39,0-39,28.15-39,50.01,0,32.39,12.27,50.32,39.63,50.32Z"/></g><path class="e" d="M490.01,100.03v1.32c-2.34,.54-5.16,2.58-6.66,6.24-1.08,2.64-2.7,6.06-3.96,7.8,3.12,4.44,5.16,6.84,8.7,6.84,2.04,0,3.48-1.26,4.26-2.58h1.32c-.96,3.54-4.08,5.34-7.26,5.34-5.58,0-8.94-4.26-10.08-5.7-1.26,1.26-4.8,5.7-10.85,5.7-5.34,0-11.16-4.02-11.16-10.85,0-5.52,3.24-8.22,9.66-12.47-2.58-3.6-3.42-6.66-3.42-8.58,0-3.96,3.24-7.92,8.28-7.92,4.14,0,8.22,2.58,8.22,6.42,0,4.74-6.48,7.74-8.46,8.82,4.14,5.46,6.3,8.58,9.96,13.73,1.32-1.68,3.48-5.94,3.48-8.88,0-3.36-3.42-3.84-4.56-3.9v-1.32h12.53Zm-25.13,2.82c-1.86,1.08-6.36,4.5-6.36,9.17s4.44,10.02,9.42,10.02c3.06,0,5.46-1.44,7.56-3.96-3.6-5.58-6.66-9.96-10.61-15.23Zm8.81-10.97c0-3.06-1.86-5.34-4.74-5.34-3.24,0-4.68,2.58-4.68,4.92,0,3,2.58,6.54,3.54,7.8,5.04-2.94,5.88-5.4,5.88-7.38Z"/><path class="d" d="M515.29,122.58c-.27-.29-.59-.43-.97-.43-.34,0-.66,.14-.94,.43-5.21,5.06-10.83,9.26-16.87,12.57-9.1,5.04-18.3,8.07-27.6,9.1-1.75,.2-3.51,.3-5.28,.3s-4.18-.17-6.95-.49-5.49-1.37-8.15-3.11c-2.66-1.74-4.33-4.41-5.02-7.98-.11-.63-.17-1.29-.17-1.97,0-2.26,.63-4.88,1.89-7.85,.2-.46,.3-.9,.3-1.33,0-1.4-.67-2.42-2.02-3.05-.46-.17-.9-.26-1.33-.26-1.4,0-2.42,.66-3.05,1.97l-.34,.86c-1.77-3.15-3.85-5.78-6.22-7.9-2.38-2.12-5.02-3.18-7.94-3.18s-5.78,1.56-8.93,4.68c-2.16,2.32-3.83,4.97-5.12,7.88-14.8,8.78-27.52,14.77-38.15,17.91-4.86,1.46-9.27,2.19-13.22,2.19-1.26,0-2.9-.11-4.94-.34-2.03-.23-4.1-1.13-6.2-2.7-2.1-1.57-3.51-4.01-4.23-7.3l-.04-.04-.47-2.92c-.54-3.72-1.57-7.08-3.09-10.09-1.52-3-3.56-4.85-6.14-5.54-.46-.11-.93-.17-1.42-.17-4.23,0-9.3,4.19-15.19,12.57,.97-6.12,1.46-10.3,1.46-12.53,0-1.55-.41-2.63-1.24-3.26-.63-.46-1.35-.69-2.15-.69-1.03,0-1.87,.43-2.53,1.29-.49,.6-.73,1.29-.73,2.06l.04,.86c0,1.09-.29,3.65-.86,7.68-.09,.56-.17,1.07-.26,1.6-4.96,4.68-10.27,8.62-15.96,11.75-9.1,5.04-18.3,8.07-27.6,9.1-1.75,.2-3.51,.3-5.28,.3s-4.18-.17-6.95-.49-5.49-1.37-8.15-3.11c-2.66-1.74-4.33-4.41-5.02-7.98-.11-.63-.17-1.29-.17-1.97,0-2.26,.63-4.88,1.89-7.85,.2-.46,.3-.9,.3-1.33,0-1.4-.67-2.42-2.02-3.05-.46-.17-.9-.26-1.33-.26-1.4,0-2.42,.66-3.05,1.97l-.34,.86c-1.77-3.15-3.85-5.78-6.22-7.9-2.38-2.12-5.02-3.18-7.94-3.18s-5.78,1.56-8.93,4.68c-2.27,2.43-4,5.23-5.3,8.31-7.27,5.38-17.17,10.39-29.76,14.99l-1.67,.6c-9.16,3.46-16.35,5.19-21.59,5.19-1.23,0-3.18-.16-5.84-.47-2.66-.31-5.55-2.15-8.67-5.49-1.54-1.8-2.67-4.01-3.39-6.61-.63-2.26-1.14-4.25-1.55-5.97-1.37-5.89-2.89-9.81-4.55-11.76-1.14-1.37-2.46-2.06-3.95-2.06-.66,0-1.76,.27-3.3,.82-2.15,.74-6.41,3.5-12.79,8.28l.26-2.32,.26-.21c8.46-9.63,15.21-18.1,20.31-25.46l-1.29-2.93c-4.89,7.1-11.14,15.06-18.76,23.88,1.29-10.44,3.29-20.47,6.01-30.09,3.18-11.1,6.95-18.94,11.33-23.52,1.17-1.17,2.78-2.4,4.81-3.69,2.17-1.37,4.18-2.06,6.01-2.06s2.96,1.15,3.56,3.43c.14,.66,.22,1.4,.22,2.23,0,1.77-.36,3.95-1.07,6.52-.67,2.45-1.71,5.14-3.08,8.03l1.4,3.16c2.04-3.97,3.49-7.45,4.29-10.42,.8-2.83,1.2-5.26,1.2-7.3,0-1.03-.1-1.96-.3-2.79-1.17-4.66-4.33-7-9.49-7-4.63,0-8.73,1.73-12.27,5.19-5.15,5.29-9.49,14.08-13,26.35-3.69,12.96-6.07,26.81-7.2,41.53-4.18,3.13-8.52,5.66-13.03,7.52-5,2.06-10.09,3.64-15.28,4.74-5.19,1.1-10.38,2.02-15.56,2.77,4.81-13.3,8.91-26.89,12.32-40.77,2.89-11.84,5.05-23.2,6.48-34.08,.4-2.8,.6-5.56,.6-8.28s-.22-5.55-.64-8.24c-.72-4.21-2.33-7.65-4.85-10.34-2.43-2.57-5.79-3.86-10.08-3.86-4.66,0-10.04,1.96-16.14,5.88-5.32,3.43-10.52,7.74-15.6,12.92-5.08,5.18-9.5,10.59-13.26,16.24-3.76,5.65-6.32,10.92-7.66,15.82-.03,.14-.04,.29-.04,.43,0,.2,.07,.43,.22,.69,.26,.43,.66,.64,1.2,.64,.63,0,1.04-.34,1.24-1.03,1.95-6.44,5.5-12.98,10.67-19.61,5.17-6.64,11.15-12.33,17.96-17.08,6.81-4.75,13.65-7.48,20.51-8.2l.9-.04c2.34,0,4.13,.64,5.36,1.93,2.37,2.58,3.56,7.24,3.56,13.99,0,2.38-.17,4.81-.51,7.3-1.4,10.62-3.53,21.73-6.39,33.35-3.75,15.31-8.21,29.83-13.39,43.56-6.12,.94-12.02,2.28-17.68,4.01-5.67,1.73-10.96,4.36-15.88,7.88-4.92,3.52-9.3,8.43-13.13,14.72-4.78,8.27-7.17,15.22-7.17,20.86,0,2.77,.44,5.09,1.33,6.95,1.63,3.32,3.78,5.42,6.44,6.31,1.4,.49,2.85,.73,4.33,.73,4.04,0,8.25-1.52,12.66-4.55,4.49-2.98,9.28-7.5,14.38-13.56,6.89-8.36,13.96-22.22,21.2-41.59l.43-.09c5.41-.77,10.83-1.72,16.27-2.85s10.79-2.77,16.05-4.91c4.09-1.67,8.06-3.86,11.92-6.54-.14,2.27-.25,4.57-.34,6.88-.17,4.58-.26,8.37-.26,11.37,0,.91,.32,1.7,.96,2.34,.64,.64,1.42,.97,2.34,.97s1.7-.32,2.36-.97c.66-.64,.99-1.42,.99-2.34,0-2.86,.09-6.58,.26-11.16,.17-5.15,.33-8.34,.47-9.57,2.95-2.26,5.26-3.96,6.95-5.11,2.32-1.54,4.16-2.32,5.54-2.32,.14,0,.6,.05,1.37,.15,.77,.1,1.56,1.02,2.36,2.77,.8,1.75,1.54,4.09,2.23,7.04,.49,2.15,1.02,4.25,1.59,6.31,.97,3.52,2.58,6.58,4.81,9.19,2.29,2.4,5.35,3.88,9.18,4.42,1.63,.23,3.32,.34,5.06,.34,2.35,0,5.24-.27,8.67-.82,6.15-.92,13.06-2.77,20.73-5.58,11.16-4.09,20.26-8.51,27.37-13.24-.09,.34-.21,.66-.29,1.01-.4,1.97-.6,3.91-.6,5.79,0,2.72,.54,5.06,1.63,7.04,.94,1.72,2.23,3.06,3.86,4.04,1.23,.74,2.6,1.12,4.12,1.12,.51,0,1.03-.04,1.54-.13,4.84-.72,10.67-6.15,17.51-16.31v.9c0,1.06,.07,2.06,.21,3,1.57,7.75,7.51,12.16,17.81,13.22,2.09,.23,4.18,.34,6.26,.34,12.45,0,24.74-3.36,36.87-10.09,4.91-2.71,9.53-5.99,13.9-9.79-.72,4.21-1.31,7.25-1.75,9.06-.11,.37-.17,.72-.17,1.03,0,1.54,.79,2.59,2.36,3.13,.34,.09,.67,.13,.99,.13,.54,0,1.14-.17,1.78-.51,.64-.34,1.11-.96,1.39-1.85,.2-.74,.59-2.59,1.16-5.54,6.49-10.27,11.25-15.41,14.25-15.41,.2,0,.66,.09,1.37,.26,.71,.17,1.44,.99,2.19,2.45,1.17,2.26,2.06,5.62,2.66,10.09,.17,1.17,.37,2.27,.6,3.3,1.66,7.67,6.51,11.83,14.55,12.49,1.09,.09,2.2,.13,3.35,.13,4.95,0,10.94-1.06,17.98-3.18,10.13-3,22.12-8.52,35.92-16.5-.17,.6-.38,1.17-.52,1.78-.4,1.97-.6,3.91-.6,5.79,0,2.72,.54,5.06,1.63,7.04,.94,1.72,2.23,3.06,3.86,4.04,1.23,.74,2.6,1.12,4.12,1.12,.51,0,1.03-.04,1.54-.13,4.84-.72,10.67-6.15,17.51-16.31v.9c0,1.06,.07,2.06,.21,3,1.57,7.75,7.51,12.16,17.81,13.22,2.09,.23,4.18,.34,6.26,.34,12.45,0,24.74-3.36,36.87-10.09,6.26-3.46,12.09-7.81,17.47-13.05,.26-.29,.39-.62,.39-.99,0-.34-.14-.66-.41-.94ZM34.03,178.67c-4.66,5.55-9,9.66-13.01,12.32-4.63,3.23-8.75,4.88-12.36,4.94h-.17c-2.06,0-3.62-1.03-4.68-3.09-.72-1.52-1.07-3.43-1.07-5.75,0-5.18,2.26-11.67,6.78-19.48,3.52-5.78,7.54-10.33,12.08-13.65,4.53-3.32,9.43-5.82,14.7-7.51,5.26-1.69,10.74-2.99,16.44-3.9-6.32,16.36-12.56,28.41-18.71,36.14Zm189.35-38.2c-2.61,2.23-4.72,3.35-6.35,3.35-2.2,0-3.38-2.59-3.52-7.77-.06-.26-.09-.82-.09-1.67,0-1.43,.16-2.89,.47-4.38,.91-4.12,2.7-7.6,5.36-10.43,2.43-2.43,4.71-3.65,6.82-3.65,3.81,0,7.11,2.76,9.91,8.28-4.92,7.93-9.13,13.35-12.62,16.27Zm201.24,0c-2.61,2.23-4.72,3.35-6.35,3.35-2.2,0-3.38-2.59-3.52-7.77-.06-.26-.09-.82-.09-1.67,0-1.43,.16-2.89,.47-4.38,.91-4.12,2.7-7.6,5.36-10.43,2.43-2.43,4.71-3.65,6.82-3.65,3.81,0,7.11,2.76,9.91,8.28-4.92,7.93-9.13,13.35-12.62,16.27Z"/></g></g></g></svg>