<?xml version="1.0" encoding="UTF-8"?><svg xmlns="http://www.w3.org/2000/svg" viewBox="0 0 886.57 872.95"><defs><style>.d{fill:#e59c51;}.e{fill:#c7b299;}.f{fill:#703138;}.g{fill:#534741;}.h{fill:#5d6d2b;}.i{fill:#844535;}</style></defs><g id="a"/><g id="b"><g id="c"><g><g><path class="f" d="M5.27,97.67c.86,.04,1.7,.07,2.54,.09,.84,.02,1.68,.03,2.51,.03,1.59,0,3.22-.02,4.9-.06s2.56-.06,2.66-.06c3.47,0,6.04,.59,7.7,1.77,1.66,1.18,2.49,3.01,2.49,5.48,0,2.11-.65,3.78-1.94,5s-3.17,1.92-5.61,2.09v.12c2.87,.17,5.05,.9,6.54,2.17,1.49,1.27,2.23,3.04,2.23,5.31,0,2.61-.91,4.51-2.74,5.71-1.82,1.2-4.74,1.8-8.75,1.8-1,0-2.29-.02-3.86-.06-1.57-.04-2.64-.06-3.2-.06-.82,0-1.68,0-2.61,.03-.92,.02-1.87,.05-2.85,.09l-.02-1.6c1.48,0,2.42-.2,2.82-.59,.39-.39,.59-1.35,.59-2.86v-19.74c0-1.38-.21-2.22-.62-2.53-.41-.31-1.34-.48-2.79-.52v-1.62Zm8.58,1.68v11.88h3.05c2.15,0,3.69-.46,4.63-1.39,.93-.93,1.4-2.45,1.4-4.56s-.46-3.73-1.37-4.61-2.62-1.32-5.12-1.32h-2.58Zm0,13.53v12.57h2.73c2.66,0,4.52-.46,5.58-1.39s1.59-2.52,1.59-4.76-.55-3.94-1.66-4.93c-1.11-.99-2.98-1.48-5.61-1.48h-2.62Z"/><path class="f" d="M47.02,124.18c-1,1.19-2.03,2.04-3.1,2.55-1.06,.51-2.36,.76-3.9,.76s-2.8-.41-3.72-1.24c-.92-.83-1.37-1.96-1.37-3.39,0-1.59,.55-2.82,1.64-3.69,1.09-.87,3.5-1.69,7.21-2.47,.36-.08,.81-.17,1.34-.26,1.16-.21,1.74-.55,1.74-1.02v-2.2c0-1.84-.27-3.11-.82-3.79s-1.49-1.02-2.83-1.02c-.63,0-1.22,.1-1.78,.29-.56,.19-1.08,.48-1.56,.85,.07,.44,.11,.82,.14,1.12,.03,.31,.04,.59,.04,.86,0,.76-.21,1.4-.63,1.9-.42,.51-.95,.76-1.57,.76-.59,0-1.06-.18-1.4-.54-.35-.36-.52-.85-.52-1.46,0-1.38,.8-2.58,2.41-3.63,1.6-1.04,3.53-1.56,5.79-1.56,2.48,0,4.31,.54,5.48,1.61s1.75,2.77,1.75,5.08v.12l-.04,7.28v.9c0,1.27,.12,2.08,.35,2.43,.23,.35,.65,.52,1.25,.52,.36,0,.69-.09,.98-.27s.57-.46,.82-.83l.86,.58c-.55,.99-1.25,1.75-2.09,2.27-.85,.53-1.78,.79-2.8,.79-1.16,0-2.03-.26-2.62-.78s-.94-1.36-1.07-2.53Zm-.14-6.77c-3.02,.57-5.02,1.19-5.99,1.85s-1.46,1.61-1.46,2.86c0,.99,.26,1.78,.79,2.39,.53,.6,1.22,.9,2.08,.9,.79,0,1.58-.26,2.37-.78,.79-.52,1.52-1.26,2.17-2.22l.04-4.99Z"/><path class="f" d="M61.76,111.46c0-1.04-.17-1.7-.52-1.96-.35-.27-1.28-.41-2.81-.42v-1.44c1.31-.04,2.61-.11,3.89-.21,1.28-.1,2.55-.24,3.79-.41v5.27c.64-1.68,1.44-2.98,2.4-3.9,.96-.92,1.99-1.37,3.1-1.37s1.96,.31,2.61,.92,.96,1.43,.96,2.44c0,.75-.19,1.35-.58,1.79-.39,.45-.9,.67-1.54,.67-.72,0-1.27-.2-1.65-.6s-.57-.99-.57-1.76c0-.33,.04-.66,.13-.99,.09-.33,.21-.66,.37-.99h-.04c-1.31,0-2.46,.89-3.45,2.68-.99,1.78-1.48,3.93-1.48,6.44v5.33c0,1.19,.22,1.94,.67,2.25,.45,.31,1.71,.5,3.8,.55v1.38c-1.64-.07-3-.12-4.08-.15-1.08-.03-2-.05-2.78-.05-.36,0-.89,.01-1.6,.04-.71,.03-2,.08-3.89,.16v-1.38c1.55-.13,2.49-.33,2.81-.6,.32-.27,.48-1,.48-2.2v-11.48Z"/><path class="f" d="M86.46,107.01v15.93c0,1.3,.18,2.07,.54,2.32,.36,.25,1.24,.41,2.63,.46v1.4c-1.64-.08-2.88-.13-3.72-.16s-1.51-.04-2.03-.04c-.55,0-1.26,.01-2.12,.04-.87,.03-2.13,.08-3.79,.16v-1.4c1.86-.09,2.97-.27,3.35-.53,.37-.26,.56-1.01,.56-2.25v-11.48c-.01-1.56-1.3-2.36-3.87-2.38h-.04v-1.42c1.38-.05,2.77-.13,4.19-.23,1.42-.1,2.85-.24,4.31-.41Zm-2.54-8.66c.72,0,1.31,.22,1.77,.66,.46,.44,.69,1,.69,1.68,0,.76-.27,1.42-.82,1.96-.55,.55-1.2,.82-1.96,.82-.71,0-1.29-.23-1.74-.68s-.68-1.01-.68-1.68c0-.73,.28-1.38,.84-1.93,.56-.55,1.2-.83,1.9-.83Z"/><path class="f" d="M111.4,120.98l1.08,.48c-.72,2-1.84,3.51-3.35,4.52s-3.39,1.51-5.65,1.51c-2.98,0-5.34-.87-7.07-2.6s-2.61-4.1-2.61-7.08c0-3.25,.96-5.86,2.89-7.84s4.48-2.97,7.66-2.97c2.17,0,3.97,.55,5.42,1.66,1.45,1.11,2.17,2.43,2.17,3.97,0,.7-.18,1.24-.53,1.63-.35,.39-.84,.59-1.47,.59s-1.15-.23-1.56-.7-.62-1.05-.62-1.76c0-.37,.08-.78,.25-1.21,.17-.43,.25-.72,.25-.85,0-.43-.36-.84-1.08-1.24s-1.6-.6-2.62-.6c-1.79,0-3.21,.79-4.26,2.37-1.05,1.58-1.57,3.73-1.57,6.47,0,2.5,.54,4.42,1.61,5.77,1.08,1.35,2.61,2.02,4.6,2.02,1.51,0,2.81-.35,3.9-1.04,1.09-.7,1.95-1.73,2.58-3.11Z"/><path class="f" d="M124.33,96.59v15.07c.95-1.54,2.06-2.7,3.33-3.48,1.27-.78,2.68-1.17,4.23-1.17,2.26,0,3.89,.58,4.89,1.73s1.5,3.06,1.5,5.7v8.5c0,1.24,.14,1.99,.42,2.25,.28,.26,.96,.44,2.04,.55v1.38c-1.46-.08-2.54-.13-3.24-.16-.7-.03-1.27-.04-1.69-.04-.5,0-1.14,.01-1.94,.04s-1.91,.08-3.33,.16l-.02-1.4c1.46-.13,2.35-.33,2.67-.58,.33-.25,.49-.99,.49-2.2v-8.86c0-1.76-.26-3.01-.77-3.75-.51-.73-1.35-1.1-2.51-1.1-1.52,0-2.92,.66-4.18,1.97-1.26,1.32-1.89,2.72-1.89,4.22v7.52c0,1.23,.14,1.97,.42,2.23,.28,.26,.96,.44,2.04,.55l-.02,1.4c-1.71-.09-2.87-.15-3.47-.17-.6-.02-1.08-.03-1.44-.03-.49,0-1.14,.01-1.93,.04s-1.95,.08-3.48,.16v-1.4c1.54-.13,2.47-.33,2.8-.59s.49-.99,.49-2.19v-22.21c0-.95-.16-1.56-.48-1.84-.32-.28-1.18-.45-2.57-.5v-1.38c.91-.01,1.95-.05,3.12-.12,1.17-.07,2.67-.17,4.52-.3Z"/><path class="f" d="M157.47,124.18c-1,1.19-2.03,2.04-3.1,2.55-1.06,.51-2.36,.76-3.9,.76s-2.8-.41-3.72-1.24c-.92-.83-1.37-1.96-1.37-3.39,0-1.59,.55-2.82,1.64-3.69,1.09-.87,3.5-1.69,7.21-2.47,.36-.08,.81-.17,1.34-.26,1.16-.21,1.74-.55,1.74-1.02v-2.2c0-1.84-.27-3.11-.82-3.79s-1.49-1.02-2.83-1.02c-.63,0-1.22,.1-1.78,.29-.56,.19-1.08,.48-1.56,.85,.07,.44,.11,.82,.14,1.12,.03,.31,.04,.59,.04,.86,0,.76-.21,1.4-.63,1.9-.42,.51-.95,.76-1.57,.76-.59,0-1.06-.18-1.4-.54-.35-.36-.52-.85-.52-1.46,0-1.38,.8-2.58,2.41-3.63,1.6-1.04,3.53-1.56,5.79-1.56,2.48,0,4.31,.54,5.48,1.61s1.75,2.77,1.75,5.08v.12l-.04,7.28v.9c0,1.27,.12,2.08,.35,2.43,.23,.35,.65,.52,1.25,.52,.36,0,.69-.09,.98-.27s.57-.46,.82-.83l.86,.58c-.55,.99-1.25,1.75-2.09,2.27-.85,.53-1.78,.79-2.8,.79-1.16,0-2.03-.26-2.62-.78s-.94-1.36-1.07-2.53Zm-.14-6.77c-3.02,.57-5.02,1.19-5.99,1.85s-1.46,1.61-1.46,2.86c0,.99,.26,1.78,.79,2.39,.53,.6,1.22,.9,2.08,.9,.79,0,1.58-.26,2.37-.78,.79-.52,1.52-1.26,2.17-2.22l.04-4.99Z"/><path class="f" d="M172.21,111.46c0-1.04-.17-1.7-.52-1.96-.35-.27-1.28-.41-2.81-.42v-1.44c1.31-.04,2.61-.11,3.89-.21,1.28-.1,2.55-.24,3.79-.41v5.27c.64-1.68,1.44-2.98,2.4-3.9,.96-.92,1.99-1.37,3.1-1.37s1.96,.31,2.61,.92,.96,1.43,.96,2.44c0,.75-.19,1.35-.58,1.79-.39,.45-.9,.67-1.54,.67-.72,0-1.27-.2-1.65-.6s-.57-.99-.57-1.76c0-.33,.04-.66,.13-.99,.09-.33,.21-.66,.37-.99h-.04c-1.31,0-2.46,.89-3.45,2.68-.99,1.78-1.48,3.93-1.48,6.44v5.33c0,1.19,.22,1.94,.67,2.25,.45,.31,1.71,.5,3.8,.55v1.38c-1.64-.07-3-.12-4.08-.15-1.08-.03-2-.05-2.78-.05-.36,0-.89,.01-1.6,.04-.71,.03-2,.08-3.89,.16v-1.38c1.55-.13,2.49-.33,2.81-.6,.32-.27,.48-1,.48-2.2v-11.48Z"/><path class="f" d="M201.76,124.18c-1,1.19-2.03,2.04-3.1,2.55-1.06,.51-2.36,.76-3.9,.76s-2.8-.41-3.72-1.24c-.92-.83-1.37-1.96-1.37-3.39,0-1.59,.55-2.82,1.64-3.69,1.09-.87,3.5-1.69,7.21-2.47,.36-.08,.81-.17,1.34-.26,1.16-.21,1.74-.55,1.74-1.02v-2.2c0-1.84-.27-3.11-.82-3.79s-1.49-1.02-2.83-1.02c-.63,0-1.22,.1-1.78,.29-.56,.19-1.08,.48-1.56,.85,.07,.44,.11,.82,.14,1.12,.03,.31,.04,.59,.04,.86,0,.76-.21,1.4-.63,1.9-.42,.51-.95,.76-1.57,.76-.59,0-1.06-.18-1.4-.54-.35-.36-.52-.85-.52-1.46,0-1.38,.8-2.58,2.41-3.63,1.6-1.04,3.53-1.56,5.79-1.56,2.48,0,4.31,.54,5.48,1.61s1.75,2.77,1.75,5.08v.12l-.04,7.28v.9c0,1.27,.12,2.08,.35,2.43,.23,.35,.65,.52,1.25,.52,.36,0,.69-.09,.98-.27s.57-.46,.82-.83l.86,.58c-.55,.99-1.25,1.75-2.09,2.27-.85,.53-1.78,.79-2.8,.79-1.16,0-2.03-.26-2.62-.78s-.94-1.36-1.07-2.53Zm-.14-6.77c-3.02,.57-5.02,1.19-5.99,1.85s-1.46,1.61-1.46,2.86c0,.99,.26,1.78,.79,2.39,.53,.6,1.22,.9,2.08,.9,.79,0,1.58-.26,2.37-.78,.79-.52,1.52-1.26,2.17-2.22l.04-4.99Z"/></g><g><path class="f" d="M427.96,62.21c.41,.01,1,.04,1.76,.08,2.06,.11,3.43,.16,4.11,.16,.87,0,2.46-.06,4.79-.18,.6-.03,1.06-.05,1.36-.06v1.62c-1.46,0-2.39,.2-2.79,.6-.41,.4-.61,1.35-.61,2.85v7.9h13.07v-7.9c0-1.52-.2-2.47-.59-2.85-.39-.37-1.32-.57-2.78-.6v-1.62c.37,.01,.9,.04,1.58,.08,2.08,.11,3.5,.16,4.25,.16,.86,0,2.45-.06,4.79-.18,.59-.03,1.04-.05,1.36-.06v1.62c-1.48,.03-2.42,.23-2.82,.62-.39,.39-.59,1.33-.59,2.83v19.34c0,1.55,.2,2.51,.6,2.89,.4,.37,1.34,.56,2.81,.56l-.02,1.6c-1.11-.07-2.16-.12-3.17-.15s-1.9-.05-2.69-.05c-.55,0-1.26,.01-2.13,.04s-2.2,.08-3.98,.16v-1.6c1.46,0,2.38-.2,2.78-.59,.39-.39,.59-1.35,.59-2.86v-9.8h-13.07v9.8c0,1.52,.2,2.48,.6,2.87,.4,.39,1.34,.58,2.81,.58v1.6c-1.6-.08-2.85-.13-3.74-.16s-1.59-.04-2.11-.04c-.88,0-1.84,.02-2.89,.05s-2.13,.08-3.27,.15l-.02-1.6c1.48,0,2.42-.2,2.82-.59,.39-.39,.59-1.35,.59-2.86v-19.34c0-1.52-.2-2.47-.59-2.85-.39-.37-1.33-.57-2.82-.6v-1.62Z"/><path class="f" d="M473.44,71.55c3.01,0,5.37,.92,7.09,2.76s2.58,4.34,2.58,7.5c0,2.97-.92,5.41-2.76,7.33s-4.15,2.89-6.92,2.89c-2.97,0-5.32-.9-7.06-2.71-1.74-1.8-2.62-4.24-2.62-7.29s.91-5.6,2.74-7.56c1.82-1.95,4.14-2.93,6.94-2.93Zm.04,1.44c-1.54,0-2.72,.77-3.56,2.29-.83,1.53-1.25,3.71-1.25,6.52s.4,5.03,1.21,6.55,1.97,2.28,3.48,2.28,2.74-.76,3.57-2.28c.83-1.52,1.24-3.71,1.24-6.55s-.4-5.01-1.21-6.53c-.81-1.52-1.97-2.29-3.48-2.29Z"/><path class="f" d="M493.59,66.48h1.48l-.16,6.19h5.01v1.42h-5.05l-.3,11.22v.68c0,1.38,.19,2.33,.56,2.87s1,.8,1.86,.8c.64,0,1.18-.17,1.62-.5,.44-.33,.83-.87,1.16-1.6l1.08,.5c-.37,1.23-1.06,2.2-2.06,2.91-1,.71-2.19,1.06-3.57,1.06-1.88,0-3.23-.45-4.04-1.35-.81-.9-1.21-2.43-1.21-4.6v-.6l.28-11.38h-2.16v-1.14c1.55-.6,2.77-1.43,3.67-2.48,.9-1.06,1.5-2.39,1.82-3.99Z"/><path class="f" d="M510.28,81.17c.01,2.83,.56,4.98,1.64,6.45s2.65,2.2,4.71,2.2c1.46,0,2.71-.36,3.78-1.08s1.87-1.77,2.42-3.15l1.16,.36c-.6,2-1.65,3.52-3.15,4.54-1.5,1.02-3.42,1.53-5.77,1.53-3.03,0-5.41-.9-7.13-2.7s-2.58-4.29-2.58-7.46,.9-5.59,2.7-7.49,4.17-2.84,7.1-2.84c2.74,0,4.9,.81,6.47,2.44,1.58,1.63,2.36,3.87,2.36,6.71v.3l-13.71,.16Zm-.02-1.4l9.54-.24c0-2.12-.39-3.75-1.17-4.86-.78-1.12-1.91-1.67-3.4-1.67s-2.63,.6-3.52,1.8c-.89,1.2-1.37,2.86-1.45,4.97Z"/><path class="f" d="M531.53,65.28c0-.96-.16-1.58-.47-1.85-.31-.27-1.31-.44-2.98-.49l.02-1.38c1.08-.03,2.25-.07,3.51-.13,1.26-.06,2.77-.16,4.53-.29v26.35c0,1.28,.18,2.05,.53,2.31,.35,.26,1.23,.42,2.62,.47v1.4c-1.6-.08-2.82-.13-3.64-.16-.82-.03-1.48-.04-1.97-.04-.39,0-.94,.01-1.66,.04-.72,.03-1.92,.08-3.59,.16v-1.38c1.44-.13,2.32-.33,2.64-.59,.31-.26,.47-1,.47-2.21v-22.21Z"/><path class="f" d="M427.96,97.67c.86,.04,1.7,.07,2.54,.09,.84,.02,1.68,.03,2.51,.03,1.59,0,3.22-.02,4.9-.06s2.56-.06,2.66-.06c3.47,0,6.04,.59,7.7,1.77,1.66,1.18,2.49,3.01,2.49,5.48,0,2.11-.65,3.78-1.94,5s-3.17,1.92-5.61,2.09v.12c2.87,.17,5.05,.9,6.54,2.17,1.49,1.27,2.23,3.04,2.23,5.31,0,2.61-.91,4.51-2.74,5.71-1.82,1.2-4.74,1.8-8.75,1.8-1,0-2.29-.02-3.86-.06-1.57-.04-2.64-.06-3.2-.06-.82,0-1.68,0-2.61,.03-.92,.02-1.87,.05-2.85,.09l-.02-1.6c1.48,0,2.42-.2,2.82-.59,.39-.39,.59-1.35,.59-2.86v-19.74c0-1.38-.21-2.22-.62-2.53-.41-.31-1.34-.48-2.79-.52v-1.62Zm8.58,1.68v11.88h3.05c2.15,0,3.69-.46,4.63-1.39,.93-.93,1.4-2.45,1.4-4.56s-.46-3.73-1.37-4.61-2.62-1.32-5.12-1.32h-2.58Zm0,13.53v12.57h2.73c2.66,0,4.52-.46,5.58-1.39s1.59-2.52,1.59-4.76-.55-3.94-1.66-4.93c-1.11-.99-2.98-1.48-5.61-1.48h-2.62Z"/><path class="f" d="M460.1,111.46c0-1.03-.16-1.68-.49-1.94s-1.17-.41-2.54-.44v-1.42c1.31-.07,2.6-.15,3.88-.26,1.28-.11,2.53-.23,3.76-.38v13.77c0,1.66,.29,2.82,.87,3.5s1.56,1.01,2.94,1.01c1.24,0,2.33-.31,3.27-.93,.93-.62,1.62-1.49,2.06-2.6v-10.3c0-1.03-.16-1.68-.49-1.94-.33-.27-1.17-.42-2.54-.46v-1.42c1.64-.08,3.07-.17,4.27-.26,1.2-.09,2.32-.21,3.37-.36v16.01c0,1.18,.13,1.88,.38,2.12,.25,.24,.92,.41,1.98,.5v1.4c-.44-.01-.9-.02-1.37-.03s-1.09,0-1.85,0c-.28,0-.72,0-1.31,.03-.59,.02-1.35,.05-2.25,.09l-.08-2.91c-.84,1.12-1.84,1.95-3.01,2.48-1.16,.53-2.59,.79-4.27,.79-2.28,0-3.95-.57-5-1.71s-1.57-2.98-1.57-5.5v-8.82Z"/><path class="f" d="M490.95,116.63c.01,2.83,.56,4.98,1.64,6.45s2.65,2.2,4.71,2.2c1.46,0,2.71-.36,3.78-1.08s1.87-1.77,2.42-3.15l1.16,.36c-.6,2-1.65,3.52-3.15,4.54-1.5,1.02-3.42,1.53-5.77,1.53-3.03,0-5.41-.9-7.13-2.7s-2.58-4.29-2.58-7.46,.9-5.59,2.7-7.49,4.17-2.84,7.1-2.84c2.74,0,4.9,.81,6.47,2.44,1.58,1.63,2.36,3.87,2.36,6.71v.3l-13.71,.16Zm-.02-1.4l9.54-.24c0-2.12-.39-3.75-1.17-4.86-.78-1.12-1.91-1.67-3.4-1.67s-2.63,.6-3.52,1.8c-.89,1.2-1.37,2.86-1.45,4.97Z"/><path class="f" d="M512.34,111.46c0-1.04-.17-1.7-.52-1.96-.35-.27-1.28-.41-2.81-.42v-1.44c1.31-.04,2.61-.11,3.91-.21,1.3-.1,2.58-.24,3.85-.41v4.73c.88-1.56,1.97-2.74,3.26-3.54s2.76-1.19,4.42-1.19c2.18,0,3.77,.59,4.79,1.76s1.52,3.04,1.52,5.59v8.58c0,1.26,.14,2.01,.42,2.25,.28,.25,.96,.42,2.04,.53v1.4c-1.46-.08-2.54-.13-3.25-.16s-1.27-.04-1.68-.04c-.49,0-1.14,.01-1.94,.04-.8,.03-1.92,.08-3.35,.16v-1.4c1.48-.13,2.37-.33,2.67-.58,.3-.25,.45-.99,.45-2.2v-8.86c0-1.75-.27-3-.82-3.74-.55-.74-1.45-1.11-2.71-1.11-1.38,0-2.67,.63-3.87,1.88-1.2,1.26-1.8,2.54-1.8,3.87v7.96c0,1.23,.14,1.97,.42,2.23,.28,.26,.98,.44,2.08,.55v1.4c-1.42-.08-2.49-.13-3.23-.16-.74-.03-1.32-.04-1.74-.04-.51,0-1.16,.01-1.95,.04s-1.93,.08-3.42,.16v-1.4c1.55-.13,2.48-.33,2.79-.59,.31-.26,.46-.99,.46-2.19v-11.48Z"/><path class="f" d="M547.76,107.01c3.01,0,5.37,.92,7.09,2.76s2.58,4.34,2.58,7.5c0,2.97-.92,5.41-2.76,7.33s-4.15,2.89-6.92,2.89c-2.97,0-5.32-.9-7.06-2.71-1.74-1.8-2.62-4.24-2.62-7.29s.91-5.6,2.74-7.56c1.82-1.95,4.14-2.93,6.94-2.93Zm.04,1.44c-1.54,0-2.72,.77-3.56,2.29-.83,1.53-1.25,3.71-1.25,6.52s.4,5.03,1.21,6.55,1.97,2.28,3.48,2.28,2.74-.76,3.57-2.28c.83-1.52,1.24-3.71,1.24-6.55s-.4-5.01-1.21-6.53c-.81-1.52-1.97-2.29-3.48-2.29Z"/><path class="f" d="M575.26,108.83l.32-1.24h1.24c-.01,.31-.04,.79-.08,1.44-.04,.66-.06,1.14-.06,1.44,0,.57,.03,1.48,.08,2.71v.12h-1.22c-.2-1.54-.75-2.72-1.64-3.54-.9-.82-2.08-1.23-3.57-1.23-1.15,0-2.07,.28-2.78,.84-.7,.56-1.05,1.3-1.05,2.21,0,1.4,1.63,2.59,4.89,3.57,.29,.09,.51,.16,.64,.2,2.21,.68,3.74,1.46,4.62,2.34,.88,.88,1.31,2.04,1.31,3.49,0,1.94-.7,3.47-2.09,4.61s-3.3,1.7-5.7,1.7c-1.11,0-2.13-.14-3.07-.42-.94-.28-1.82-.71-2.65-1.3l-.32,1.24h-1.2c.01-.13,.02-.33,.02-.6,.04-1.64,.06-2.81,.06-3.51v-2.71h1.28c.12,1.94,.66,3.39,1.61,4.37,.96,.98,2.33,1.46,4.14,1.46,1.25,0,2.24-.28,2.97-.85,.72-.57,1.08-1.34,1.08-2.31,0-.87-.28-1.56-.84-2.07s-1.72-1.04-3.47-1.57c-3.02-.94-4.96-1.82-5.81-2.67-.85-.84-1.28-1.99-1.28-3.45,0-1.82,.65-3.28,1.94-4.38,1.29-1.1,3.01-1.65,5.15-1.65,1.09,0,2.09,.14,2.99,.43,.89,.29,1.72,.73,2.48,1.33Z"/><path class="f" d="M607.77,97.29h2.18l9.48,26.07c.32,.88,.69,1.46,1.11,1.74,.42,.28,1.1,.42,2.03,.42v1.6c-1.71-.08-2.96-.13-3.74-.16s-1.41-.04-1.87-.04c-.57,0-1.32,.01-2.22,.04s-2.2,.08-3.89,.16v-1.6c1.01-.03,1.74-.16,2.17-.41,.43-.25,.65-.64,.65-1.19,0-.19,0-.36-.03-.52-.02-.16-.05-.3-.09-.42l-2.18-6.47h-8.74l-1.68,4.75c-.03,.08-.06,.18-.1,.3-.4,1.14-.6,1.92-.6,2.36,0,.56,.16,.95,.47,1.17,.31,.22,.95,.36,1.91,.43v1.6c-.72-.05-1.41-.09-2.07-.12-.66-.03-1.27-.04-1.81-.04-.47,0-1.02,.01-1.65,.04s-1.32,.07-2.05,.12v-1.6c.91,0,1.57-.14,1.98-.42,.41-.28,.79-.91,1.14-1.88l9.6-25.93Zm-.7,6.61l-3.93,10.96h7.64l-3.71-10.96Z"/><path class="f" d="M632.77,107.01v15.93c0,1.3,.18,2.07,.54,2.32,.36,.25,1.24,.41,2.63,.46v1.4c-1.64-.08-2.88-.13-3.72-.16s-1.51-.04-2.03-.04c-.55,0-1.26,.01-2.12,.04-.87,.03-2.13,.08-3.79,.16v-1.4c1.86-.09,2.97-.27,3.35-.53,.37-.26,.56-1.01,.56-2.25v-11.48c-.01-1.56-1.3-2.36-3.87-2.38h-.04v-1.42c1.38-.05,2.77-.13,4.19-.23,1.42-.1,2.85-.24,4.31-.41Zm-2.54-8.66c.72,0,1.31,.22,1.77,.66,.46,.44,.69,1,.69,1.68,0,.76-.27,1.42-.82,1.96-.55,.55-1.2,.82-1.96,.82-.71,0-1.29-.23-1.74-.68s-.68-1.01-.68-1.68c0-.73,.28-1.38,.84-1.93,.56-.55,1.2-.83,1.9-.83Z"/><path class="f" d="M642.57,111.46c0-1.04-.17-1.7-.52-1.96-.35-.27-1.28-.41-2.81-.42v-1.44c1.31-.04,2.61-.11,3.89-.21,1.28-.1,2.55-.24,3.79-.41v5.27c.64-1.68,1.44-2.98,2.4-3.9,.96-.92,1.99-1.37,3.1-1.37s1.96,.31,2.61,.92,.96,1.43,.96,2.44c0,.75-.19,1.35-.58,1.79-.39,.45-.9,.67-1.54,.67-.72,0-1.27-.2-1.65-.6s-.57-.99-.57-1.76c0-.33,.04-.66,.13-.99,.09-.33,.21-.66,.37-.99h-.04c-1.31,0-2.46,.89-3.45,2.68-.99,1.78-1.48,3.93-1.48,6.44v5.33c0,1.19,.22,1.94,.67,2.25,.45,.31,1.71,.5,3.8,.55v1.38c-1.64-.07-3-.12-4.08-.15-1.08-.03-2-.05-2.78-.05-.36,0-.89,.01-1.6,.04-.71,.03-2,.08-3.89,.16v-1.38c1.55-.13,2.49-.33,2.81-.6,.32-.27,.48-1,.48-2.2v-11.48Z"/><path class="f" d="M665.19,116.63c.01,2.83,.56,4.98,1.64,6.45s2.65,2.2,4.71,2.2c1.46,0,2.71-.36,3.78-1.08s1.87-1.77,2.42-3.15l1.16,.36c-.6,2-1.65,3.52-3.15,4.54-1.5,1.02-3.42,1.53-5.77,1.53-3.03,0-5.41-.9-7.13-2.7s-2.58-4.29-2.58-7.46,.9-5.59,2.7-7.49,4.17-2.84,7.1-2.84c2.74,0,4.9,.81,6.47,2.44,1.58,1.63,2.36,3.87,2.36,6.71v.3l-13.71,.16Zm-.02-1.4l9.54-.24c0-2.12-.39-3.75-1.17-4.86-.78-1.12-1.91-1.67-3.4-1.67s-2.63,.6-3.52,1.8c-.89,1.2-1.37,2.86-1.45,4.97Z"/><path class="f" d="M696.96,108.83l.32-1.24h1.24c-.01,.31-.04,.79-.08,1.44-.04,.66-.06,1.14-.06,1.44,0,.57,.03,1.48,.08,2.71v.12h-1.22c-.2-1.54-.75-2.72-1.64-3.54-.9-.82-2.08-1.23-3.57-1.23-1.15,0-2.07,.28-2.78,.84-.7,.56-1.05,1.3-1.05,2.21,0,1.4,1.63,2.59,4.89,3.57,.29,.09,.51,.16,.64,.2,2.21,.68,3.74,1.46,4.62,2.34,.88,.88,1.31,2.04,1.31,3.49,0,1.94-.7,3.47-2.09,4.61s-3.3,1.7-5.7,1.7c-1.11,0-2.13-.14-3.07-.42-.94-.28-1.82-.71-2.65-1.3l-.32,1.24h-1.2c.01-.13,.02-.33,.02-.6,.04-1.64,.06-2.81,.06-3.51v-2.71h1.28c.12,1.94,.66,3.39,1.61,4.37,.96,.98,2.33,1.46,4.14,1.46,1.25,0,2.24-.28,2.97-.85,.72-.57,1.08-1.34,1.08-2.31,0-.87-.28-1.56-.84-2.07s-1.72-1.04-3.47-1.57c-3.02-.94-4.96-1.82-5.81-2.67-.85-.84-1.28-1.99-1.28-3.45,0-1.82,.65-3.28,1.94-4.38,1.29-1.1,3.01-1.65,5.15-1.65,1.09,0,2.09,.14,2.99,.43,.89,.29,1.72,.73,2.48,1.33Z"/></g><g><path class="f" d="M235.77,339.95h25.77l.82,7.8h-1.32c-.33-2.39-.94-4.02-1.82-4.88-.88-.86-2.41-1.29-4.57-1.29h-3.37v22.79c0,1.55,.2,2.51,.59,2.89s1.35,.56,2.86,.56h.44v1.6c-1.2-.07-2.34-.12-3.43-.15s-2.06-.05-2.93-.05c-.6,0-1.37,.01-2.32,.04-.94,.03-2.39,.08-4.34,.16v-1.6h.46c1.48,0,2.42-.19,2.82-.56,.39-.37,.59-1.34,.59-2.89v-22.79h-3.37c-2.18,0-3.71,.43-4.6,1.3-.89,.87-1.49,2.49-1.81,4.87h-1.3l.82-7.8Z"/><path class="f" d="M272.81,349.29v15.93c0,1.3,.18,2.07,.54,2.32,.36,.25,1.24,.41,2.63,.46v1.4c-1.64-.08-2.88-.13-3.72-.16s-1.51-.04-2.03-.04c-.55,0-1.26,.01-2.12,.04-.87,.03-2.13,.08-3.79,.16v-1.4c1.86-.09,2.97-.27,3.35-.53,.37-.26,.56-1.01,.56-2.25v-11.48c-.01-1.56-1.3-2.36-3.87-2.38h-.04v-1.42c1.38-.05,2.77-.13,4.19-.23,1.42-.1,2.85-.24,4.31-.41Zm-2.54-8.66c.72,0,1.31,.22,1.77,.66,.46,.44,.69,1,.69,1.68,0,.76-.27,1.42-.82,1.96-.55,.55-1.2,.82-1.96,.82-.71,0-1.29-.23-1.74-.68s-.68-1.01-.68-1.68c0-.73,.28-1.38,.84-1.93,.56-.55,1.2-.83,1.9-.83Z"/><path class="f" d="M285.09,358.9c.01,2.83,.56,4.98,1.64,6.45s2.65,2.2,4.71,2.2c1.46,0,2.71-.36,3.78-1.08s1.87-1.77,2.42-3.15l1.16,.36c-.6,2-1.65,3.52-3.15,4.54-1.5,1.02-3.42,1.53-5.77,1.53-3.03,0-5.41-.9-7.13-2.7s-2.58-4.29-2.58-7.46,.9-5.59,2.7-7.49,4.17-2.84,7.1-2.84c2.74,0,4.9,.81,6.47,2.44,1.58,1.63,2.36,3.87,2.36,6.71v.3l-13.71,.16Zm-.02-1.4l9.54-.24c0-2.12-.39-3.75-1.17-4.86-.78-1.12-1.91-1.67-3.4-1.67s-2.63,.6-3.52,1.8c-.89,1.2-1.37,2.86-1.45,4.97Z"/><path class="f" d="M306.48,353.73c0-1.04-.17-1.7-.52-1.96-.35-.27-1.28-.41-2.81-.42v-1.44c1.31-.04,2.61-.11,3.91-.21,1.3-.1,2.58-.24,3.85-.41v4.73c.88-1.56,1.97-2.74,3.26-3.54s2.76-1.19,4.42-1.19c2.18,0,3.77,.59,4.79,1.76s1.52,3.04,1.52,5.59v8.58c0,1.26,.14,2.01,.42,2.25,.28,.25,.96,.42,2.04,.53v1.4c-1.46-.08-2.54-.13-3.25-.16s-1.27-.04-1.68-.04c-.49,0-1.14,.01-1.94,.04-.8,.03-1.92,.08-3.35,.16v-1.4c1.48-.13,2.37-.33,2.67-.58,.3-.25,.45-.99,.45-2.2v-8.86c0-1.75-.27-3-.82-3.74-.55-.74-1.45-1.11-2.71-1.11-1.38,0-2.67,.63-3.87,1.88-1.2,1.26-1.8,2.54-1.8,3.87v7.96c0,1.23,.14,1.97,.42,2.23,.28,.26,.98,.44,2.08,.55v1.4c-1.42-.08-2.49-.13-3.23-.16-.74-.03-1.32-.04-1.74-.04-.51,0-1.16,.01-1.95,.04s-1.93,.08-3.42,.16v-1.4c1.55-.13,2.48-.33,2.79-.59,.31-.26,.46-.99,.46-2.19v-11.48Z"/><path class="f" d="M346.53,343.01c0-.97-.15-1.6-.46-1.86-.31-.27-1.27-.43-2.89-.48v-1.38c1.22-.03,2.49-.07,3.83-.14,1.34-.07,2.71-.16,4.13-.28v26.55c0,1.14,.15,1.84,.46,2.1,.31,.27,1.03,.43,2.16,.48v1.4c-1.07,.04-2.19,.09-3.36,.15-1.17,.06-2.42,.13-3.74,.21l-.04-2.71c-.75,.91-1.62,1.59-2.62,2.03s-2.12,.67-3.38,.67c-2.58,0-4.61-.87-6.1-2.6-1.49-1.74-2.23-4.12-2.23-7.16,0-3.27,.8-5.88,2.42-7.82,1.61-1.94,3.76-2.91,6.44-2.91,1.03,0,1.97,.18,2.83,.53,.86,.35,1.71,.92,2.54,1.69v-8.5Zm0,10.64c-.56-.82-1.19-1.43-1.88-1.84-.69-.41-1.44-.62-2.24-.62-1.68,0-2.96,.74-3.83,2.21s-1.3,3.63-1.3,6.49c0,2.54,.42,4.48,1.25,5.82s2.04,2.01,3.62,2.01c.91,0,1.72-.19,2.44-.57,.71-.38,1.37-.97,1.95-1.77v-11.72Z"/><path class="f" d="M370.31,366.46c-1,1.19-2.03,2.04-3.1,2.55-1.06,.51-2.36,.76-3.9,.76s-2.8-.41-3.72-1.24c-.92-.83-1.37-1.96-1.37-3.39,0-1.59,.55-2.82,1.64-3.69,1.09-.87,3.5-1.69,7.21-2.47,.36-.08,.81-.17,1.34-.26,1.16-.21,1.74-.55,1.74-1.02v-2.2c0-1.84-.27-3.11-.82-3.79s-1.49-1.02-2.83-1.02c-.63,0-1.22,.1-1.78,.29-.56,.19-1.08,.48-1.56,.85,.07,.44,.11,.82,.14,1.12,.03,.31,.04,.59,.04,.86,0,.76-.21,1.4-.63,1.9-.42,.51-.95,.76-1.57,.76-.59,0-1.06-.18-1.4-.54-.35-.36-.52-.85-.52-1.46,0-1.38,.8-2.58,2.41-3.63,1.6-1.04,3.53-1.56,5.79-1.56,2.48,0,4.31,.54,5.48,1.61s1.75,2.77,1.75,5.08v.12l-.04,7.28v.9c0,1.27,.12,2.08,.35,2.43,.23,.35,.65,.52,1.25,.52,.36,0,.69-.09,.98-.27s.57-.46,.82-.83l.86,.58c-.55,.99-1.25,1.75-2.09,2.27-.85,.53-1.78,.79-2.8,.79-1.16,0-2.03-.26-2.62-.78s-.94-1.36-1.07-2.53Zm-.14-6.77c-3.02,.57-5.02,1.19-5.99,1.85s-1.46,1.61-1.46,2.86c0,.99,.26,1.78,.79,2.39,.53,.6,1.22,.9,2.08,.9,.79,0,1.58-.26,2.37-.78,.79-.52,1.52-1.26,2.17-2.22l.04-4.99Z"/><path class="f" d="M230.61,394.36c.01,2.83,.56,4.98,1.64,6.45s2.65,2.2,4.71,2.2c1.46,0,2.71-.36,3.78-1.08s1.87-1.77,2.42-3.15l1.16,.36c-.6,2-1.65,3.52-3.15,4.54-1.5,1.02-3.42,1.53-5.77,1.53-3.03,0-5.41-.9-7.13-2.7s-2.58-4.29-2.58-7.46,.9-5.59,2.7-7.49,4.17-2.84,7.1-2.84c2.74,0,4.9,.81,6.47,2.44,1.58,1.63,2.36,3.87,2.36,6.71v.3l-13.71,.16Zm-.02-1.4l9.54-.24c0-2.12-.39-3.75-1.17-4.86-.78-1.12-1.91-1.67-3.4-1.67s-2.63,.6-3.52,1.8c-.89,1.2-1.37,2.86-1.45,4.97Z"/><path class="f" d="M251.87,378.47c0-.96-.16-1.58-.47-1.85-.31-.27-1.31-.44-2.98-.49l.02-1.38c1.08-.03,2.25-.07,3.51-.13,1.26-.06,2.77-.16,4.53-.29v26.35c0,1.28,.18,2.05,.53,2.31,.35,.26,1.23,.42,2.62,.47v1.4c-1.6-.08-2.82-.13-3.64-.16-.82-.03-1.48-.04-1.97-.04-.39,0-.94,.01-1.66,.04-.72,.03-1.92,.08-3.59,.16v-1.38c1.44-.13,2.32-.33,2.64-.59,.31-.26,.47-1,.47-2.21v-22.21Z"/><path class="f" d="M301.86,378.63l.36-2.04h1.32c-.01,.21-.03,.52-.04,.92-.08,2.11-.12,3.61-.12,4.49,0,.52,.01,1.51,.04,2.97,.01,.62,.03,1.09,.04,1.42h-1.36c-.24-3.07-1.14-5.46-2.69-7.17s-3.59-2.56-6.13-2.56c-3.09,0-5.41,1.1-6.97,3.31-1.56,2.21-2.34,5.48-2.34,9.82s.84,7.65,2.53,9.93c1.68,2.28,4.12,3.42,7.31,3.42,2.21,0,4.05-.57,5.55-1.72,1.5-1.15,2.5-2.78,3.03-4.89h1.52c-.43,2.78-1.64,4.92-3.63,6.43-1.99,1.51-4.58,2.26-7.78,2.26-4.33,0-7.81-1.36-10.43-4.07-2.63-2.71-3.94-6.31-3.94-10.78s1.34-8.25,4.02-11.09c2.68-2.84,6.17-4.26,10.47-4.26,1.82,0,3.53,.31,5.13,.94s2.97,1.52,4.11,2.67Z"/><path class="f" d="M316.6,374.32v15.07c.95-1.54,2.06-2.7,3.33-3.48,1.27-.78,2.68-1.17,4.23-1.17,2.26,0,3.89,.58,4.89,1.73s1.5,3.06,1.5,5.7v8.5c0,1.24,.14,1.99,.42,2.25,.28,.26,.96,.44,2.04,.55v1.38c-1.46-.08-2.54-.13-3.24-.16-.7-.03-1.27-.04-1.69-.04-.5,0-1.14,.01-1.94,.04s-1.91,.08-3.33,.16l-.02-1.4c1.46-.13,2.35-.33,2.67-.58,.33-.25,.49-.99,.49-2.2v-8.86c0-1.76-.26-3.01-.77-3.75-.51-.73-1.35-1.1-2.51-1.1-1.52,0-2.92,.66-4.18,1.97-1.26,1.32-1.89,2.72-1.89,4.22v7.52c0,1.23,.14,1.97,.42,2.23,.28,.26,.96,.44,2.04,.55l-.02,1.4c-1.71-.09-2.87-.15-3.47-.17-.6-.02-1.08-.03-1.44-.03-.49,0-1.14,.01-1.93,.04s-1.95,.08-3.48,.16v-1.4c1.54-.13,2.47-.33,2.8-.59s.49-.99,.49-2.19v-22.21c0-.95-.16-1.56-.48-1.84-.32-.28-1.18-.45-2.57-.5v-1.38c.91-.01,1.95-.05,3.12-.12,1.17-.07,2.67-.17,4.52-.3Z"/><path class="f" d="M347.56,384.74c3.01,0,5.37,.92,7.09,2.76s2.58,4.34,2.58,7.5c0,2.97-.92,5.41-2.76,7.33s-4.15,2.89-6.92,2.89c-2.97,0-5.32-.9-7.06-2.71-1.74-1.8-2.62-4.24-2.62-7.29s.91-5.6,2.74-7.56c1.82-1.95,4.14-2.93,6.94-2.93Zm.04,1.44c-1.54,0-2.72,.77-3.56,2.29-.83,1.53-1.25,3.71-1.25,6.52s.4,5.03,1.21,6.55,1.97,2.28,3.48,2.28,2.74-.76,3.57-2.28c.83-1.52,1.24-3.71,1.24-6.55s-.4-5.01-1.21-6.53c-.81-1.52-1.97-2.29-3.48-2.29Z"/><path class="f" d="M364.72,389.19c0-1.04-.17-1.7-.52-1.96-.35-.27-1.28-.41-2.81-.42v-1.44c1.31-.04,2.61-.11,3.89-.21,1.28-.1,2.55-.24,3.79-.41v5.27c.64-1.68,1.44-2.98,2.4-3.9,.96-.92,1.99-1.37,3.1-1.37s1.96,.31,2.61,.92,.96,1.43,.96,2.44c0,.75-.19,1.35-.58,1.79-.39,.45-.9,.67-1.54,.67-.72,0-1.27-.2-1.65-.6s-.57-.99-.57-1.76c0-.33,.04-.66,.13-.99,.09-.33,.21-.66,.37-.99h-.04c-1.31,0-2.46,.89-3.45,2.68-.99,1.78-1.48,3.93-1.48,6.44v5.33c0,1.19,.22,1.94,.67,2.25,.45,.31,1.71,.5,3.8,.55v1.38c-1.64-.07-3-.12-4.08-.15-1.08-.03-2-.05-2.78-.05-.36,0-.89,.01-1.6,.04-.71,.03-2,.08-3.89,.16v-1.38c1.55-.13,2.49-.33,2.81-.6,.32-.27,.48-1,.48-2.2v-11.48Z"/><path class="f" d="M392.08,384.74c3.01,0,5.37,.92,7.09,2.76s2.58,4.34,2.58,7.5c0,2.97-.92,5.41-2.76,7.33s-4.15,2.89-6.92,2.89c-2.97,0-5.32-.9-7.06-2.71-1.74-1.8-2.62-4.24-2.62-7.29s.91-5.6,2.74-7.56c1.82-1.95,4.14-2.93,6.94-2.93Zm.04,1.44c-1.54,0-2.72,.77-3.56,2.29-.83,1.53-1.25,3.71-1.25,6.52s.4,5.03,1.21,6.55,1.97,2.28,3.48,2.28,2.74-.76,3.57-2.28c.83-1.52,1.24-3.71,1.24-6.55s-.4-5.01-1.21-6.53c-.81-1.52-1.97-2.29-3.48-2.29Z"/></g><g><path class="f" d="M588.39,625.67l.32-1.6h1.22c-.03,.86-.05,1.61-.07,2.26-.02,.65-.03,1.2-.03,1.64,0,.67,.01,1.38,.03,2.12,.02,.75,.04,1.56,.07,2.42h-1.3c-.24-2.46-1-4.34-2.27-5.66-1.28-1.32-2.98-1.97-5.1-1.97-1.64,0-2.98,.48-4.01,1.43-1.03,.96-1.54,2.19-1.54,3.7,0,1.28,.37,2.32,1.11,3.11,.74,.79,2.38,1.66,4.92,2.61,3.89,1.46,6.43,2.82,7.62,4.09,1.19,1.27,1.78,2.93,1.78,4.97,0,2.59-.93,4.68-2.81,6.25-1.87,1.58-4.36,2.36-7.46,2.36-1.58,0-3.05-.26-4.41-.77-1.36-.51-2.65-1.29-3.87-2.33l-.5,2.04h-1.18c0-.47,0-1.12,.02-1.96,.04-1.59,.06-2.62,.06-3.09,0-.4-.01-1.28-.04-2.65-.03-.83-.04-1.48-.04-1.94h1.42c.16,2.85,.96,5.07,2.41,6.67,1.45,1.6,3.37,2.41,5.76,2.41,1.75,0,3.14-.47,4.17-1.4,1.03-.94,1.54-2.21,1.54-3.83,0-1.27-.39-2.31-1.16-3.13-.78-.81-2.2-1.6-4.27-2.36-.25-.09-.64-.23-1.16-.4-2.65-.93-4.53-1.82-5.65-2.65-1.08-.79-1.87-1.68-2.36-2.67-.5-1-.74-2.18-.74-3.56,0-2.62,.88-4.7,2.63-6.25,1.75-1.55,4.12-2.33,7.09-2.33,1.47,0,2.86,.2,4.16,.61,1.3,.41,2.52,1.03,3.64,1.85Z"/><path class="f" d="M609.16,650.1c-1,1.19-2.03,2.04-3.1,2.55-1.06,.51-2.36,.76-3.9,.76s-2.8-.41-3.72-1.24c-.92-.83-1.37-1.96-1.37-3.39,0-1.59,.55-2.82,1.64-3.69,1.09-.87,3.5-1.69,7.21-2.47,.36-.08,.81-.17,1.34-.26,1.16-.21,1.74-.55,1.74-1.02v-2.2c0-1.84-.27-3.11-.82-3.79s-1.49-1.02-2.83-1.02c-.63,0-1.22,.1-1.78,.29-.56,.19-1.08,.48-1.56,.85,.07,.44,.11,.82,.14,1.12,.03,.31,.04,.59,.04,.86,0,.76-.21,1.4-.63,1.9-.42,.51-.95,.76-1.57,.76-.59,0-1.06-.18-1.4-.54-.35-.36-.52-.85-.52-1.46,0-1.38,.8-2.58,2.41-3.63,1.6-1.04,3.53-1.56,5.79-1.56,2.48,0,4.31,.54,5.48,1.61s1.75,2.77,1.75,5.08v.12l-.04,7.28v.9c0,1.27,.12,2.08,.35,2.43,.23,.35,.65,.52,1.25,.52,.36,0,.69-.09,.98-.27s.57-.46,.82-.83l.86,.58c-.55,.99-1.25,1.75-2.09,2.27-.85,.53-1.78,.79-2.8,.79-1.16,0-2.03-.26-2.62-.78s-.94-1.36-1.07-2.53Zm-.14-6.77c-3.02,.57-5.02,1.19-5.99,1.85s-1.46,1.61-1.46,2.86c0,.99,.26,1.78,.79,2.39,.53,.6,1.22,.9,2.08,.9,.79,0,1.58-.26,2.37-.78,.79-.52,1.52-1.26,2.17-2.22l.04-4.99Z"/><path class="f" d="M623.86,637.38c0-1.04-.17-1.7-.52-1.96-.35-.27-1.28-.41-2.81-.42v-1.44c1.31-.04,2.61-.11,3.91-.21,1.3-.1,2.58-.24,3.85-.41v4.73c.88-1.56,1.97-2.74,3.26-3.54s2.76-1.19,4.42-1.19c2.18,0,3.77,.59,4.79,1.76s1.52,3.04,1.52,5.59v8.58c0,1.26,.14,2.01,.42,2.25,.28,.25,.96,.42,2.04,.53v1.4c-1.46-.08-2.54-.13-3.25-.16s-1.27-.04-1.68-.04c-.49,0-1.14,.01-1.94,.04-.8,.03-1.92,.08-3.35,.16v-1.4c1.48-.13,2.37-.33,2.67-.58,.3-.25,.45-.99,.45-2.2v-8.86c0-1.75-.27-3-.82-3.74-.55-.74-1.45-1.11-2.71-1.11-1.38,0-2.67,.63-3.87,1.88-1.2,1.26-1.8,2.54-1.8,3.87v7.96c0,1.23,.14,1.97,.42,2.23,.28,.26,.98,.44,2.08,.55v1.4c-1.42-.08-2.49-.13-3.23-.16-.74-.03-1.32-.04-1.74-.04-.51,0-1.16,.01-1.95,.04s-1.93,.08-3.42,.16v-1.4c1.55-.13,2.48-.33,2.79-.59,.31-.26,.46-.99,.46-2.19v-11.48Z"/><path class="f" d="M687.06,625.71l.46-1.92h1.26c-.04,.96-.07,1.81-.09,2.54-.02,.74-.03,1.39-.03,1.96,0,1,.03,2.53,.08,4.59v.34h-1.36c-.21-2.69-1.04-4.75-2.48-6.2-1.44-1.45-3.37-2.17-5.79-2.17-3.13,0-5.47,1.15-7.04,3.46s-2.35,5.76-2.35,10.37c0,4.3,.75,7.54,2.26,9.73s3.75,3.28,6.71,3.28c1.83,0,3.25-.28,4.27-.85,1.02-.57,1.52-1.37,1.52-2.42v-3.41c0-1.39-1.32-2.14-3.95-2.25-.62-.03-1.09-.05-1.42-.06v-1.56c1.4,.07,2.65,.12,3.74,.15s2.09,.05,3,.05c.55,0,1.25-.01,2.11-.04,.86-.03,2.13-.08,3.8-.16l-.02,1.56c-.87,.07-1.46,.22-1.77,.47-.31,.25-.47,.68-.47,1.29v7.13l-2.18-1.18c-1.27,1.03-2.65,1.78-4.13,2.26-1.48,.48-3.21,.72-5.19,.72-4.38,0-7.82-1.29-10.32-3.89-2.5-2.59-3.75-6.17-3.75-10.72s1.33-8.49,3.99-11.33c2.66-2.84,6.19-4.26,10.58-4.26,1.52,0,2.99,.2,4.39,.61,1.4,.41,2.8,1.04,4.19,1.89Z"/><path class="f" d="M703.44,632.93v15.93c0,1.3,.18,2.07,.54,2.32,.36,.25,1.24,.41,2.63,.46v1.4c-1.64-.08-2.88-.13-3.72-.16s-1.51-.04-2.03-.04c-.55,0-1.26,.01-2.12,.04-.87,.03-2.13,.08-3.79,.16v-1.4c1.86-.09,2.97-.27,3.35-.53,.37-.26,.56-1.01,.56-2.25v-11.48c-.01-1.56-1.3-2.36-3.87-2.38h-.04v-1.42c1.38-.05,2.77-.13,4.19-.23,1.42-.1,2.85-.24,4.31-.41Zm-2.54-8.66c.72,0,1.31,.22,1.77,.66,.46,.44,.69,1,.69,1.68,0,.76-.27,1.42-.82,1.96-.55,.55-1.2,.82-1.96,.82-.71,0-1.29-.23-1.74-.68s-.68-1.01-.68-1.68c0-.73,.28-1.38,.84-1.93,.56-.55,1.2-.83,1.9-.83Z"/><path class="f" d="M713.07,626.65c0-.96-.16-1.58-.47-1.85-.31-.27-1.31-.44-2.98-.49l.02-1.38c1.08-.03,2.25-.07,3.51-.13,1.26-.06,2.77-.16,4.53-.29v26.35c0,1.28,.18,2.05,.53,2.31,.35,.26,1.23,.42,2.62,.47v1.4c-1.6-.08-2.82-.13-3.64-.16-.82-.03-1.48-.04-1.97-.04-.39,0-.94,.01-1.66,.04-.72,.03-1.92,.08-3.59,.16v-1.38c1.44-.13,2.32-.33,2.64-.59,.31-.26,.47-1,.47-2.21v-22.21Z"/></g><g><path class="e" d="M4.68,187.63L.12,204.33c-.11,.42-.15,.86-.1,1.29l1.58,14.23c.04,.4,.16,.8,.34,1.16l2.92,5.84c.17,.33,.38,.63,.65,.9l.32,.32c.65,.65,1.52,1.01,2.44,1.01h28.35c1.45,0,2.74-.9,3.24-2.26l4.45-12.1c.27-.74,.79-1.36,1.46-1.77l6.8-4.08c.51-.3,.93-.73,1.22-1.25l5.99-10.48c.3-.52,.45-1.11,.45-1.71v-21.06c0-1.31-.74-2.5-1.91-3.08l-6.78-3.39c-1.03-.52-1.74-1.51-1.88-2.66l-1.09-8.7c-.23-1.82-1.84-3.14-3.67-3.01l-18.4,1.31c-1.47,.1-2.71,1.13-3.09,2.55l-5.82,21.84c-.27,1.02-1,1.86-1.97,2.28l-8.98,3.85c-.97,.41-1.69,1.25-1.97,2.26Z"/><path class="d" d="M425.33,258.12c-2.8,0-5.61-.99-7.86-3-4.87-4.34-5.3-11.82-.95-16.69,11-12.33,16.1-24.79,15.16-37.01-.9-11.63-6.95-20.91-11.87-26.65-3.1-3.61-6.44-7.39-9.98-11.4-24.77-28.02-55.59-62.88-49.31-94.28,1.28-6.4,7.51-10.55,13.91-9.27,6.4,1.28,10.55,7.51,9.27,13.91-3.98,19.9,23.66,51.16,43.84,73.99,3.6,4.07,7,7.92,10.22,11.67,7.21,8.41,16.1,22.22,17.49,40.22,1.45,18.89-5.64,37.24-21.09,54.56-2.33,2.62-5.57,3.95-8.82,3.95Z"/><path class="e" d="M513.16,746.16v-5.95c0-.48,.12-.96,.35-1.38l16.75-30.75c.08-.15,.15-.31,.2-.47l8.42-25.27c.07-.21,.16-.41,.28-.6l12.76-20.73c.53-.86,1.46-1.38,2.46-1.38h28.01c.64,0,1.25,.21,1.76,.6l7.84,6c.25,.19,.47,.43,.65,.69l2.72,4.08c.3,.45,.72,.81,1.21,1.03l54.26,24.66c1.1,.5,2.39,.26,3.24-.59l2.4-2.4c.82-.82,2.05-1.07,3.12-.64l38.63,15.45c1.47,.59,2.19,2.25,1.63,3.72l-6.07,15.79c-.73,1.89,.67,3.93,2.7,3.93h26.23c.37,0,.74,.07,1.08,.21l7.14,2.89c2.17,.88,2.45,3.84,.49,5.11l-20.81,13.46c-.71,.46-1.18,1.21-1.3,2.05l-3.22,24.14c-.03,.24-.03,.49,0,.73l1.97,16.08c.18,1.44-.73,2.78-2.13,3.15l-16.74,4.42c-.24,.06-.49,.1-.74,.1h-15.37c-.89,0-1.73-.41-2.28-1.11l-19.9-25.51c-1.44-1.84-4.36-1.31-5.05,.93l-4.28,13.92c-.52,1.68-2.39,2.51-3.98,1.77l-43.54-20.21c-1.02-.47-1.67-1.5-1.67-2.62v-7.52c0-.63-.2-1.23-.58-1.74l-8.67-11.56c-.66-.89-1.77-1.31-2.86-1.1l-7.79,1.5c-1.29,.25-2.26,1.34-2.34,2.66h0c-.09,1.39-1.15,2.51-2.53,2.69l-37.66,4.71c-.83,.1-1.66-.15-2.28-.71l-13.55-12.04c-.62-.55-.97-1.34-.97-2.16Z"/><path class="d" d="M641.61,763.24c-9.71,0-18.89-1.55-27.45-4.68-30.08-10.98-52.45-43.91-97-109.51-25.25-37.18-37.92-55.84-46.11-78.38-21.53-59.27-14.72-116.77-7.52-177.64,1.73-14.6,3.61-26.6,5.12-36.25,4.06-25.89,5.74-36.6-.86-52.57-4.94-11.95-12.58-23.71-61.17-56.74-7.66-5.2-14.95-10.2-21.91-14.96-62.93-43.06-97.6-66.77-123.81-60.79-11.19,2.56-21.09,7.91-31.57,13.58-18.36,9.92-39.15,21.17-72.12,21.17-.2,0-.39,0-.59,0-13.31-.05-22.59-1.9-31.57-3.68-9.66-1.92-18.78-3.73-33.41-3.22-13.93,.49-27.96,2.93-41.72,7.26-6.22,1.96-12.86-1.5-14.82-7.73-1.96-6.23,1.5-12.86,7.73-14.82,15.79-4.97,31.93-7.77,47.99-8.33,17.38-.6,28.29,1.56,38.84,3.65,8.24,1.64,16.03,3.18,27.06,3.23,.17,0,.34,0,.5,0,26.99,0,43.45-8.9,60.88-18.32,11.41-6.17,23.22-12.55,37.55-15.83,36.3-8.29,73.99,17.5,142.42,64.33,6.95,4.75,14.22,9.73,21.86,14.92,49.58,33.7,61.99,48.54,69.72,67.26,9.14,22.11,6.59,38.35,2.37,65.27-1.56,9.94-3.33,21.21-5,35.36-6.87,58.01-13.35,112.8,6.26,166.8,7.18,19.77,19.3,37.62,43.44,73.17,41.7,61.41,62.63,92.23,85.55,100.59,21.25,7.76,49.29,1.64,81.09-17.7,31.99-19.45,65.44-50.73,96.74-90.46,4.04-5.13,11.47-6.01,16.6-1.97,5.13,4.04,6.01,11.47,1.97,16.6-33.03,41.92-68.65,75.12-103.02,96.03-26.59,16.17-51.69,24.38-74.02,24.38Z"/><path class="d" d="M387.43,872.95c-2.43,0-4.89-.75-7-2.3-5.26-3.87-6.38-11.27-2.51-16.52,35.68-48.49,77.14-85.76,119.88-107.81,43.08-22.22,85.01-26.91,118.05-13.21,6.03,2.5,8.89,9.41,6.39,15.44-2.5,6.03-9.42,8.9-15.44,6.39-26.51-10.99-61.37-6.59-98.17,12.39-39.52,20.38-78.14,55.24-111.68,100.81-2.32,3.15-5.9,4.81-9.53,4.81Z"/></g><g><path class="f" d="M758.05,729.55c.75-.65,1.38-1.21,1.89-1.67,.52-.47,.92-.84,1.21-1.13,.36-.35,1.05-1.09,2.08-2.21,.38-.42,.68-.73,.89-.96l.84,.85c-.58,.62-.91,1.08-.99,1.37-.08,.29,0,.56,.25,.81,.12,.13,.29,.25,.48,.38,.2,.12,.45,.26,.75,.41l12.93,6.3-6.27-12.81c-.14-.32-.25-.56-.35-.71-.1-.15-.21-.3-.34-.43-.29-.29-.62-.39-1-.28-.38,.11-.85,.44-1.41,.99l-.84-.85c.57-.49,1.03-.89,1.38-1.2,.35-.31,.65-.58,.89-.82,.18-.18,.42-.43,.7-.74,.29-.32,.69-.76,1.2-1.34l.84,.85c-.46,.56-.73,.99-.8,1.31-.07,.32,0,.69,.22,1.12l6.38,13.49c.37,.8,.75,1.64,1.15,2.53,.39,.88,.8,1.8,1.21,2.76l-1.2,.93-18.13-8.4-.1-.04c-1.18-.57-2.18-.45-3,.35l-.84-.85Z"/><path class="f" d="M780.18,711.51l-1.41,5.04-.91,.89-.19-6.02c-.02-.48,.02-.89,.1-1.22,.09-.33,.23-.6,.43-.79,.25-.25,.56-.37,.92-.35s.67,.15,.92,.41c.21,.21,.32,.46,.34,.76,.02,.3-.05,.72-.2,1.28Zm2.47,3.51l8.25,8.39c.67,.68,1.17,1,1.48,.95,.32-.05,.86-.42,1.63-1.12l.73,.74c-.92,.82-1.6,1.44-2.04,1.84s-.78,.73-1.03,.97c-.29,.28-.65,.66-1.09,1.11-.44,.46-1.1,1.16-1.99,2.12l-.73-.74c.93-1.01,1.42-1.68,1.48-2.02,.06-.33-.23-.83-.87-1.47l-5.95-6.05c-.54-.55-.97-.8-1.29-.76-.32,.04-.99,.55-2.02,1.52l-.73-.74c.75-.81,1.47-1.61,2.17-2.4,.69-.79,1.35-1.57,1.98-2.34Z"/><path class="f" d="M801.67,714.11c.09,1.14-.02,2.13-.31,2.94-.3,.82-.85,1.62-1.66,2.42-.82,.81-1.69,1.23-2.6,1.27-.91,.04-1.74-.32-2.48-1.07-.82-.84-1.17-1.77-1.04-2.79s.97-2.7,2.52-5.04c.15-.23,.34-.51,.57-.83,.5-.71,.63-1.19,.39-1.44l-1.14-1.16c-.96-.97-1.75-1.49-2.39-1.57-.64-.07-1.31,.23-2.02,.93-.33,.33-.59,.68-.79,1.08s-.32,.81-.38,1.26c.26,.2,.48,.37,.66,.52,.17,.15,.33,.29,.47,.43,.39,.4,.61,.84,.65,1.33,.04,.49-.1,.89-.43,1.22-.31,.3-.65,.45-1.02,.44-.37,0-.71-.18-1.03-.5-.71-.72-.92-1.78-.61-3.16,.3-1.38,1.05-2.65,2.24-3.82,1.31-1.29,2.55-1.95,3.72-1.99s2.36,.55,3.56,1.77l.06,.06,3.75,3.85,.47,.47c.66,.67,1.14,1.03,1.44,1.09,.3,.06,.61-.06,.93-.37,.19-.19,.32-.4,.38-.65,.06-.25,.06-.54,0-.86l.75-.14c.22,.8,.25,1.57,.08,2.28-.17,.72-.53,1.34-1.06,1.87-.61,.6-1.21,.92-1.78,.94-.58,.03-1.2-.23-1.87-.77Zm-3.58-3.5c-1.29,1.87-2.02,3.23-2.2,4.08-.17,.85,.07,1.61,.71,2.26,.51,.52,1.06,.8,1.65,.85,.59,.04,1.11-.16,1.56-.6,.42-.41,.7-.96,.85-1.64,.15-.69,.15-1.45,0-2.3l-2.56-2.65Z"/><path class="f" d="M721.9,807.88c.47-.42,.93-.84,1.39-1.27,.45-.42,.9-.85,1.33-1.28,.84-.82,1.69-1.68,2.55-2.57,.86-.89,1.32-1.36,1.37-1.41,1.83-1.8,3.49-2.82,4.97-3.05,1.48-.24,2.87,.3,4.15,1.6,1.09,1.11,1.62,2.33,1.57,3.64-.05,1.31-.67,2.65-1.87,4.01l.06,.06c1.6-1.4,3.12-2.15,4.57-2.25,1.44-.1,2.75,.44,3.93,1.64,1.35,1.37,1.86,2.85,1.52,4.42-.34,1.58-1.56,3.41-3.67,5.48-.53,.52-1.22,1.17-2.06,1.97-.85,.79-1.42,1.33-1.71,1.62-.43,.42-.88,.88-1.36,1.37-.48,.49-.96,1-1.45,1.52l-.84-.83c.78-.77,1.17-1.36,1.18-1.77,0-.41-.38-1.01-1.17-1.81l-10.23-10.39c-.71-.72-1.26-1.06-1.64-1.01-.38,.05-.96,.44-1.74,1.17l-.84-.86Zm5.39-3.56l6.16,6.26,1.6-1.58c1.13-1.11,1.71-2.16,1.72-3.13s-.53-2.02-1.62-3.13c-1.13-1.15-2.17-1.73-3.11-1.72-.94,.01-2.07,.66-3.38,1.96l-1.36,1.34Zm7.01,7.12l6.51,6.62,1.44-1.41c1.4-1.38,2.14-2.58,2.22-3.62,.08-1.04-.46-2.15-1.63-3.33-1.19-1.21-2.33-1.79-3.43-1.73-1.1,.05-2.34,.76-3.72,2.13l-1.38,1.36Z"/><path class="f" d="M745.97,798.49c-.53-.54-.95-.8-1.26-.77-.31,.03-.83,.39-1.56,1.08l-.74-.75c.65-.71,1.29-1.43,1.91-2.15,.62-.72,1.21-1.43,1.78-2.15l7.13,7.25c.86,.87,1.62,1.34,2.27,1.39s1.34-.28,2.07-.99c.65-.64,1.07-1.37,1.24-2.18,.17-.81,.08-1.62-.26-2.44l-5.34-5.42c-.53-.54-.95-.8-1.27-.77-.31,.03-.84,.38-1.57,1.07l-.74-.75c.82-.89,1.53-1.68,2.11-2.35,.58-.67,1.11-1.32,1.59-1.93l8.29,8.43c.61,.62,1.04,.93,1.3,.92,.26,0,.69-.26,1.3-.76l.73,.74c-.24,.22-.49,.45-.74,.7s-.58,.56-.98,.96c-.15,.15-.37,.38-.68,.7-.3,.32-.68,.72-1.14,1.22l-1.55-1.49c.14,1.03,.04,1.98-.3,2.86s-.95,1.76-1.84,2.63c-1.2,1.18-2.38,1.75-3.52,1.69-1.14-.06-2.37-.75-3.68-2.08l-4.57-4.64Z"/><path class="f" d="M773.82,780.96l.82-.31c.66,1.43,.85,2.8,.58,4.11-.27,1.31-1,2.55-2.19,3.72-1.57,1.54-3.26,2.31-5.08,2.29-1.82-.01-3.49-.81-5.04-2.37-1.68-1.71-2.53-3.58-2.54-5.62,0-2.04,.82-3.88,2.5-5.53,1.14-1.12,2.38-1.77,3.72-1.93,1.34-.17,2.4,.15,3.2,.96,.36,.37,.55,.74,.57,1.14,.02,.39-.14,.75-.47,1.07-.33,.33-.73,.47-1.19,.44-.46-.03-.87-.24-1.24-.61-.19-.2-.36-.45-.5-.77-.14-.32-.24-.51-.31-.58-.22-.22-.62-.25-1.21-.09-.59,.16-1.15,.51-1.69,1.04-.94,.93-1.28,2.08-1.02,3.45,.26,1.38,1.11,2.78,2.53,4.22,1.29,1.32,2.57,2.05,3.84,2.2,1.27,.15,2.42-.29,3.47-1.32,.79-.78,1.3-1.64,1.51-2.57,.21-.93,.13-1.92-.25-2.97Z"/><path class="f" d="M784.87,773.41c.09,1.14-.02,2.13-.31,2.94s-.85,1.62-1.66,2.42c-.82,.81-1.69,1.23-2.6,1.27-.91,.04-1.74-.32-2.48-1.07-.82-.84-1.17-1.77-1.04-2.79,.13-1.03,.97-2.7,2.52-5.04,.15-.23,.34-.51,.57-.83,.5-.71,.63-1.2,.39-1.44l-1.14-1.16c-.95-.97-1.75-1.49-2.39-1.57-.64-.07-1.31,.23-2.02,.93-.33,.33-.59,.68-.79,1.08-.19,.39-.32,.81-.38,1.26,.26,.2,.48,.37,.66,.52,.17,.15,.33,.29,.47,.43,.39,.4,.61,.84,.65,1.33,.04,.49-.1,.89-.43,1.22-.31,.3-.65,.45-1.02,.44s-.71-.18-1.03-.5c-.71-.72-.92-1.78-.61-3.16,.3-1.38,1.05-2.65,2.24-3.82,1.31-1.29,2.55-1.95,3.72-1.99,1.17-.04,2.36,.55,3.56,1.77l.06,.06,3.75,3.85,.47,.47c.66,.67,1.14,1.03,1.44,1.09,.3,.06,.61-.06,.93-.37,.19-.19,.32-.4,.38-.65,.06-.25,.06-.54,0-.86l.75-.14c.22,.8,.25,1.57,.08,2.28-.17,.72-.53,1.34-1.06,1.87-.61,.6-1.21,.92-1.78,.94-.58,.03-1.2-.23-1.87-.77Zm-3.58-3.49c-1.29,1.87-2.03,3.23-2.2,4.08-.17,.85,.06,1.61,.71,2.26,.51,.52,1.06,.8,1.65,.85,.59,.04,1.11-.16,1.56-.6,.42-.41,.7-.96,.85-1.64,.15-.69,.15-1.45,0-2.3l-2.56-2.65Z"/><path class="f" d="M786.03,759.08c-.54-.55-.97-.8-1.29-.76-.32,.04-.89,.45-1.7,1.23l-.75-.76c.67-.7,1.31-1.41,1.94-2.12,.62-.72,1.22-1.44,1.78-2.18l2.73,2.78c-.53-1.22-.79-2.32-.76-3.29,.03-.98,.34-1.75,.92-2.33,.58-.57,1.19-.86,1.85-.87s1.25,.25,1.77,.79c.39,.39,.59,.81,.62,1.25,.03,.44-.13,.82-.46,1.15-.38,.37-.77,.55-1.18,.54s-.81-.22-1.21-.63c-.17-.18-.32-.37-.45-.59s-.23-.46-.32-.71l-.02,.02c-.69,.68-.83,1.74-.43,3.19,.4,1.45,1.26,2.84,2.56,4.16l2.76,2.81c.62,.63,1.12,.91,1.52,.84,.4-.07,1.16-.63,2.29-1.68l.72,.73c-.9,.82-1.64,1.49-2.23,2.03-.58,.54-1.08,1.01-1.49,1.41-.19,.19-.46,.47-.82,.85s-1.01,1.08-1.96,2.1l-.72-.73c.75-.87,1.14-1.46,1.17-1.77,.03-.31-.27-.78-.89-1.41l-5.95-6.05Z"/><path class="f" d="M808.19,750.47c.09,1.14-.02,2.13-.31,2.94s-.85,1.62-1.66,2.42c-.82,.81-1.69,1.23-2.6,1.27-.91,.04-1.74-.32-2.48-1.07-.82-.84-1.17-1.77-1.04-2.79,.13-1.03,.97-2.7,2.52-5.04,.15-.23,.34-.51,.57-.83,.5-.71,.63-1.2,.39-1.44l-1.14-1.16c-.95-.97-1.75-1.49-2.39-1.57-.64-.07-1.31,.23-2.02,.93-.33,.33-.59,.68-.79,1.08-.2,.39-.32,.81-.38,1.26,.26,.2,.48,.37,.66,.52,.17,.15,.33,.29,.47,.43,.39,.4,.61,.84,.65,1.33,.04,.49-.1,.89-.43,1.22-.31,.3-.65,.45-1.02,.44-.37-.01-.72-.18-1.03-.5-.71-.72-.92-1.78-.61-3.16,.3-1.38,1.05-2.65,2.24-3.82,1.31-1.29,2.55-1.95,3.72-1.99,1.17-.04,2.36,.55,3.56,1.77l.06,.06,3.75,3.85,.47,.47c.66,.67,1.14,1.03,1.44,1.09,.3,.06,.61-.06,.93-.37,.19-.19,.32-.4,.38-.65,.06-.25,.06-.54,0-.86l.75-.14c.22,.8,.25,1.57,.08,2.28-.17,.72-.53,1.34-1.06,1.87-.61,.6-1.21,.92-1.78,.94-.58,.03-1.2-.23-1.87-.77Zm-3.58-3.49c-1.29,1.87-2.02,3.23-2.2,4.08s.06,1.61,.71,2.26c.51,.52,1.06,.8,1.65,.85,.59,.04,1.11-.16,1.56-.6,.42-.41,.7-.96,.85-1.64,.15-.69,.15-1.45,0-2.3l-2.56-2.65Z"/><path class="f" d="M809.33,736.16c-.54-.55-.97-.8-1.29-.76-.32,.04-.89,.45-1.7,1.23l-.75-.76c.67-.71,1.32-1.42,1.95-2.14,.62-.72,1.22-1.45,1.79-2.19l2.39,2.43c-.3-1.27-.34-2.41-.12-3.45s.71-1.92,1.47-2.66c.88-.87,1.79-1.35,2.74-1.45,.95-.1,1.86,.18,2.72,.86-.32-1.27-.37-2.42-.15-3.43,.22-1.02,.72-1.91,1.5-2.67,1.08-1.07,2.18-1.54,3.29-1.43s2.31,.82,3.59,2.12l4.63,4.71c.6,.61,1.03,.89,1.31,.87,.28-.03,.73-.29,1.36-.79l.72,.73c-.83,.73-1.43,1.27-1.8,1.61-.37,.34-.66,.61-.86,.8-.25,.25-.58,.58-.97,1-.39,.42-.96,1.03-1.69,1.83l-.73-.74c.7-.8,1.08-1.35,1.11-1.65,.04-.3-.27-.78-.91-1.43l-4.7-4.78c-.82-.83-1.55-1.31-2.2-1.44-.65-.13-1.26,.08-1.83,.64-.65,.64-.99,1.48-1.02,2.51-.02,1.03,.29,2.05,.93,3.06l4.44,4.52c.6,.61,1.04,.89,1.32,.87,.29-.02,.73-.29,1.35-.79l.72,.73c-.78,.68-1.36,1.2-1.75,1.55-.39,.35-.69,.64-.91,.85-.25,.25-.58,.58-.97,1-.39,.42-.96,1.02-1.69,1.83l-.73-.74c.7-.8,1.07-1.35,1.11-1.66,.04-.3-.27-.78-.91-1.43l-4.7-4.78c-.82-.83-1.55-1.31-2.2-1.44-.65-.13-1.26,.08-1.83,.65-.65,.64-.99,1.48-1.01,2.52-.02,1.04,.29,2.04,.94,3.03l4.34,4.41c.65,.66,1.11,.98,1.39,.97,.28-.02,.73-.28,1.35-.78l.73,.74c-.91,.81-1.54,1.38-1.9,1.7-.36,.33-.63,.58-.82,.77-.24,.24-.55,.56-.95,.98-.39,.42-.96,1.03-1.71,1.85l-.73-.74c.76-.89,1.15-1.47,1.17-1.76,.02-.29-.28-.75-.9-1.38l-5.95-6.05Z"/><path class="f" d="M842.04,717.17c.09,1.14-.02,2.13-.31,2.94s-.85,1.62-1.66,2.42c-.82,.81-1.69,1.23-2.6,1.27-.91,.04-1.74-.32-2.48-1.07-.82-.84-1.17-1.77-1.04-2.79,.13-1.03,.97-2.7,2.52-5.04,.15-.23,.34-.51,.57-.83,.5-.72,.63-1.2,.39-1.44l-1.14-1.16c-.95-.97-1.75-1.49-2.39-1.57-.64-.07-1.31,.23-2.02,.93-.33,.33-.59,.68-.79,1.08-.19,.39-.32,.81-.38,1.26,.26,.2,.48,.37,.66,.52,.17,.15,.33,.29,.47,.43,.39,.4,.61,.84,.65,1.33,.04,.49-.1,.89-.43,1.22-.31,.3-.65,.45-1.02,.44s-.71-.18-1.03-.5c-.71-.72-.92-1.78-.61-3.16s1.05-2.65,2.24-3.82c1.31-1.29,2.55-1.95,3.72-1.99,1.17-.04,2.36,.55,3.56,1.77l.06,.06,3.75,3.85,.47,.47c.66,.67,1.14,1.03,1.44,1.09,.3,.06,.61-.06,.93-.37,.19-.19,.32-.4,.38-.65,.06-.25,.06-.54,0-.86l.75-.14c.22,.8,.25,1.57,.08,2.28-.17,.72-.53,1.34-1.06,1.87-.61,.6-1.21,.92-1.78,.94-.58,.03-1.2-.23-1.87-.77Zm-3.58-3.49c-1.29,1.87-2.03,3.23-2.2,4.08-.17,.85,.06,1.61,.71,2.26,.51,.52,1.06,.8,1.65,.85,.59,.04,1.11-.16,1.56-.6,.42-.41,.7-.96,.85-1.64,.15-.69,.15-1.45,0-2.3l-2.56-2.65Z"/><path class="f" d="M843.19,702.85c-.54-.55-.97-.8-1.29-.76-.32,.04-.89,.45-1.7,1.23l-.75-.76c.67-.7,1.32-1.41,1.95-2.14,.63-.72,1.24-1.46,1.81-2.21l2.45,2.49c-.34-1.28-.38-2.46-.12-3.55,.27-1.09,.84-2.06,1.71-2.92,1.15-1.13,2.29-1.65,3.44-1.55,1.14,.09,2.38,.81,3.7,2.15l4.44,4.52c.65,.66,1.11,.98,1.39,.97,.28-.02,.73-.27,1.35-.78l.73,.74c-.81,.71-1.41,1.25-1.79,1.6-.39,.35-.69,.64-.91,.85-.26,.26-.59,.6-1,1.03-.41,.43-.97,1.04-1.68,1.82l-.73-.74c.71-.84,1.08-1.4,1.11-1.69,.03-.29-.27-.76-.9-1.4l-4.59-4.67c-.91-.92-1.7-1.43-2.37-1.54-.67-.11-1.34,.17-2,.82-.73,.71-1.08,1.71-1.06,3s.37,2.28,1.05,2.97l4.12,4.19c.64,.65,1.1,.97,1.38,.96s.74-.27,1.38-.79l.73,.74c-.79,.69-1.38,1.22-1.78,1.59-.4,.37-.71,.66-.94,.88-.27,.26-.6,.61-1.01,1.03-.41,.43-.98,1.04-1.72,1.86l-.73-.74c.75-.87,1.13-1.46,1.16-1.75,.03-.3-.27-.76-.89-1.39l-5.95-6.05Z"/><path class="f" d="M862.69,681.03c-.06-.84-.03-1.48,.11-1.94,.14-.45,.42-.89,.84-1.3,.36-.35,.66-.55,.9-.59,.25-.04,.5,.07,.75,.33,.23,.24,.35,.48,.35,.72,0,.24-.12,.48-.35,.71-.2,.2-.48,.37-.82,.5-.34,.13-.55,.23-.61,.29-.13,.12-.21,.3-.27,.53-.05,.23-.05,.47,.01,.73,.55,.05,1.06,.2,1.52,.43,.46,.23,.9,.56,1.32,.98,1.12,1.14,1.63,2.37,1.52,3.7-.11,1.32-.82,2.64-2.15,3.94-.06,.05-.2,.19-.44,.41-.24,.22-.44,.42-.61,.58-.42,.41-.66,.79-.74,1.13-.08,.34,.02,.65,.29,.93,.68,.69,2.16,0,4.43-2.08,.28-.25,.49-.44,.63-.56,1.56-1.42,2.88-2.25,3.94-2.49,1.07-.23,2.03,.09,2.89,.96,1.06,1.08,1.39,2.49,1.01,4.25-.39,1.76-1.44,3.48-3.15,5.16-1.36,1.34-2.69,2.18-3.98,2.53-1.3,.35-2.32,.14-3.07-.62-.51-.51-.79-1.12-.84-1.83-.05-.71,.13-1.47,.54-2.29-.6,.25-1.16,.32-1.68,.22-.52-.1-.99-.37-1.41-.8-.48-.49-.74-1.07-.79-1.75-.05-.68,.13-1.41,.54-2.18-.9,.49-1.81,.66-2.71,.52s-1.73-.58-2.46-1.33c-1.08-1.1-1.57-2.37-1.48-3.82,.09-1.45,.76-2.78,2-4,.63-.62,1.29-1.1,1.96-1.44,.67-.34,1.34-.52,2-.55Zm-3.23,2.69c-.67,.66-.94,1.38-.81,2.16,.13,.78,.65,1.64,1.57,2.58,.95,.96,1.81,1.52,2.59,1.67,.78,.15,1.51-.11,2.18-.78,.67-.66,.95-1.39,.82-2.19-.13-.8-.65-1.67-1.58-2.61-.92-.94-1.78-1.47-2.57-1.61-.79-.14-1.53,.12-2.2,.79Zm8.22,12.29c-.24,.53-.33,1.04-.26,1.53s.28,.91,.63,1.27c.63,.64,1.42,.85,2.36,.62,.94-.23,1.95-.86,3.01-1.92,1.15-1.13,1.88-2.24,2.2-3.34,.32-1.1,.18-1.96-.42-2.57-.74-.75-2.21-.16-4.41,1.79-1.25,1.1-2.28,1.97-3.11,2.62Z"/><path class="f" d="M881.74,678.12c.09,1.15-.02,2.13-.31,2.95-.3,.82-.85,1.62-1.66,2.42-.82,.81-1.69,1.23-2.6,1.27-.91,.04-1.74-.32-2.48-1.07-.82-.84-1.17-1.77-1.04-2.79,.13-1.03,.97-2.7,2.52-5.04,.15-.23,.34-.51,.57-.83,.5-.72,.63-1.2,.39-1.44l-1.14-1.16c-.95-.97-1.75-1.49-2.39-1.57-.64-.08-1.31,.23-2.02,.93-.33,.33-.59,.68-.79,1.08-.2,.39-.32,.81-.38,1.26,.26,.2,.48,.37,.66,.52,.17,.15,.33,.29,.47,.43,.39,.4,.61,.84,.65,1.33,.04,.49-.1,.89-.43,1.22-.31,.3-.65,.45-1.02,.44-.37-.01-.72-.18-1.03-.5-.71-.72-.92-1.78-.61-3.16,.3-1.38,1.05-2.65,2.24-3.82,1.31-1.29,2.55-1.95,3.72-1.99,1.17-.04,2.36,.55,3.56,1.77l.06,.06,3.75,3.85,.47,.47c.66,.67,1.14,1.03,1.44,1.09,.3,.06,.61-.06,.93-.37,.19-.19,.32-.4,.38-.65,.06-.25,.06-.54,0-.86l.75-.14c.22,.81,.25,1.57,.08,2.28-.17,.72-.53,1.34-1.06,1.87-.61,.6-1.21,.92-1.78,.94-.58,.03-1.2-.23-1.87-.78Zm-3.58-3.49c-1.29,1.87-2.02,3.23-2.2,4.08-.17,.85,.06,1.61,.71,2.26,.51,.52,1.06,.8,1.65,.85,.59,.04,1.11-.16,1.56-.6,.42-.41,.7-.96,.85-1.64,.15-.69,.15-1.45,0-2.3l-2.56-2.65Z"/></g><g><path class="f" d="M332.58,782.73c.74-.65,1.38-1.21,1.89-1.67,.52-.47,.92-.84,1.21-1.13,.36-.35,1.05-1.09,2.08-2.21,.38-.42,.68-.73,.89-.96l.84,.86c-.58,.62-.91,1.08-.99,1.37s0,.56,.25,.81c.12,.13,.29,.25,.48,.38,.2,.12,.45,.26,.75,.41l12.93,6.3-6.27-12.81c-.14-.32-.25-.56-.35-.71-.1-.15-.21-.3-.34-.43-.29-.29-.62-.39-1-.28-.38,.11-.85,.44-1.41,.99l-.84-.86c.57-.49,1.03-.89,1.38-1.2,.35-.31,.65-.58,.89-.82,.18-.18,.42-.43,.7-.74,.29-.31,.69-.76,1.2-1.34l.84,.86c-.47,.55-.73,.99-.8,1.31-.07,.32,0,.69,.22,1.12l6.38,13.49c.37,.8,.75,1.64,1.15,2.53,.39,.89,.8,1.81,1.21,2.76l-1.2,.93-18.13-8.4-.1-.04c-1.18-.57-2.18-.45-3,.35l-.84-.86Z"/><path class="f" d="M354.72,764.69l-1.41,5.04-.91,.89-.19-6.02c-.02-.48,.02-.89,.11-1.22,.09-.33,.23-.6,.42-.79,.25-.25,.56-.37,.92-.35s.67,.15,.92,.41c.21,.21,.32,.47,.34,.76,.02,.3-.05,.72-.2,1.28Zm2.47,3.51l8.25,8.39c.67,.68,1.17,1,1.48,.95,.32-.05,.86-.42,1.63-1.12l.73,.74c-.92,.82-1.6,1.44-2.04,1.84-.44,.41-.78,.73-1.03,.97-.29,.28-.65,.65-1.09,1.11-.44,.46-1.1,1.16-1.99,2.12l-.73-.74c.93-1.01,1.42-1.68,1.48-2.02s-.23-.83-.87-1.47l-5.95-6.05c-.54-.55-.97-.8-1.29-.76-.32,.04-.99,.55-2.02,1.52l-.73-.74c.75-.81,1.48-1.61,2.17-2.4,.69-.79,1.35-1.57,1.98-2.34Z"/><path class="f" d="M376.2,767.29c.09,1.14-.02,2.13-.31,2.94-.3,.82-.85,1.62-1.66,2.42-.82,.81-1.69,1.23-2.6,1.27-.91,.04-1.74-.32-2.48-1.07-.82-.84-1.17-1.77-1.04-2.79,.13-1.03,.97-2.7,2.52-5.04,.15-.23,.34-.51,.57-.83,.5-.71,.63-1.2,.39-1.44l-1.14-1.16c-.95-.97-1.75-1.49-2.39-1.57-.64-.07-1.31,.23-2.02,.93-.33,.33-.59,.68-.79,1.08-.2,.39-.32,.81-.38,1.26,.26,.2,.48,.37,.66,.52,.17,.15,.33,.29,.47,.43,.39,.4,.61,.84,.65,1.33,.04,.48-.1,.89-.43,1.21-.31,.3-.65,.45-1.02,.44-.37-.01-.71-.18-1.03-.5-.71-.72-.92-1.78-.61-3.16,.3-1.38,1.05-2.65,2.24-3.82,1.31-1.29,2.55-1.95,3.72-1.99,1.17-.04,2.36,.55,3.55,1.77l.06,.06,3.75,3.85,.47,.47c.66,.67,1.14,1.03,1.44,1.09,.3,.06,.61-.06,.93-.37,.19-.19,.32-.4,.38-.65s.06-.54,0-.86l.75-.14c.22,.8,.25,1.57,.08,2.28-.17,.72-.53,1.34-1.06,1.87-.61,.6-1.21,.92-1.78,.94-.58,.03-1.2-.23-1.87-.77Zm-3.58-3.49c-1.29,1.87-2.02,3.23-2.2,4.08-.17,.85,.07,1.61,.71,2.26,.51,.52,1.06,.8,1.65,.85s1.11-.16,1.56-.6c.42-.41,.7-.96,.85-1.64s.15-1.45,0-2.3l-2.56-2.65Z"/><path class="f" d="M335.05,823.07c.47-.42,.93-.85,1.39-1.27,.45-.43,.9-.85,1.33-1.28,.84-.82,1.69-1.68,2.55-2.57,.86-.89,1.32-1.36,1.37-1.41,1.83-1.8,3.49-2.82,4.97-3.05,1.48-.24,2.87,.3,4.15,1.6,1.09,1.11,1.62,2.33,1.57,3.64-.05,1.32-.67,2.65-1.87,4.01l.06,.06c1.6-1.4,3.12-2.15,4.57-2.25,1.44-.1,2.75,.44,3.93,1.64,1.35,1.37,1.86,2.85,1.52,4.43-.34,1.58-1.56,3.4-3.67,5.48-.53,.52-1.21,1.17-2.06,1.97-.85,.79-1.42,1.33-1.71,1.62-.43,.42-.88,.88-1.36,1.37-.47,.49-.96,1-1.45,1.52l-.84-.83c.78-.77,1.17-1.36,1.18-1.77,0-.41-.39-1.01-1.17-1.81l-10.23-10.4c-.71-.72-1.26-1.06-1.64-1.01-.38,.05-.96,.44-1.74,1.17l-.84-.86Zm5.39-3.56l6.16,6.26,1.6-1.58c1.13-1.11,1.71-2.16,1.72-3.13,.01-.97-.53-2.02-1.62-3.13-1.13-1.15-2.17-1.73-3.11-1.72s-2.07,.66-3.38,1.96l-1.36,1.34Zm7.01,7.12l6.51,6.62,1.44-1.41c1.4-1.38,2.14-2.59,2.22-3.63,.08-1.04-.46-2.15-1.62-3.33-1.19-1.21-2.34-1.79-3.43-1.74-1.1,.05-2.34,.76-3.72,2.13l-1.38,1.36Z"/><path class="f" d="M360.73,807.49c1.58-1.56,3.3-2.3,5.16-2.22,1.86,.08,3.61,.95,5.25,2.61,1.54,1.56,2.32,3.33,2.35,5.29,.03,1.97-.69,3.67-2.15,5.11-1.56,1.54-3.27,2.28-5.12,2.23-1.85-.05-3.57-.88-5.16-2.49-1.6-1.62-2.42-3.42-2.47-5.4-.05-1.97,.67-3.68,2.14-5.14Zm.77,.74c-.81,.8-1.04,1.81-.68,3.05,.35,1.24,1.26,2.6,2.72,4.08,1.47,1.5,2.82,2.44,4.03,2.82,1.21,.38,2.22,.18,3.02-.6,.82-.8,1.05-1.82,.69-3.05-.35-1.23-1.27-2.6-2.74-4.1-1.47-1.49-2.81-2.43-4.02-2.81-1.21-.38-2.22-.18-3.01,.6Z"/><path class="f" d="M376.71,793.74c-.06-.84-.03-1.48,.11-1.94,.14-.45,.42-.89,.84-1.3,.36-.35,.66-.55,.91-.59,.25-.04,.5,.07,.75,.33,.24,.24,.35,.48,.35,.73,0,.24-.12,.48-.35,.71-.2,.2-.48,.37-.82,.5-.34,.13-.55,.23-.61,.29-.13,.12-.21,.3-.27,.53-.05,.23-.05,.47,.01,.73,.55,.05,1.06,.2,1.52,.43,.46,.23,.9,.56,1.32,.98,1.12,1.14,1.63,2.37,1.52,3.7s-.82,2.64-2.15,3.94c-.06,.06-.2,.19-.44,.42s-.44,.42-.61,.58c-.42,.41-.66,.78-.74,1.13-.08,.34,.02,.65,.29,.93,.68,.69,2.16,0,4.44-2.08,.28-.25,.49-.44,.63-.56,1.56-1.42,2.87-2.25,3.94-2.48s2.03,.09,2.89,.96c1.06,1.08,1.39,2.49,1.01,4.25-.39,1.76-1.44,3.48-3.15,5.16-1.36,1.34-2.69,2.18-3.98,2.53-1.3,.35-2.32,.14-3.07-.62-.51-.51-.79-1.12-.84-1.83-.05-.71,.13-1.47,.54-2.29-.6,.25-1.16,.32-1.68,.22-.52-.1-.98-.37-1.41-.8-.48-.49-.74-1.07-.79-1.75-.05-.68,.13-1.41,.54-2.18-.9,.49-1.81,.66-2.71,.52-.91-.14-1.73-.58-2.46-1.33-1.08-1.1-1.57-2.37-1.48-3.82s.76-2.78,2-4c.63-.62,1.29-1.1,1.96-1.44,.67-.34,1.34-.52,2-.55Zm-3.22,2.7c-.67,.66-.94,1.38-.81,2.16s.65,1.64,1.57,2.58c.95,.96,1.81,1.52,2.59,1.66,.78,.15,1.51-.11,2.18-.78,.67-.67,.95-1.4,.82-2.19-.13-.8-.65-1.67-1.58-2.61-.92-.94-1.78-1.47-2.57-1.61-.79-.14-1.53,.12-2.2,.79Zm8.22,12.28c-.24,.53-.33,1.04-.26,1.53,.07,.49,.27,.91,.63,1.27,.63,.64,1.42,.85,2.35,.62,.94-.23,1.95-.87,3.02-1.92,1.15-1.13,1.88-2.24,2.2-3.34,.32-1.1,.18-1.96-.42-2.57-.74-.75-2.21-.16-4.41,1.78-1.24,1.1-2.28,1.97-3.11,2.62Z"/><path class="f" d="M385.72,782.91c1.58-1.56,3.3-2.3,5.16-2.22,1.86,.08,3.61,.95,5.25,2.61,1.54,1.56,2.32,3.33,2.35,5.29s-.69,3.67-2.15,5.11c-1.56,1.54-3.27,2.28-5.12,2.23-1.85-.05-3.57-.87-5.16-2.49-1.6-1.62-2.42-3.42-2.47-5.4-.05-1.97,.67-3.69,2.14-5.14Zm.77,.74c-.81,.8-1.04,1.81-.68,3.05,.35,1.24,1.26,2.6,2.72,4.08,1.47,1.5,2.82,2.44,4.03,2.82s2.22,.18,3.01-.6c.82-.8,1.05-1.82,.7-3.05-.35-1.23-1.27-2.6-2.74-4.09-1.47-1.49-2.81-2.43-4.02-2.81-1.21-.38-2.22-.18-3.01,.6Z"/><path class="f" d="M393.7,769.8l.78-.77,3.12,3.34,2.64-2.59,.74,.75-2.66,2.62,5.66,6.07,.35,.36c.71,.72,1.31,1.13,1.78,1.22,.47,.09,.94-.09,1.4-.54,.34-.33,.54-.7,.59-1.1,.06-.4-.01-.89-.22-1.45l.83-.3c.44,.84,.58,1.71,.42,2.6-.16,.89-.6,1.7-1.33,2.41-.99,.98-1.94,1.44-2.83,1.38-.89-.06-1.9-.65-3.02-1.79l-.31-.32-5.75-6.14-1.14,1.12-.59-.6c.5-1.12,.72-2.19,.64-3.21-.08-1.02-.44-2.03-1.11-3.04Z"/><path class="f" d="M406.35,756.67l-1.41,5.04-.91,.89-.19-6.02c-.02-.48,.02-.89,.1-1.22,.09-.33,.23-.6,.43-.79,.25-.25,.56-.37,.92-.35,.36,.01,.67,.15,.92,.41,.21,.21,.32,.46,.35,.76,.02,.3-.05,.72-.2,1.28Zm11.31,12.61c.09,1.15-.02,2.13-.31,2.94-.3,.82-.85,1.62-1.66,2.42-.82,.81-1.69,1.23-2.6,1.27s-1.74-.32-2.48-1.07c-.82-.84-1.17-1.77-1.04-2.79,.13-1.02,.97-2.7,2.52-5.04,.15-.23,.34-.51,.57-.83,.5-.71,.63-1.2,.39-1.44l-1.14-1.16c-.96-.97-1.75-1.49-2.39-1.57-.64-.07-1.31,.23-2.02,.93-.33,.33-.59,.68-.79,1.08-.2,.39-.32,.81-.38,1.26,.26,.2,.48,.37,.66,.52,.17,.15,.33,.29,.47,.43,.39,.4,.61,.84,.65,1.33s-.1,.89-.43,1.21c-.31,.3-.65,.45-1.02,.44-.37-.01-.71-.18-1.03-.5-.71-.72-.92-1.78-.61-3.16s1.05-2.65,2.24-3.82c1.31-1.29,2.55-1.95,3.72-1.99,1.17-.04,2.36,.55,3.55,1.77l.06,.06,3.75,3.85,.47,.47c.66,.67,1.14,1.03,1.44,1.1,.3,.06,.61-.06,.93-.37,.19-.19,.31-.4,.38-.65,.06-.25,.06-.53,0-.86l.75-.14c.22,.8,.25,1.57,.08,2.28-.17,.72-.53,1.34-1.06,1.87-.61,.6-1.21,.92-1.78,.94-.58,.03-1.2-.23-1.87-.77Zm-3.58-3.5c-1.29,1.87-2.02,3.23-2.2,4.08-.17,.85,.07,1.61,.71,2.26,.51,.52,1.06,.8,1.65,.85,.59,.04,1.11-.16,1.56-.6,.41-.41,.7-.96,.84-1.64,.15-.69,.15-1.45,0-2.3l-2.56-2.65Z"/></g><g><path class="f" d="M292.73,.22c.99,.06,1.83,.1,2.52,.13,.7,.03,1.25,.04,1.65,.04,.5,0,1.51-.04,3.04-.12,.56-.03,1-.05,1.3-.06V1.42c-.85,.04-1.4,.13-1.67,.28-.26,.15-.39,.4-.39,.75,0,.18,.03,.38,.08,.61,.05,.23,.14,.5,.24,.81l4.8,13.56,4.52-13.53c.13-.33,.21-.58,.25-.75,.04-.18,.06-.36,.06-.55,0-.41-.17-.72-.52-.9s-.91-.28-1.7-.28V.22c.75,.05,1.36,.09,1.83,.11s.87,.04,1.21,.04c.26,0,.6-.01,1.02-.04,.42-.02,1.02-.06,1.79-.11V1.42c-.72,.07-1.22,.19-1.49,.37s-.48,.49-.63,.95l-4.92,14.09c-.3,.83-.61,1.7-.96,2.61-.34,.91-.7,1.85-1.07,2.81l-1.51-.18-7.03-18.7-.04-.1c-.44-1.23-1.24-1.85-2.38-1.85V.22Z"/><path class="f" d="M320.46,7.12v11.77c0,.96,.13,1.53,.39,1.72,.26,.19,.91,.3,1.95,.34v1.04c-1.23-.06-2.15-.1-2.75-.12-.6-.02-1.07-.03-1.41-.03-.4,0-.92,.01-1.55,.03-.63,.02-1.6,.06-2.9,.12v-1.04c1.37-.07,2.2-.2,2.47-.4,.28-.2,.42-.75,.42-1.66V10.41c0-.77-.13-1.25-.39-1.44s-1.09-.3-2.5-.33v-1.04c1.11-.05,2.18-.11,3.23-.19s2.06-.17,3.05-.28Zm.7-4.23l-4.54,2.61h-1.27l4.09-4.43c.33-.35,.64-.62,.93-.8s.58-.27,.86-.27c.36,0,.66,.13,.9,.39s.37,.58,.37,.94c0,.3-.1,.56-.29,.79-.19,.23-.54,.48-1.04,.77Z"/><path class="f" d="M334.65,19.81c-.74,.88-1.5,1.5-2.29,1.88-.79,.38-1.75,.56-2.88,.56s-2.07-.31-2.75-.92-1.01-1.45-1.01-2.5c0-1.17,.4-2.08,1.21-2.72,.81-.64,2.59-1.25,5.33-1.82,.27-.06,.6-.12,.99-.19,.86-.16,1.29-.41,1.29-.75v-1.63c0-1.36-.2-2.29-.61-2.8-.4-.5-1.1-.75-2.09-.75-.46,0-.9,.07-1.32,.21-.42,.14-.8,.35-1.16,.63,.05,.33,.08,.6,.1,.83,.02,.23,.03,.44,.03,.64,0,.56-.16,1.03-.47,1.41s-.7,.56-1.16,.56c-.43,0-.78-.13-1.04-.4s-.38-.63-.38-1.08c0-1.02,.59-1.91,1.78-2.68s2.61-1.15,4.28-1.15c1.84,0,3.19,.4,4.05,1.19,.86,.79,1.3,2.05,1.3,3.75v.09l-.03,5.37v.67c0,.94,.09,1.54,.26,1.79,.17,.26,.48,.39,.92,.39,.27,0,.51-.07,.73-.2s.42-.34,.61-.61l.64,.43c-.4,.73-.92,1.29-1.55,1.68s-1.32,.58-2.06,.58c-.86,0-1.5-.19-1.93-.58-.43-.39-.69-1.01-.79-1.87Zm-.1-5c-2.23,.42-3.71,.88-4.43,1.37s-1.08,1.19-1.08,2.11c0,.73,.19,1.32,.58,1.76s.9,.67,1.53,.67c.58,0,1.17-.19,1.75-.58,.59-.38,1.12-.93,1.61-1.64l.03-3.69Z"/><path class="f" d="M235.7,30.71c.99,.06,1.83,.1,2.52,.13,.7,.03,1.25,.04,1.65,.04,.5,0,1.51-.04,3.03-.12,.56-.03,1-.05,1.3-.06v1.2c-.85,.04-1.4,.13-1.67,.28-.26,.15-.39,.4-.39,.75,0,.18,.03,.38,.08,.61,.05,.23,.13,.5,.24,.81l4.8,13.56,4.52-13.53c.13-.33,.21-.58,.25-.75,.04-.18,.06-.36,.06-.55,0-.41-.17-.72-.52-.9s-.91-.28-1.7-.28v-1.2c.75,.05,1.36,.09,1.83,.11s.87,.04,1.21,.04c.26,0,.6-.01,1.02-.04,.42-.02,1.02-.06,1.79-.11v1.2c-.72,.07-1.22,.19-1.49,.37s-.48,.49-.63,.95l-4.92,14.09c-.3,.83-.61,1.7-.96,2.61-.34,.91-.7,1.85-1.07,2.81l-1.51-.18-7.03-18.7-.04-.1c-.44-1.23-1.24-1.85-2.38-1.85v-1.2Z"/><path class="f" d="M262.62,37.61v11.77c0,.96,.13,1.53,.4,1.72s.91,.3,1.94,.34v1.04c-1.21-.06-2.13-.1-2.75-.12-.62-.02-1.12-.03-1.5-.03-.4,0-.93,.01-1.57,.03s-1.57,.06-2.8,.12v-1.04c1.37-.07,2.2-.2,2.47-.39s.41-.75,.41-1.67v-8.48c0-1.15-.96-1.74-2.86-1.76h-.03v-1.05c1.02-.04,2.05-.1,3.09-.17,1.05-.07,2.11-.17,3.18-.3Zm-1.88-6.4c.53,0,.97,.16,1.31,.49,.34,.33,.51,.74,.51,1.24,0,.56-.2,1.05-.61,1.45s-.89,.61-1.45,.61c-.52,0-.95-.17-1.29-.5s-.5-.75-.5-1.24c0-.54,.21-1.02,.62-1.43,.42-.41,.88-.61,1.41-.61Z"/><path class="f" d="M269.74,32.98c0-.71-.12-1.17-.35-1.37-.23-.2-.96-.32-2.2-.36v-1.02c.81-.02,1.68-.05,2.61-.1,.93-.04,2.04-.12,3.35-.21v19.47c0,.95,.13,1.52,.39,1.71,.26,.19,.91,.31,1.93,.35v1.04c-1.18-.06-2.08-.1-2.69-.12-.61-.02-1.09-.03-1.46-.03-.29,0-.7,.01-1.23,.03-.53,.02-1.42,.06-2.65,.12v-1.02c1.07-.1,1.71-.24,1.95-.44,.23-.19,.35-.74,.35-1.64v-16.4Z"/><path class="f" d="M280.25,32.98c0-.71-.12-1.17-.35-1.37-.23-.2-.96-.32-2.2-.36l.02-1.02c.8-.02,1.66-.05,2.59-.1,.93-.04,2.04-.12,3.35-.21v19.47c0,.95,.13,1.52,.39,1.71,.26,.19,.91,.31,1.93,.35v1.04c-1.18-.06-2.08-.1-2.69-.12-.61-.02-1.09-.03-1.46-.03-.29,0-.7,.01-1.23,.03s-1.42,.06-2.65,.12v-1.02c1.07-.1,1.71-.24,1.95-.44,.23-.19,.35-.74,.35-1.64v-16.4Z"/><path class="f" d="M297.85,50.3c-.74,.88-1.5,1.5-2.29,1.88-.79,.38-1.75,.56-2.88,.56s-2.07-.31-2.75-.92c-.68-.61-1.01-1.45-1.01-2.5,0-1.17,.41-2.08,1.21-2.72,.81-.64,2.58-1.25,5.33-1.82,.27-.06,.6-.12,.99-.19,.86-.16,1.29-.41,1.29-.75v-1.63c0-1.36-.2-2.29-.61-2.8s-1.1-.75-2.09-.75c-.46,0-.9,.07-1.32,.21-.41,.14-.8,.35-1.15,.63,.05,.33,.08,.6,.1,.83,.02,.23,.03,.44,.03,.64,0,.56-.16,1.03-.47,1.41-.31,.38-.7,.56-1.16,.56-.43,0-.78-.13-1.04-.4-.26-.27-.39-.63-.39-1.08,0-1.02,.59-1.91,1.78-2.68,1.18-.77,2.61-1.15,4.28-1.15,1.83,0,3.18,.4,4.05,1.19,.86,.79,1.29,2.05,1.29,3.75v.09l-.03,5.37v.67c0,.94,.09,1.54,.26,1.79,.17,.26,.48,.39,.93,.39,.27,0,.51-.07,.73-.2,.22-.13,.42-.34,.61-.61l.64,.43c-.4,.73-.92,1.29-1.55,1.68s-1.32,.58-2.07,.58c-.86,0-1.5-.19-1.93-.58-.43-.39-.69-1.01-.79-1.87Zm-.1-5c-2.23,.42-3.71,.88-4.43,1.37-.72,.49-1.08,1.19-1.08,2.11,0,.73,.2,1.32,.58,1.76s.9,.67,1.53,.67c.58,0,1.17-.19,1.75-.58,.59-.38,1.12-.93,1.61-1.64l.03-3.69Z"/><path class="f" d="M308.7,40.9c0-.77-.13-1.25-.38-1.45-.26-.2-.95-.3-2.07-.31v-1.07c.97-.03,1.93-.08,2.89-.16,.96-.07,1.91-.17,2.84-.3v3.49c.65-1.15,1.45-2.03,2.41-2.61,.95-.59,2.04-.88,3.26-.88,1.61,0,2.79,.43,3.54,1.3s1.13,2.25,1.13,4.13v6.34c0,.93,.1,1.48,.31,1.67s.71,.31,1.51,.39v1.04c-1.08-.06-1.88-.1-2.4-.12s-.94-.03-1.24-.03c-.37,0-.84,.01-1.44,.03-.59,.02-1.42,.06-2.47,.12v-1.04c1.09-.1,1.75-.24,1.98-.43,.22-.19,.33-.73,.33-1.63v-6.54c0-1.29-.2-2.21-.61-2.76s-1.07-.82-2-.82c-1.02,0-1.97,.46-2.86,1.39-.89,.93-1.33,1.88-1.33,2.86v5.88c0,.91,.1,1.46,.31,1.65,.21,.19,.72,.33,1.54,.41v1.04c-1.05-.06-1.84-.1-2.38-.12-.54-.02-.97-.03-1.29-.03-.38,0-.86,.01-1.44,.03-.59,.02-1.43,.06-2.52,.12v-1.04c1.14-.1,1.83-.24,2.06-.44s.34-.73,.34-1.62v-8.48Z"/><path class="f" d="M329.38,40.9c0-.76-.12-1.24-.36-1.44-.24-.2-.87-.31-1.87-.33v-1.05c.97-.05,1.92-.11,2.86-.19s1.87-.17,2.78-.28v10.17c0,1.22,.21,2.09,.64,2.58,.43,.5,1.15,.75,2.17,.75,.92,0,1.72-.23,2.41-.69,.69-.46,1.2-1.1,1.52-1.92v-7.61c0-.76-.12-1.24-.36-1.44-.24-.2-.87-.31-1.87-.34v-1.05c1.21-.06,2.26-.12,3.15-.19,.89-.07,1.72-.16,2.49-.27v11.83c0,.87,.09,1.39,.28,1.57s.68,.3,1.47,.37v1.04c-.33,0-.66-.02-1.01-.02s-.81,0-1.37,0c-.21,0-.53,0-.97,.02s-.99,.04-1.67,.07l-.06-2.15c-.62,.83-1.36,1.44-2.22,1.83s-1.91,.58-3.15,.58c-1.69,0-2.92-.42-3.69-1.27-.78-.84-1.16-2.2-1.16-4.06v-6.51Z"/><path class="f" d="M352.17,44.72c0,2.09,.42,3.68,1.21,4.77,.8,1.09,1.96,1.63,3.48,1.63,1.08,0,2.01-.27,2.79-.8,.79-.53,1.38-1.31,1.78-2.32l.86,.27c-.44,1.48-1.22,2.6-2.32,3.35s-2.53,1.13-4.26,1.13c-2.24,0-4-.66-5.27-1.99-1.27-1.33-1.91-3.17-1.91-5.51s.66-4.13,1.99-5.53,3.08-2.09,5.25-2.09c2.02,0,3.62,.6,4.78,1.81,1.16,1.2,1.75,2.86,1.75,4.96v.22l-10.13,.12Zm-.01-1.04l7.05-.18c0-1.57-.29-2.77-.87-3.59s-1.41-1.24-2.51-1.24-1.94,.44-2.6,1.33c-.66,.89-1.01,2.11-1.07,3.67Z"/><path class="f" d="M364.96,37.92c.68,.04,1.31,.07,1.89,.09s1.06,.03,1.44,.03c.66,0,1.32,0,1.97-.03,.65-.02,1.3-.05,1.94-.09v1.02c-.79,.04-1.3,.11-1.53,.21-.23,.1-.35,.29-.35,.55,0,.1,.01,.21,.04,.35,.03,.13,.09,.32,.18,.55l3.18,8.65,3.3-8.67c.05-.14,.09-.28,.11-.43,.02-.15,.04-.3,.04-.44,0-.27-.11-.45-.32-.55s-.69-.17-1.44-.21v-1.02c.44,.04,.87,.07,1.29,.09,.41,.02,.8,.03,1.17,.03s.75,0,1.15-.03c.4-.02,.82-.05,1.25-.09v1.04c-.54,0-.95,.09-1.22,.27s-.53,.59-.78,1.24l-3.18,8.04c-.05,.12-.13,.32-.24,.61-.55,1.44-1.06,2.65-1.53,3.63l-1.67-.18-4.9-12.3-.03-.06c-.33-.83-.87-1.24-1.64-1.24h-.12v-1.04Z"/><path class="f" d="M391.68,50.3c-.74,.88-1.5,1.5-2.29,1.88-.78,.38-1.74,.56-2.88,.56s-2.07-.31-2.75-.92c-.68-.61-1.01-1.45-1.01-2.5,0-1.17,.4-2.08,1.21-2.72s2.59-1.25,5.33-1.82c.27-.06,.6-.12,.99-.19,.86-.16,1.29-.41,1.29-.75v-1.63c0-1.36-.2-2.29-.61-2.8-.41-.5-1.1-.75-2.09-.75-.46,0-.9,.07-1.32,.21-.41,.14-.8,.35-1.15,.63,.05,.33,.08,.6,.1,.83,.02,.23,.03,.44,.03,.64,0,.56-.16,1.03-.47,1.41-.31,.38-.7,.56-1.16,.56-.43,0-.78-.13-1.04-.4s-.38-.63-.38-1.08c0-1.02,.59-1.91,1.78-2.68s2.61-1.15,4.28-1.15c1.84,0,3.19,.4,4.05,1.19,.86,.79,1.29,2.05,1.29,3.75v.09l-.03,5.37v.67c0,.94,.09,1.54,.26,1.79,.17,.26,.48,.39,.93,.39,.27,0,.51-.07,.72-.2s.42-.34,.61-.61l.64,.43c-.41,.73-.92,1.29-1.55,1.68-.63,.39-1.32,.58-2.07,.58-.86,0-1.5-.19-1.93-.58-.43-.39-.69-1.01-.79-1.87Zm-.1-5c-2.23,.42-3.71,.88-4.43,1.37-.72,.49-1.08,1.19-1.08,2.11,0,.73,.19,1.32,.58,1.76,.39,.44,.9,.67,1.53,.67,.58,0,1.17-.19,1.75-.58s1.12-.93,1.61-1.64l.03-3.69Z"/></g><g><path class="h" d="M491.11,212.28c.37-.11,.75-.19,1.16-.24,.41-.05,.89-.08,1.45-.08,.42,0,.96,.02,1.63,.05,.67,.03,1.13,.05,1.37,.05,.64,0,1.06-.69,1.26-2.07l.02-.09h.62l-.51,3.92c-.38,.02-.67,.03-.86,.03-.19,0-.37,0-.54,0-.53,0-1.38-.02-2.52-.07-1.15-.05-2.03-.07-2.64-.07-.29,0-.62,0-1.01,.03s-.81,.05-1.28,.09l-.11-.13c.22-.5,.53-.99,.93-1.49,.4-.49,.87-.97,1.43-1.43,.11-.1,.29-.24,.51-.42,2.41-1.99,3.61-3.82,3.61-5.47,0-1.05-.25-1.86-.73-2.44-.49-.58-1.18-.86-2.08-.86-.8,0-1.47,.24-1.99,.73-.52,.48-.79,1.1-.81,1.86,.46,.09,.83,.26,1.11,.52,.28,.26,.42,.54,.42,.87,0,.26-.08,.47-.23,.63s-.37,.23-.63,.23c-.46,0-.83-.18-1.12-.55-.29-.37-.44-.84-.44-1.42,0-1.09,.4-1.99,1.19-2.69,.8-.7,1.83-1.05,3.09-1.05s2.39,.35,3.2,1.06,1.22,1.62,1.22,2.76c0,.97-.28,1.85-.83,2.65-.55,.8-1.55,1.71-2.99,2.71-.14,.1-.35,.25-.63,.44-1.19,.82-1.95,1.47-2.28,1.94Z"/><path class="h" d="M502.06,206.74c0-.47-.08-.76-.23-.88s-.58-.18-1.26-.19v-.65c.59-.02,1.18-.05,1.76-.09,.58-.04,1.15-.11,1.71-.18v2.07c.41-.68,.88-1.19,1.42-1.54,.54-.35,1.13-.53,1.77-.53,.75,0,1.35,.18,1.81,.54,.46,.36,.73,.87,.81,1.53,.4-.69,.87-1.21,1.4-1.55,.53-.35,1.13-.52,1.79-.52,.92,0,1.6,.26,2.04,.78,.43,.52,.65,1.34,.65,2.45v4.01c0,.52,.07,.83,.2,.94,.13,.11,.44,.19,.93,.23v.62c-.67-.04-1.16-.06-1.47-.07-.31-.01-.54-.02-.71-.02-.22,0-.5,0-.85,.02-.35,.01-.85,.04-1.51,.07v-.63c.65-.05,1.04-.13,1.19-.24,.14-.11,.22-.45,.22-1.01v-4.08c0-.71-.11-1.23-.34-1.56-.23-.33-.58-.5-1.07-.5-.56,0-1.06,.22-1.51,.66-.45,.44-.75,1.01-.9,1.72v3.85c0,.52,.07,.83,.2,.94,.14,.11,.44,.19,.92,.23v.62c-.63-.04-1.1-.06-1.42-.07-.32-.01-.57-.02-.76-.02-.22,0-.5,0-.85,.02-.35,.01-.85,.04-1.51,.07v-.63c.65-.05,1.04-.13,1.19-.24,.14-.11,.22-.45,.22-1.01v-4.08c0-.71-.11-1.23-.34-1.56-.22-.33-.58-.5-1.07-.5-.56,0-1.06,.22-1.51,.66-.45,.44-.74,1.01-.88,1.71v3.76c0,.56,.06,.9,.19,1.01,.13,.11,.43,.19,.92,.24v.63c-.74-.04-1.25-.06-1.55-.07-.29-.01-.52-.02-.68-.02-.2,0-.48,0-.83,.02-.35,.01-.86,.04-1.53,.07v-.63c.71-.06,1.13-.15,1.26-.27s.2-.45,.2-.99v-5.16Z"/><path class="h" d="M522.15,204.74v7.16c0,.58,.08,.93,.24,1.04,.16,.11,.55,.18,1.18,.21v.63c-.74-.04-1.29-.06-1.67-.07-.38-.01-.68-.02-.91-.02-.25,0-.56,0-.95,.02-.39,.01-.96,.04-1.7,.07v-.63c.83-.04,1.33-.12,1.5-.24,.17-.12,.25-.45,.25-1.01v-5.16c0-.7-.59-1.06-1.74-1.07h-.02v-.64c.62-.02,1.25-.06,1.88-.1,.64-.04,1.28-.11,1.94-.18Zm-1.14-3.89c.32,0,.59,.1,.8,.3s.31,.45,.31,.76c0,.34-.12,.64-.37,.88s-.54,.37-.88,.37c-.32,0-.58-.1-.78-.31s-.31-.46-.31-.76c0-.33,.13-.62,.38-.87s.54-.37,.86-.37Z"/><path class="h" d="M526.54,206.74c0-.47-.08-.76-.23-.88s-.58-.18-1.26-.19v-.65c.59-.02,1.17-.05,1.76-.09,.58-.04,1.16-.11,1.73-.18v2.12c.4-.7,.88-1.23,1.46-1.59s1.24-.54,1.99-.54c.98,0,1.7,.26,2.15,.79s.68,1.37,.68,2.51v3.85c0,.56,.06,.9,.19,1.01,.13,.11,.43,.19,.92,.24v.63c-.65-.04-1.14-.06-1.46-.07-.32-.01-.57-.02-.76-.02-.22,0-.51,0-.87,.02-.36,.01-.86,.04-1.5,.07v-.63c.67-.06,1.07-.15,1.2-.26,.13-.11,.2-.44,.2-.99v-3.98c0-.79-.12-1.35-.37-1.68-.25-.33-.65-.5-1.21-.5-.62,0-1.2,.28-1.74,.85-.54,.56-.81,1.14-.81,1.74v3.57c0,.55,.06,.89,.19,1s.44,.2,.94,.25v.63c-.64-.04-1.12-.06-1.45-.07-.33-.01-.59-.02-.78-.02-.23,0-.52,0-.88,.02-.36,.01-.87,.04-1.54,.07v-.63c.7-.06,1.11-.15,1.25-.27,.14-.12,.21-.45,.21-.99v-5.16Z"/><path class="h" d="M543.86,205.56l.14-.56h.56c0,.14-.02,.35-.04,.65s-.03,.51-.03,.65c0,.26,.01,.66,.04,1.22v.05h-.55c-.09-.69-.34-1.22-.74-1.59s-.94-.55-1.6-.55c-.52,0-.93,.13-1.25,.38-.31,.25-.47,.58-.47,.99,0,.63,.73,1.17,2.2,1.6,.13,.04,.23,.07,.29,.09,.99,.31,1.68,.66,2.08,1.05,.39,.4,.59,.92,.59,1.57,0,.87-.31,1.56-.94,2.07-.63,.51-1.48,.77-2.56,.77-.5,0-.96-.06-1.38-.19s-.82-.32-1.19-.58l-.14,.56h-.54c0-.06,0-.15,0-.27,.02-.74,.03-1.26,.03-1.58v-1.22h.58c.05,.87,.3,1.52,.72,1.96,.43,.44,1.05,.66,1.86,.66,.56,0,1.01-.13,1.33-.38,.32-.25,.49-.6,.49-1.04,0-.39-.13-.7-.38-.93-.25-.23-.77-.47-1.56-.71-1.36-.42-2.23-.82-2.61-1.2-.38-.38-.58-.89-.58-1.55,0-.82,.29-1.47,.87-1.97s1.35-.74,2.31-.74c.49,0,.94,.06,1.34,.19,.4,.13,.77,.33,1.12,.6Z"/><path class="h" d="M553.95,200.04l.28,.42c-1.44,1.03-2.51,2.2-3.2,3.52-.69,1.32-1.04,2.83-1.04,4.52s.34,3.31,1.01,4.75c.67,1.44,1.72,2.83,3.13,4.15l-.31,.43c-1.84-1.41-3.2-2.84-4.07-4.31-.87-1.47-1.31-3.05-1.31-4.74,0-1.86,.46-3.52,1.38-4.99,.92-1.46,2.3-2.72,4.13-3.75Z"/><path class="h" d="M561.91,200.72v10.99c0,.65,.09,1.04,.27,1.17,.18,.13,.6,.2,1.28,.2h.26v.68c-.85-.04-1.49-.06-1.92-.07-.43-.01-.77-.02-1.03-.02-.37,0-.8,0-1.31,.02-.51,.01-1.18,.04-2,.07v-.68h.46c.83,0,1.35-.08,1.56-.23,.21-.15,.32-.54,.32-1.17v-9.44c-.45,.07-.86,.15-1.24,.24-.38,.09-.73,.18-1.06,.29v-.77c.46-.13,1.21-.32,2.26-.57,1.05-.25,1.77-.49,2.17-.72Z"/><path class="h" d="M569.74,211.4c.34,0,.61,.11,.81,.34s.31,.52,.31,.9-.1,.67-.31,.91c-.21,.23-.48,.35-.81,.35s-.61-.12-.82-.35c-.21-.23-.32-.53-.32-.91s.11-.66,.32-.89c.22-.23,.49-.35,.82-.35Z"/><path class="h" d="M578.88,207.07v.07c1.46,.07,2.55,.36,3.27,.89s1.07,1.3,1.07,2.32c0,1.09-.44,1.96-1.31,2.61s-2.05,.98-3.52,.98c-1.23,0-2.26-.28-3.08-.84s-1.23-1.23-1.23-2.01c0-.34,.09-.62,.27-.84,.18-.22,.4-.32,.67-.32,.31,0,.55,.12,.75,.35,.19,.23,.29,.54,.29,.92,0,.2-.03,.4-.09,.61-.06,.21-.09,.33-.09,.35,0,.25,.23,.49,.69,.72,.46,.23,.99,.35,1.6,.35,.91,0,1.62-.26,2.12-.78,.5-.52,.76-1.25,.76-2.19s-.26-1.57-.79-1.99c-.53-.43-1.35-.64-2.46-.64-.14,0-.38,.01-.72,.04h-.05v-.81c1.16-.04,2.02-.3,2.59-.79,.57-.49,.86-1.22,.86-2.18,0-.74-.21-1.34-.62-1.78-.41-.44-.96-.67-1.64-.67-.41,0-.8,.07-1.15,.2-.35,.14-.65,.33-.89,.57,.06,.18,.1,.35,.13,.5,.03,.15,.04,.3,.04,.44,0,.39-.09,.7-.27,.92-.18,.22-.42,.34-.72,.34-.25,0-.44-.08-.59-.26-.15-.17-.22-.4-.22-.69,0-.71,.39-1.34,1.17-1.89,.78-.56,1.73-.83,2.84-.83,1.18,0,2.15,.3,2.89,.89,.74,.59,1.12,1.36,1.12,2.29,0,.86-.3,1.56-.91,2.08s-1.53,.88-2.76,1.08Z"/><path class="h" d="M586.85,201.92c0-.43-.07-.7-.22-.83-.14-.13-.53-.2-1.15-.22v-.62c.45-.01,.94-.03,1.47-.06,.53-.03,1.16-.07,1.91-.13v9.35l2.82-2.77c.16-.16,.29-.3,.38-.43,.09-.13,.13-.23,.13-.3,0-.11-.07-.2-.21-.26-.14-.06-.36-.09-.68-.1v-.62c.09,0,.22,.01,.38,.02,.65,.04,1.11,.05,1.36,.05,.27,0,.75-.02,1.43-.05,.12,0,.21-.01,.28-.02v.63h-.09c-.3,0-.56,.04-.79,.13-.23,.09-.44,.23-.65,.42l-2.48,2.39,3.26,3.67c.33,.37,.62,.63,.86,.77,.25,.14,.52,.21,.82,.21v.63c-.59-.04-1.04-.06-1.36-.07-.32-.01-.58-.02-.78-.02s-.47,0-.79,.02c-.32,.01-.79,.04-1.4,.07v-.62c.2-.01,.36-.05,.46-.1,.1-.06,.15-.14,.15-.26,0-.05-.01-.1-.04-.16-.03-.06-.08-.13-.14-.21l-2.34-2.75-.57,.52v1.69c0,.56,.06,.89,.18,1.01s.42,.2,.89,.24v.63c-.7-.04-1.19-.06-1.47-.07-.28-.01-.5-.02-.65-.02-.28,0-.6,0-.97,.02-.37,.01-.86,.04-1.46,.07v-.63c.71-.07,1.14-.16,1.27-.27,.13-.12,.2-.44,.2-.98v-9.97Z"/><path class="h" d="M598.05,206.74c0-.47-.08-.76-.23-.88s-.58-.18-1.26-.19v-.65c.59-.02,1.18-.05,1.76-.09,.58-.04,1.15-.11,1.71-.18v2.07c.41-.68,.88-1.19,1.42-1.54,.54-.35,1.13-.53,1.77-.53,.75,0,1.35,.18,1.81,.54,.46,.36,.73,.87,.81,1.53,.4-.69,.87-1.21,1.4-1.55,.53-.35,1.13-.52,1.79-.52,.92,0,1.6,.26,2.04,.78,.43,.52,.65,1.34,.65,2.45v4.01c0,.52,.07,.83,.2,.94,.13,.11,.44,.19,.93,.23v.62c-.67-.04-1.16-.06-1.47-.07-.31-.01-.54-.02-.71-.02-.22,0-.5,0-.85,.02-.35,.01-.85,.04-1.51,.07v-.63c.65-.05,1.04-.13,1.19-.24,.14-.11,.22-.45,.22-1.01v-4.08c0-.71-.11-1.23-.34-1.56-.23-.33-.58-.5-1.07-.5-.56,0-1.06,.22-1.51,.66-.45,.44-.75,1.01-.9,1.72v3.85c0,.52,.07,.83,.2,.94,.14,.11,.44,.19,.92,.23v.62c-.63-.04-1.1-.06-1.42-.07-.32-.01-.57-.02-.76-.02-.22,0-.5,0-.85,.02-.35,.01-.85,.04-1.51,.07v-.63c.65-.05,1.04-.13,1.19-.24,.14-.11,.22-.45,.22-1.01v-4.08c0-.71-.11-1.23-.34-1.56-.22-.33-.58-.5-1.07-.5-.56,0-1.06,.22-1.51,.66-.45,.44-.74,1.01-.88,1.71v3.76c0,.56,.06,.9,.19,1.01,.13,.11,.43,.19,.92,.24v.63c-.74-.04-1.25-.06-1.55-.07-.29-.01-.52-.02-.68-.02-.2,0-.48,0-.83,.02-.35,.01-.86,.04-1.53,.07v-.63c.71-.06,1.13-.15,1.26-.27s.2-.45,.2-.99v-5.16Z"/><path class="h" d="M614.88,200.04c1.85,1.42,3.21,2.87,4.08,4.33,.87,1.46,1.31,3.05,1.31,4.74,0,1.85-.46,3.51-1.38,4.97-.92,1.46-2.3,2.71-4.13,3.75l-.28-.43c1.44-1.02,2.51-2.19,3.2-3.51s1.04-2.84,1.04-4.55-.34-3.28-1.01-4.73-1.72-2.84-3.13-4.17l.31-.41Z"/></g><g><path class="g" d="M296.41,550.28c.37-.11,.75-.19,1.16-.24,.41-.05,.89-.08,1.45-.08,.42,0,.96,.02,1.63,.05,.67,.03,1.13,.05,1.37,.05,.64,0,1.06-.69,1.26-2.07l.02-.09h.62l-.51,3.92c-.38,.02-.67,.03-.86,.03-.19,0-.37,0-.54,0-.53,0-1.38-.02-2.52-.07-1.15-.05-2.03-.07-2.64-.07-.29,0-.62,0-1.01,.03s-.81,.05-1.28,.09l-.11-.13c.22-.5,.53-.99,.93-1.49,.4-.49,.87-.97,1.43-1.43,.11-.1,.29-.24,.51-.42,2.41-1.99,3.61-3.82,3.61-5.47,0-1.05-.25-1.86-.73-2.44-.49-.58-1.18-.86-2.08-.86-.8,0-1.47,.24-1.99,.73-.52,.48-.79,1.1-.81,1.86,.46,.09,.83,.26,1.11,.52,.28,.26,.42,.54,.42,.87,0,.26-.08,.47-.23,.63s-.37,.23-.63,.23c-.46,0-.83-.18-1.12-.55-.29-.37-.44-.84-.44-1.42,0-1.09,.4-1.99,1.19-2.69,.8-.7,1.83-1.05,3.09-1.05s2.39,.35,3.2,1.06,1.22,1.62,1.22,2.76c0,.97-.28,1.85-.83,2.65-.55,.8-1.55,1.71-2.99,2.71-.14,.1-.35,.25-.63,.44-1.19,.82-1.95,1.47-2.28,1.94Z"/><path class="g" d="M311.04,538.72c1.43,0,2.57,.59,3.41,1.77,.84,1.18,1.26,2.79,1.26,4.83s-.43,3.59-1.3,4.8c-.87,1.21-2.01,1.81-3.41,1.81s-2.54-.58-3.39-1.75c-.85-1.17-1.27-2.73-1.27-4.7,0-2.07,.43-3.72,1.29-4.94s2-1.83,3.43-1.83Zm.04,.7c-.79,0-1.41,.55-1.86,1.66s-.68,2.65-.68,4.62c0,1.78,.21,3.15,.62,4.1,.41,.96,1.01,1.43,1.79,1.43s1.42-.55,1.87-1.66,.68-2.64,.68-4.62c0-1.8-.21-3.17-.62-4.12s-1.01-1.42-1.8-1.42Z"/><path class="g" d="M319.1,544.74c0-.47-.08-.76-.23-.88s-.58-.18-1.26-.19v-.65c.59-.02,1.18-.05,1.76-.09,.58-.04,1.15-.11,1.71-.18v2.07c.41-.68,.88-1.19,1.42-1.54,.54-.35,1.13-.53,1.77-.53,.75,0,1.35,.18,1.81,.54,.46,.36,.73,.87,.81,1.53,.4-.69,.87-1.21,1.4-1.55,.53-.35,1.13-.52,1.79-.52,.92,0,1.6,.26,2.04,.78,.43,.52,.65,1.34,.65,2.45v4.01c0,.52,.07,.83,.2,.94,.13,.11,.44,.19,.93,.23v.62c-.67-.04-1.16-.06-1.47-.07-.31-.01-.54-.02-.71-.02-.22,0-.5,0-.85,.02-.35,.01-.85,.04-1.51,.07v-.63c.65-.05,1.04-.13,1.19-.24,.14-.11,.22-.45,.22-1.01v-4.08c0-.71-.11-1.23-.34-1.56-.23-.33-.58-.5-1.07-.5-.56,0-1.06,.22-1.51,.66-.45,.44-.75,1.01-.9,1.72v3.85c0,.52,.07,.83,.2,.94,.14,.11,.44,.19,.92,.23v.62c-.63-.04-1.1-.06-1.42-.07-.32-.01-.57-.02-.76-.02-.22,0-.5,0-.85,.02-.35,.01-.85,.04-1.51,.07v-.63c.65-.05,1.04-.13,1.19-.24,.14-.11,.22-.45,.22-1.01v-4.08c0-.71-.11-1.23-.34-1.56-.22-.33-.58-.5-1.07-.5-.56,0-1.06,.22-1.51,.66-.45,.44-.74,1.01-.88,1.71v3.76c0,.56,.06,.9,.19,1.01,.13,.11,.43,.19,.92,.24v.63c-.74-.04-1.25-.06-1.55-.07-.29-.01-.52-.02-.68-.02-.2,0-.48,0-.83,.02-.35,.01-.86,.04-1.53,.07v-.63c.71-.06,1.13-.15,1.26-.27s.2-.45,.2-.99v-5.16Z"/><path class="g" d="M339.2,542.74v7.16c0,.58,.08,.93,.24,1.04,.16,.11,.55,.18,1.18,.21v.63c-.74-.04-1.29-.06-1.67-.07-.38-.01-.68-.02-.91-.02-.25,0-.56,0-.95,.02-.39,.01-.96,.04-1.7,.07v-.63c.83-.04,1.33-.12,1.5-.24,.17-.12,.25-.45,.25-1.01v-5.16c0-.7-.59-1.06-1.74-1.07h-.02v-.64c.62-.02,1.25-.06,1.88-.1,.64-.04,1.28-.11,1.94-.18Zm-1.14-3.89c.32,0,.59,.1,.8,.3s.31,.45,.31,.76c0,.34-.12,.64-.37,.88s-.54,.37-.88,.37c-.32,0-.58-.1-.78-.31s-.31-.46-.31-.76c0-.33,.13-.62,.38-.87s.54-.37,.86-.37Z"/><path class="g" d="M343.58,544.74c0-.47-.08-.76-.23-.88s-.58-.18-1.26-.19v-.65c.59-.02,1.17-.05,1.76-.09,.58-.04,1.16-.11,1.73-.18v2.12c.4-.7,.88-1.23,1.46-1.59s1.24-.54,1.99-.54c.98,0,1.7,.26,2.15,.79s.68,1.37,.68,2.51v3.85c0,.56,.06,.9,.19,1.01,.13,.11,.43,.19,.92,.24v.63c-.65-.04-1.14-.06-1.46-.07-.32-.01-.57-.02-.76-.02-.22,0-.51,0-.87,.02-.36,.01-.86,.04-1.5,.07v-.63c.67-.06,1.07-.15,1.2-.26,.13-.11,.2-.44,.2-.99v-3.98c0-.79-.12-1.35-.37-1.68-.25-.33-.65-.5-1.21-.5-.62,0-1.2,.28-1.74,.85-.54,.56-.81,1.14-.81,1.74v3.57c0,.55,.06,.89,.19,1s.44,.2,.94,.25v.63c-.64-.04-1.12-.06-1.45-.07-.33-.01-.59-.02-.78-.02-.23,0-.52,0-.88,.02-.36,.01-.87,.04-1.54,.07v-.63c.7-.06,1.11-.15,1.25-.27,.14-.12,.21-.45,.21-.99v-5.16Z"/><path class="g" d="M360.9,543.56l.14-.56h.56c0,.14-.02,.35-.04,.65s-.03,.51-.03,.65c0,.26,.01,.66,.04,1.22v.05h-.55c-.09-.69-.34-1.22-.74-1.59s-.94-.55-1.6-.55c-.52,0-.93,.13-1.25,.38-.31,.25-.47,.58-.47,.99,0,.63,.73,1.17,2.2,1.6,.13,.04,.23,.07,.29,.09,.99,.31,1.68,.66,2.08,1.05,.39,.4,.59,.92,.59,1.57,0,.87-.31,1.56-.94,2.07-.63,.51-1.48,.77-2.56,.77-.5,0-.96-.06-1.38-.19s-.82-.32-1.19-.58l-.14,.56h-.54c0-.06,0-.15,0-.27,.02-.74,.03-1.26,.03-1.58v-1.22h.58c.05,.87,.3,1.52,.72,1.96,.43,.44,1.05,.66,1.86,.66,.56,0,1.01-.13,1.33-.38,.32-.25,.49-.6,.49-1.04,0-.39-.13-.7-.38-.93-.25-.23-.77-.47-1.56-.71-1.36-.42-2.23-.82-2.61-1.2-.38-.38-.58-.89-.58-1.55,0-.82,.29-1.47,.87-1.97s1.35-.74,2.31-.74c.49,0,.94,.06,1.34,.19,.4,.13,.77,.33,1.12,.6Z"/><path class="g" d="M370.99,538.04l.28,.42c-1.44,1.03-2.51,2.2-3.2,3.52-.69,1.32-1.04,2.83-1.04,4.52s.34,3.31,1.01,4.75c.67,1.44,1.72,2.83,3.13,4.15l-.31,.43c-1.84-1.41-3.2-2.84-4.07-4.31-.87-1.47-1.31-3.05-1.31-4.74,0-1.86,.46-3.52,1.38-4.99,.92-1.46,2.3-2.72,4.13-3.75Z"/><path class="g" d="M378.95,538.72v10.99c0,.65,.09,1.04,.27,1.17,.18,.13,.6,.2,1.28,.2h.26v.68c-.85-.04-1.49-.06-1.92-.07-.43-.01-.77-.02-1.03-.02-.37,0-.8,0-1.31,.02-.51,.01-1.18,.04-2,.07v-.68h.46c.83,0,1.35-.08,1.56-.23,.21-.15,.32-.54,.32-1.17v-9.44c-.45,.07-.86,.15-1.24,.24-.38,.09-.73,.18-1.06,.29v-.77c.46-.13,1.21-.32,2.26-.57,1.05-.25,1.77-.49,2.17-.72Z"/><path class="g" d="M392.26,538.76v8.15h1.65v1.11h-1.65v2.09c0,.49,.06,.78,.17,.88,.12,.1,.44,.15,.97,.15v.65c-.59-.02-1.07-.03-1.45-.04-.38,0-.66-.01-.84-.01-.36,0-.76,0-1.21,.01-.44,0-.92,.02-1.44,.04v-.65c.79,0,1.28-.06,1.44-.19s.25-.43,.25-.9v-2.03h-5.49l.13-1.22,5.42-7.63c.36-.03,.71-.08,1.05-.14,.34-.07,.67-.15,1-.26Zm-2.01,1.49l-4.68,6.65h4.66l.02-6.65Z"/><path class="g" d="M397.55,539.92c0-.43-.07-.7-.22-.83-.14-.13-.53-.2-1.15-.22v-.62c.45-.01,.94-.03,1.47-.06,.53-.03,1.16-.07,1.91-.13v9.35l2.82-2.77c.16-.16,.29-.3,.38-.43,.09-.13,.13-.23,.13-.3,0-.11-.07-.2-.21-.26-.14-.06-.36-.09-.68-.1v-.62c.09,0,.22,.01,.38,.02,.65,.04,1.11,.05,1.36,.05,.27,0,.75-.02,1.43-.05,.12,0,.21-.01,.28-.02v.63h-.09c-.3,0-.56,.04-.79,.13-.23,.09-.44,.23-.65,.42l-2.48,2.39,3.26,3.67c.33,.37,.62,.63,.86,.77,.25,.14,.52,.21,.82,.21v.63c-.59-.04-1.04-.06-1.36-.07-.32-.01-.58-.02-.78-.02s-.47,0-.79,.02c-.32,.01-.79,.04-1.4,.07v-.62c.2-.01,.36-.05,.46-.1,.1-.06,.15-.14,.15-.26,0-.05-.01-.1-.04-.16-.03-.06-.08-.13-.14-.21l-2.34-2.75-.57,.52v1.69c0,.56,.06,.89,.18,1.01s.42,.2,.89,.24v.63c-.7-.04-1.19-.06-1.47-.07-.28-.01-.5-.02-.65-.02-.28,0-.6,0-.97,.02-.37,.01-.86,.04-1.46,.07v-.63c.71-.07,1.14-.16,1.27-.27,.13-.12,.2-.44,.2-.98v-9.97Z"/><path class="g" d="M408.75,544.74c0-.47-.08-.76-.23-.88s-.58-.18-1.26-.19v-.65c.59-.02,1.18-.05,1.76-.09,.58-.04,1.15-.11,1.71-.18v2.07c.41-.68,.88-1.19,1.42-1.54,.54-.35,1.13-.53,1.77-.53,.75,0,1.35,.18,1.81,.54,.46,.36,.73,.87,.81,1.53,.4-.69,.87-1.21,1.4-1.55,.53-.35,1.13-.52,1.79-.52,.92,0,1.6,.26,2.04,.78,.43,.52,.65,1.34,.65,2.45v4.01c0,.52,.07,.83,.2,.94,.13,.11,.44,.19,.93,.23v.62c-.67-.04-1.16-.06-1.47-.07-.31-.01-.54-.02-.71-.02-.22,0-.5,0-.85,.02-.35,.01-.85,.04-1.51,.07v-.63c.65-.05,1.04-.13,1.19-.24,.14-.11,.22-.45,.22-1.01v-4.08c0-.71-.11-1.23-.34-1.56-.23-.33-.58-.5-1.07-.5-.56,0-1.06,.22-1.51,.66-.45,.44-.75,1.01-.9,1.72v3.85c0,.52,.07,.83,.2,.94,.14,.11,.44,.19,.92,.23v.62c-.63-.04-1.1-.06-1.42-.07-.32-.01-.57-.02-.76-.02-.22,0-.5,0-.85,.02-.35,.01-.85,.04-1.51,.07v-.63c.65-.05,1.04-.13,1.19-.24,.14-.11,.22-.45,.22-1.01v-4.08c0-.71-.11-1.23-.34-1.56-.22-.33-.58-.5-1.07-.5-.56,0-1.06,.22-1.51,.66-.45,.44-.74,1.01-.88,1.71v3.76c0,.56,.06,.9,.19,1.01,.13,.11,.43,.19,.92,.24v.63c-.74-.04-1.25-.06-1.55-.07-.29-.01-.52-.02-.68-.02-.2,0-.48,0-.83,.02-.35,.01-.86,.04-1.53,.07v-.63c.71-.06,1.13-.15,1.26-.27s.2-.45,.2-.99v-5.16Z"/><path class="g" d="M425.58,538.04c1.85,1.42,3.21,2.87,4.08,4.33,.87,1.46,1.31,3.05,1.31,4.74,0,1.85-.46,3.51-1.38,4.97-.92,1.46-2.3,2.71-4.13,3.75l-.28-.43c1.44-1.02,2.51-2.19,3.2-3.51s1.04-2.84,1.04-4.55-.34-3.28-1.01-4.73-1.72-2.84-3.13-4.17l.31-.41Z"/></g><g><path class="g" d="M437.32,257.88c-.62,0-1.24-.19-1.77-.59-6.81-5.13-11.82-8.5-11.87-8.54-1.35-.91-1.71-2.75-.8-4.1,.91-1.35,2.75-1.71,4.1-.8,.21,.14,5.18,3.5,12.12,8.72,1.3,.98,1.57,2.83,.58,4.14-.58,.77-1.47,1.18-2.36,1.18Z"/><path class="g" d="M569.09,705.29c-.86,0-1.7-.37-2.29-1.08-6.6-8.05-12.96-16.1-18.9-23.95-.99-1.3-.73-3.15,.57-4.14,1.3-.98,3.15-.73,4.14,.57,5.9,7.78,12.22,15.78,18.76,23.77,1.03,1.26,.85,3.12-.41,4.16-.55,.45-1.21,.67-1.87,.67Zm-33.19-43.49c-.93,0-1.84-.44-2.42-1.25-6.01-8.53-11.72-17.08-16.96-25.4-.87-1.38-.46-3.2,.92-4.07,1.38-.87,3.21-.46,4.07,.92,5.19,8.24,10.84,16.7,16.8,25.15,.94,1.33,.62,3.18-.71,4.12-.52,.36-1.11,.54-1.7,.54Zm-29.36-46.15c-1.03,0-2.03-.54-2.58-1.5-5.17-9.16-9.92-18.3-14.1-27.16-.7-1.48-.07-3.24,1.41-3.93,1.47-.69,3.24-.07,3.93,1.41,4.12,8.74,8.8,17.75,13.9,26.78,.8,1.42,.3,3.22-1.12,4.03-.46,.26-.96,.38-1.45,.38Zm-23.62-49.29c-1.18,0-2.3-.72-2.75-1.89-3.84-9.88-7.06-19.69-9.59-29.15-.42-1.58,.52-3.2,2.09-3.62,1.58-.42,3.2,.52,3.62,2.09,2.47,9.25,5.63,18.86,9.39,28.54,.59,1.52-.17,3.23-1.69,3.82-.35,.14-.71,.2-1.07,.2Zm-13.47-52.78c-1.52,0-2.81-1.17-2.94-2.71-.57-6.87-.86-14.63-.86-23.05,0-2.43,.02-5,.07-7.62,.03-1.61,1.35-2.9,2.95-2.9h.06c1.63,.03,2.93,1.38,2.9,3.01-.05,2.58-.07,5.11-.07,7.51,0,8.26,.28,15.85,.84,22.56,.14,1.63-1.07,3.05-2.7,3.19-.08,0-.17,.01-.25,.01Zm.27-54.67c-.06,0-.13,0-.19,0-1.63-.1-2.86-1.51-2.76-3.14,.6-9.37,1.46-19.6,2.55-30.41,.16-1.62,1.61-2.82,3.24-2.64,1.62,.16,2.81,1.61,2.64,3.24-1.08,10.74-1.94,20.9-2.53,30.19-.1,1.56-1.4,2.77-2.95,2.77Zm5.24-54.48c-.12,0-.24,0-.36-.02-1.62-.2-2.77-1.67-2.58-3.29,1.31-10.83,2.64-20.75,3.7-28.72l.2-1.48c.22-1.62,1.72-2.75,3.32-2.54,1.62,.22,2.75,1.7,2.54,3.32l-.2,1.48c-1.06,7.95-2.38,17.85-3.69,28.65-.18,1.5-1.46,2.6-2.93,2.6Zm6.68-54.33c-.08,0-.16,0-.24,0-1.63-.13-2.84-1.55-2.71-3.18,.48-6.04,.72-11.41,.72-16.42,0-4.76-.22-9.26-.66-13.38-.17-1.62,1-3.08,2.63-3.25,1.62-.17,3.08,1,3.25,2.63,.46,4.32,.69,9.03,.69,14,0,5.17-.24,10.69-.74,16.89-.12,1.55-1.42,2.72-2.94,2.72Zm-6.05-53.76c-1.1,0-2.16-.62-2.67-1.68-1.54-3.22-3.38-6.14-5.48-8.68-3.35-4.06-7.81-8.59-13.26-13.49-1.21-1.09-1.32-2.96-.23-4.17,1.09-1.21,2.96-1.32,4.17-.23,5.67,5.09,10.34,9.84,13.87,14.12,2.4,2.91,4.5,6.24,6.25,9.89,.7,1.47,.08,3.24-1.39,3.94-.41,.2-.85,.29-1.27,.29Z"/><path class="g" d="M594.38,734.92c-.82,0-1.63-.34-2.21-1-3.46-3.91-6.65-7.56-9.74-11.15-1.07-1.24-.93-3.1,.31-4.17s3.1-.93,4.17,.31c3.08,3.57,6.25,7.2,9.7,11.1,1.08,1.22,.97,3.09-.26,4.17-.56,.5-1.26,.74-1.96,.74Z"/></g><g><path class="h" d="M444.07,196.51h-.05c-1.63-.03-2.93-1.38-2.9-3.01,.09-4.96-.28-9.71-1.11-14.11-.3-1.6,.76-3.15,2.36-3.45,1.61-.3,3.15,.76,3.45,2.36,.9,4.79,1.3,9.94,1.21,15.3-.03,1.61-1.35,2.9-2.95,2.9Z"/><path class="h" d="M438.78,225.12c-.33,0-.67-.06-1-.17-1.54-.55-2.33-2.24-1.78-3.78,1.76-4.9,3.09-10.01,3.96-15.18,.27-1.61,1.79-2.69,3.4-2.43,1.61,.27,2.7,1.79,2.43,3.4-.92,5.52-2.35,10.97-4.22,16.2-.43,1.21-1.57,1.96-2.78,1.96Z"/><path class="h" d="M425.33,249.26c-.65,0-1.31-.22-1.86-.66-1.27-1.03-1.46-2.89-.44-4.16,2.93-3.62,5.58-7.6,7.86-11.83,.77-1.44,2.57-1.97,4-1.2,1.44,.78,1.97,2.57,1.2,4-2.46,4.55-5.31,8.84-8.47,12.74-.58,.72-1.44,1.09-2.3,1.09Z"/><path class="h" d="M440.06,168.91c-.45,5.17-1.82,11.81-3.97,16.28l7.08-5,8.64,.68c-4.14-2.74-8.71-7.75-11.74-11.96Z"/></g><circle class="f" cx="453.35" cy="238.34" r="13.3"/><circle class="f" cx="441.53" cy="149.71" r="13.3"/><g><path class="f" d="M386.88,365.39c-.38,0-.76-.14-1.04-.43-.58-.58-.58-1.51,0-2.09h0c33.73-33.73,56.01-56.01,63.4-102.62,.13-.81,.89-1.35,1.69-1.23,.81,.13,1.36,.88,1.23,1.69-7.54,47.56-31.32,71.34-64.22,104.25-.29,.29-.67,.43-1.05,.43Z"/><path class="f" d="M451.88,251.64c.98,4.37,2.9,9.88,5.25,13.46l-6.62-3.47-7.3,1.57c3.22-2.82,6.56-7.62,8.67-11.56Z"/></g><g><path class="i" d="M609.43,374.12c2.2,.12,4.05,.21,5.56,.27,1.51,.06,2.84,.09,4,.09,.94,0,2.16-.03,3.66-.09,1.5-.06,3.72-.15,6.66-.27l13.79,39.05,13.75-39.05c2.32,.12,4.22,.21,5.72,.27,1.5,.06,2.79,.09,3.87,.09s2.35-.03,3.87-.09c1.52-.06,3.51-.15,5.97-.27v3.44c-2.66,.05-4.34,.41-5.07,1.09s-1.09,2.42-1.09,5.25v33.52c0,2.87,.36,4.66,1.09,5.38s2.41,1.07,5.07,1.07v3.47c-2.75-.14-5.15-.25-7.18-.33-2.04-.07-3.72-.11-5.05-.11-1.52,0-3.28,.04-5.28,.11-2,.07-4.27,.18-6.8,.33v-3.47c2.7,0,4.42-.37,5.14-1.1,.72-.74,1.09-2.51,1.09-5.34v-36.34h-.29l-16.43,46.33-5.65-.43-16.11-45.89h-.36l-.43,35.22v.94c0,2.85,.4,4.66,1.19,5.45,.8,.79,2.43,1.18,4.89,1.18v3.47c-1.64-.1-3.14-.17-4.51-.22-1.36-.05-2.46-.07-3.28-.07-1.28,0-3.62,.07-7.02,.22-.77,.02-1.38,.05-1.81,.07v-3.47c2.87-.07,4.72-.47,5.54-1.19,.82-.72,1.25-2.7,1.3-5.94l.51-35.22v-.29c0-1.52-.34-2.5-1.03-2.95-.69-.45-2.44-.67-5.27-.67v-3.47Z"/><path class="i" d="M718.76,402.5v14.44c0,2.56,.19,4.14,.56,4.74,.37,.6,1.06,.91,2.04,.91,.58,0,1.12-.15,1.61-.43,.49-.29,.97-.74,1.43-1.34l1.85,1.41c-1.33,2.08-2.8,3.55-4.42,4.43-1.62,.88-3.63,1.32-6.04,1.32-2.22,0-3.97-.52-5.25-1.56-1.28-1.04-1.98-2.51-2.1-4.42-1.59,2-3.5,3.5-5.72,4.49-2.22,.99-4.78,1.48-7.67,1.48-3.18,0-5.65-.75-7.4-2.26-1.75-1.51-2.62-3.64-2.62-6.39s1.05-5.06,3.15-6.64c2.1-1.58,6.09-2.95,11.98-4.11,1.04-.19,2.3-.41,3.8-.65,2.61-.41,3.91-1.13,3.91-2.17v-4.31c0-2.7-.47-4.63-1.41-5.77-.94-1.15-2.5-1.72-4.67-1.72-1.21,0-2.32,.14-3.33,.43-1.01,.29-1.88,.69-2.61,1.19,.22,.82,.37,1.5,.47,2.05,.1,.54,.14,1.03,.14,1.47,0,1.74-.48,3.12-1.43,4.14-.95,1.03-2.24,1.54-3.85,1.54-1.33,0-2.4-.41-3.2-1.23-.81-.82-1.21-1.92-1.21-3.29,0-2.65,1.58-4.9,4.74-6.73s7.2-2.75,12.12-2.75,8.83,.97,11.35,2.91c2.52,1.94,3.78,4.83,3.78,8.67v.15Zm-10.89,7.56c-4.78,.84-7.99,1.84-9.63,2.99-1.64,1.15-2.46,2.79-2.46,4.94,0,1.64,.42,2.95,1.27,3.93,.84,.98,1.98,1.47,3.4,1.47s2.73-.4,4-1.21c1.27-.81,2.41-1.98,3.42-3.53v-8.58Z"/><path class="i" d="M736.14,399.02c0-1.71-.31-2.82-.92-3.31-.62-.49-2.25-.78-4.9-.85v-3.11c3.4-.12,6.47-.26,9.21-.42,2.74-.16,5.24-.34,7.51-.56v6.15c1.5-1.98,3.23-3.5,5.19-4.56s4.07-1.59,6.32-1.59c4.66,0,8.33,1.67,11.02,5.01,2.69,3.34,4.04,7.9,4.04,13.66s-1.35,10.01-4.05,13.25c-2.7,3.23-6.35,4.85-10.93,4.85-2.39,0-4.51-.42-6.35-1.25-1.85-.83-3.52-2.12-5.01-3.86v13.65c0,2.27,.28,3.62,.83,4.07,.55,.45,2.41,.74,5.57,.89l-.04,3.19c-2.8-.15-5.1-.24-6.9-.29-1.8-.05-3.37-.07-4.72-.07-1.28,0-2.78,.02-4.51,.07-1.73,.05-3.95,.14-6.68,.29v-3.19c2.46-.22,3.96-.56,4.51-1.01,.54-.46,.81-1.77,.81-3.95v-37.06Zm11.11,18.46c.8,1.62,1.83,2.86,3.09,3.73,1.27,.87,2.66,1.3,4.18,1.3,2.44,0,4.28-1.2,5.54-3.6s1.88-5.89,1.88-10.48c0-4.13-.59-7.26-1.77-9.39-1.18-2.14-2.92-3.2-5.21-3.2-1.5,0-2.91,.46-4.23,1.39s-2.49,2.29-3.47,4.07v16.18Z"/><path class="i" d="M815.93,402.5v14.44c0,2.56,.19,4.14,.56,4.74,.37,.6,1.06,.91,2.04,.91,.58,0,1.12-.15,1.61-.43,.49-.29,.97-.74,1.43-1.34l1.85,1.41c-1.33,2.08-2.8,3.55-4.42,4.43-1.62,.88-3.63,1.32-6.04,1.32-2.22,0-3.97-.52-5.25-1.56-1.28-1.04-1.98-2.51-2.1-4.42-1.59,2-3.5,3.5-5.72,4.49-2.22,.99-4.78,1.48-7.67,1.48-3.18,0-5.65-.75-7.4-2.26-1.75-1.51-2.62-3.64-2.62-6.39s1.05-5.06,3.15-6.64c2.1-1.58,6.09-2.95,11.98-4.11,1.04-.19,2.3-.41,3.8-.65,2.61-.41,3.91-1.13,3.91-2.17v-4.31c0-2.7-.47-4.63-1.41-5.77-.94-1.15-2.5-1.72-4.67-1.72-1.21,0-2.32,.14-3.33,.43-1.01,.29-1.88,.69-2.61,1.19,.22,.82,.37,1.5,.47,2.05,.1,.54,.14,1.03,.14,1.47,0,1.74-.48,3.12-1.43,4.14-.95,1.03-2.24,1.54-3.85,1.54-1.33,0-2.4-.41-3.2-1.23-.81-.82-1.21-1.92-1.21-3.29,0-2.65,1.58-4.9,4.74-6.73s7.2-2.75,12.12-2.75,8.83,.97,11.35,2.91c2.52,1.94,3.78,4.83,3.78,8.67v.15Zm-10.89,7.56c-4.78,.84-7.99,1.84-9.63,2.99-1.64,1.15-2.46,2.79-2.46,4.94,0,1.64,.42,2.95,1.27,3.93,.84,.98,1.98,1.47,3.4,1.47s2.73-.4,4-1.21c1.27-.81,2.41-1.98,3.42-3.53v-8.58Z"/></g><g><path class="h" d="M481.42,210.13c-.07,0-.14,0-.21-.01-5.13-.73-14.19-.92-22.03-.46-.85,.05-1.54-.58-1.58-1.41-.05-.83,.58-1.54,1.41-1.58,8.02-.47,17.33-.27,22.63,.49,.82,.12,1.39,.88,1.27,1.7-.11,.75-.75,1.29-1.48,1.29Z"/><path class="h" d="M451.88,208.83c3.28-1.56,7.3-4.08,9.71-6.59l-1.55,5.87,2.56,5.5c-2.81-2.04-7.22-3.82-10.72-4.78Z"/></g><g><path class="g" d="M437.87,548.33c-.74,0-1.38-.54-1.48-1.29-.12-.82,.46-1.58,1.28-1.69,5.9-.83,14.77-1.15,22.6-.81,.83,.04,1.47,.74,1.43,1.56-.04,.83-.71,1.47-1.56,1.43-7.54-.33-16.41,0-22.05,.79-.07,0-.14,.01-.21,.01Z"/><path class="g" d="M467.42,546.63c-3.3-1.52-7.36-3.98-9.8-6.46l1.63,5.85-2.49,5.54c2.78-2.08,7.16-3.92,10.66-4.92Z"/></g></g></g></g></svg>