<?xml version="1.0" encoding="UTF-8"?><svg xmlns="http://www.w3.org/2000/svg" viewBox="0 0 351.19 174.39"><defs><style>.d{fill:#844535;}</style></defs><g id="a"/><g id="b"><g id="c"><g><g><path class="d" d="M24.56,45.78l.29-1.99h1.57c-.03,.98-.05,1.92-.08,2.81-.03,.89-.04,1.72-.04,2.48v4.92h-1.53c-.22-2.98-1.05-5.27-2.49-6.87-1.44-1.6-3.39-2.4-5.86-2.4-2.79,0-4.86,1.03-6.21,3.09s-2.03,5.22-2.03,9.48c0,3.99,.73,7.01,2.18,9.07s3.57,3.09,6.36,3.09c2.21,0,4.03-.54,5.46-1.63s2.39-2.65,2.87-4.7h1.78c-.46,2.89-1.67,5.08-3.62,6.56s-4.59,2.23-7.92,2.23c-4.23,0-7.67-1.32-10.31-3.95-2.64-2.63-3.96-6.07-3.96-10.32s1.35-8.02,4.07-10.77c2.71-2.75,6.26-4.13,10.65-4.13,1.73,0,3.38,.27,4.94,.81,1.56,.54,2.86,1.29,3.89,2.25Z"/><path class="d" d="M42.45,51.99c3.1,0,5.58,.91,7.45,2.72s2.81,4.22,2.81,7.23-.96,5.3-2.89,7.16-4.38,2.79-7.37,2.79-5.59-.91-7.47-2.73c-1.88-1.82-2.83-4.23-2.83-7.22s.97-5.27,2.91-7.14c1.94-1.87,4.4-2.81,7.39-2.81Zm-.08,1.66c-1.32,0-2.31,.7-2.97,2.09-.67,1.39-1,3.46-1,6.2s.33,4.87,1,6.23c.66,1.37,1.67,2.05,3.01,2.05s2.41-.68,3.08-2.04c.67-1.36,1.01-3.44,1.01-6.24s-.34-4.9-1.02-6.25-1.71-2.03-3.11-2.03Z"/><path class="d" d="M59.65,56.41c0-.92-.17-1.51-.49-1.77s-1.2-.42-2.62-.46v-1.67c1.74-.06,3.35-.14,4.81-.22s2.83-.18,4.09-.3v4.53c.8-1.5,1.82-2.63,3.06-3.39,1.24-.76,2.69-1.14,4.36-1.14,2.18,0,3.79,.57,4.83,1.72,1.04,1.15,1.56,2.93,1.56,5.34v8.13c0,1.19,.15,1.91,.45,2.18,.3,.26,.97,.44,2.01,.51v1.67c-1.48-.08-2.64-.13-3.47-.16-.83-.03-1.51-.04-2.04-.04s-1.21,.01-2.04,.04c-.83,.03-2.05,.08-3.65,.16v-1.67c1.32-.13,2.11-.31,2.39-.54s.42-.95,.42-2.15v-8.21c0-1.45-.23-2.47-.7-3.09-.46-.61-1.23-.92-2.28-.92-1.17,0-2.25,.5-3.23,1.51s-1.47,1.99-1.47,2.96v7.74c0,1.21,.14,1.94,.43,2.19,.28,.25,.95,.41,1.99,.5v1.67c-1.72-.08-2.95-.13-3.69-.16-.74-.03-1.34-.04-1.79-.04-.55,0-1.28,.01-2.18,.04-.9,.03-2.17,.08-3.8,.16v-1.67c1.45-.13,2.32-.32,2.62-.57,.3-.25,.46-.96,.46-2.12v-10.78Z"/><path class="d" d="M88.76,55.05h-3.74v-1.74h1.67c1.37,0,2.08-.6,2.13-1.8,.01-.13,.02-.23,.02-.31,.14-3.03,.9-5.32,2.27-6.85,1.37-1.54,3.34-2.3,5.9-2.3,1.86,0,3.34,.41,4.44,1.22s1.66,1.89,1.66,3.23c0,.85-.23,1.53-.69,2.04s-1.07,.76-1.85,.76-1.38-.24-1.84-.72c-.46-.48-.7-1.11-.7-1.9,0-.55,.12-1.07,.36-1.54,.24-.47,.36-.73,.36-.76,0-.21-.15-.38-.46-.53-.3-.15-.68-.22-1.13-.22-.89,0-1.52,.25-1.9,.76-.38,.51-.56,1.43-.56,2.76v6.16h5.34v1.74h-5.34v12.41c0,1.16,.21,1.85,.64,2.07,.43,.22,1.52,.34,3.27,.35l.02,1.67c-1.28-.05-2.54-.09-3.78-.12-1.25-.03-2.5-.04-3.75-.04-.58,0-1.4,.01-2.47,.04-1.06,.03-2.25,.06-3.57,.12v-1.67c1.74-.08,2.79-.25,3.16-.5,.36-.26,.54-.99,.54-2.19v-12.14Z"/><path class="d" d="M102.71,54.18v-1.67c1.78-.06,3.44-.14,4.97-.22s2.99-.18,4.38-.3v15.2c0,1.26,.17,2.02,.52,2.26s1.17,.39,2.48,.43v1.67c-1.7-.08-2.97-.13-3.81-.16-.84-.03-1.51-.04-2.01-.04-.74,0-1.61,.01-2.61,.04-1.01,.03-2.32,.08-3.95,.16v-1.67c1.6-.1,2.57-.28,2.91-.52s.51-.97,.51-2.17v-10.78c0-.92-.17-1.51-.49-1.77s-1.29-.42-2.89-.46Zm6.29-11.02c.92,0,1.62,.24,2.11,.71,.49,.47,.74,1.15,.74,2.02s-.39,1.67-1.18,2.41-1.66,1.11-2.61,1.11c-.81,0-1.46-.24-1.96-.73-.49-.48-.74-1.13-.74-1.93,0-.9,.38-1.73,1.14-2.48,.76-.75,1.59-1.12,2.5-1.12Z"/><path class="d" d="M121.26,56.41c0-.92-.17-1.51-.49-1.77s-1.2-.42-2.62-.46v-1.67c1.7-.06,3.27-.14,4.71-.22s2.78-.18,4.04-.3v4.8c.48-1.51,1.2-2.69,2.18-3.53,.97-.84,2.09-1.27,3.34-1.27s2.17,.32,2.88,.96,1.06,1.51,1.06,2.62c0,.84-.24,1.52-.72,2.05-.48,.53-1.08,.79-1.82,.79-.87,0-1.53-.24-2-.73-.47-.48-.71-1.18-.71-2.08,0-.32,.04-.64,.13-.95,.08-.31,.22-.64,.4-1.01-1.25,.16-2.3,1-3.14,2.55-.84,1.54-1.26,3.44-1.26,5.7v5.29c0,1.19,.2,1.92,.59,2.21,.39,.28,1.56,.44,3.51,.48l.02,1.67c-1.3-.05-2.54-.09-3.7-.12-1.16-.03-2.25-.04-3.25-.04-.72,0-1.63,.01-2.71,.04-1.08,.03-2.25,.06-3.5,.12v-1.67c1.37-.08,2.22-.24,2.56-.49,.34-.25,.51-.98,.51-2.2v-10.78Z"/><path class="d" d="M143.42,56.41c0-.92-.17-1.51-.49-1.77s-1.2-.42-2.62-.46v-1.67c1.74-.06,3.33-.14,4.75-.22,1.43-.08,2.75-.18,3.96-.3v4.24c.89-1.37,1.95-2.42,3.17-3.15,1.22-.73,2.55-1.09,3.98-1.09,1.69,0,3.03,.36,4.02,1.08s1.58,1.77,1.77,3.16c.9-1.43,1.94-2.5,3.11-3.19s2.51-1.04,4.04-1.04c1.98,0,3.47,.56,4.49,1.69,1.02,1.13,1.53,2.79,1.53,4.97v8.73c0,1.12,.15,1.8,.45,2.04,.3,.24,.95,.39,1.96,.46l.02,1.67c-1.51-.08-2.66-.13-3.45-.16-.79-.03-1.44-.04-1.96-.04s-1.17,.01-1.98,.04c-.82,.03-2.02,.08-3.61,.16v-1.67c1.28-.1,2.07-.27,2.37-.51,.3-.24,.46-.96,.46-2.18v-8.62c0-1.24-.23-2.15-.68-2.73-.45-.58-1.16-.87-2.11-.87-1.04,0-1.97,.37-2.79,1.11-.81,.74-1.38,1.75-1.68,3.01v8.09c0,1.23,.16,1.96,.46,2.22,.31,.25,.97,.41,1.99,.47v1.67c-1.51-.08-2.66-.13-3.45-.16-.79-.03-1.43-.04-1.94-.04s-1.18,.01-2,.04c-.82,.03-2.02,.08-3.59,.16v-1.67c1.28-.1,2.07-.27,2.36-.51,.3-.24,.45-.96,.45-2.18v-8.62c0-1.2-.23-2.1-.69-2.7-.46-.6-1.15-.9-2.08-.9-1.07,0-2.01,.37-2.81,1.1-.8,.74-1.36,1.74-1.68,3.02v8.09c0,1.21,.14,1.94,.44,2.19,.29,.25,.95,.41,1.98,.5v1.67c-1.61-.08-2.81-.13-3.6-.16-.79-.03-1.42-.04-1.9-.04-.54,0-1.23,.01-2.06,.04-.83,.03-2.05,.08-3.65,.16v-1.67c1.45-.13,2.32-.32,2.62-.57,.3-.25,.46-.96,.46-2.12v-10.78Z"/><path class="d" d="M199.83,58.27v7.72c0,1.37,.1,2.21,.3,2.54,.2,.32,.56,.48,1.09,.48,.31,0,.6-.08,.86-.23,.26-.15,.52-.39,.76-.72l.99,.75c-.71,1.11-1.5,1.9-2.36,2.37-.86,.47-1.94,.71-3.23,.71-1.19,0-2.12-.28-2.81-.83-.68-.55-1.06-1.34-1.12-2.36-.85,1.07-1.87,1.87-3.06,2.4s-2.55,.79-4.1,.79c-1.7,0-3.02-.4-3.96-1.21-.94-.81-1.4-1.95-1.4-3.42s.56-2.71,1.68-3.55c1.12-.84,3.26-1.58,6.41-2.2,.55-.1,1.23-.22,2.03-.35,1.39-.22,2.09-.61,2.09-1.16v-2.3c0-1.45-.25-2.47-.75-3.09-.5-.61-1.34-.92-2.5-.92-.65,0-1.24,.08-1.78,.23s-1.01,.37-1.39,.64c.12,.44,.2,.8,.25,1.09,.05,.29,.08,.55,.08,.78,0,.93-.25,1.67-.76,2.22-.51,.55-1.2,.82-2.06,.82-.71,0-1.28-.22-1.71-.66-.43-.44-.65-1.03-.65-1.76,0-1.42,.84-2.62,2.54-3.6,1.69-.98,3.85-1.47,6.49-1.47s4.72,.52,6.07,1.56c1.35,1.04,2.02,2.58,2.02,4.64v.08Zm-5.83,4.05c-2.55,.45-4.27,.98-5.15,1.6-.88,.61-1.32,1.49-1.32,2.64,0,.88,.23,1.58,.68,2.1,.45,.52,1.06,.78,1.82,.78s1.46-.22,2.14-.65,1.29-1.06,1.83-1.89v-4.59Z"/><path class="d" d="M223.45,46.28c0-.81-.17-1.35-.52-1.62s-1.26-.41-2.75-.44v-1.7c1.43-.04,2.93-.1,4.48-.18s3.13-.18,4.73-.3v25.15c0,1.25,.17,2,.5,2.25,.33,.25,1.12,.4,2.34,.44l.02,1.67c-1.72-.08-3-.13-3.84-.16-.85-.03-1.53-.04-2.06-.04s-1.22,.01-2.07,.04c-.85,.03-2.08,.08-3.68,.16v-1.67c1.26-.08,2.05-.25,2.37-.53s.47-1,.47-2.16v-20.91Z"/><path class="d" d="M246.52,51.99c3.1,0,5.58,.91,7.45,2.72s2.81,4.22,2.81,7.23-.96,5.3-2.89,7.16-4.38,2.79-7.37,2.79-5.59-.91-7.47-2.73c-1.88-1.82-2.83-4.23-2.83-7.22s.97-5.27,2.91-7.14c1.94-1.87,4.4-2.81,7.39-2.81Zm-.08,1.66c-1.32,0-2.31,.7-2.97,2.09-.67,1.39-1,3.46-1,6.2s.33,4.87,1,6.23c.66,1.37,1.67,2.05,3.01,2.05s2.41-.68,3.08-2.04c.67-1.36,1.01-3.44,1.01-6.24s-.34-4.9-1.02-6.25-1.71-2.03-3.11-2.03Z"/><path class="d" d="M291.27,54.94l3.06-2.94h1.35v24.95c0,.92,.1,1.46,.31,1.64,.21,.17,.72,.27,1.55,.3v1.7c-1.08-.06-2.05-.11-2.89-.15-.85-.03-1.62-.05-2.33-.05-.56,0-1.28,.01-2.17,.04-.89,.03-2.22,.08-3.99,.16v-1.7c1.73-.1,2.76-.28,3.09-.52s.49-.96,.49-2.13v-7.14c-.79,.85-1.66,1.49-2.62,1.91-.96,.42-2,.63-3.13,.63-2.46,0-4.44-.84-5.93-2.53-1.49-1.68-2.24-3.93-2.24-6.75,0-3.08,.84-5.59,2.52-7.51s3.84-2.88,6.49-2.88c1.26,0,2.43,.25,3.5,.75,1.07,.5,2.05,1.24,2.94,2.24Zm-1.53,1.14c-.28-.58-.71-1.04-1.27-1.36s-1.2-.49-1.91-.49c-1.46,0-2.57,.64-3.34,1.93-.77,1.28-1.15,3.15-1.15,5.6s.35,4.25,1.05,5.44,1.76,1.78,3.18,1.78c.71,0,1.36-.17,1.94-.51,.58-.34,1.08-.85,1.49-1.52v-10.86Z"/><path class="d" d="M304.11,56.41c0-.9-.15-1.48-.46-1.74-.3-.26-1.13-.42-2.47-.48v-1.67c1.81-.06,3.44-.14,4.89-.22,1.45-.08,2.78-.18,3.98-.3v13.49c0,1.38,.25,2.36,.74,2.93,.49,.58,1.29,.86,2.4,.86,1.01,0,1.9-.25,2.68-.76,.78-.51,1.41-1.24,1.89-2.2v-9.91c0-.9-.15-1.48-.46-1.74-.31-.26-1.14-.43-2.48-.5l.02-1.65c1.77-.06,3.38-.14,4.83-.22s2.8-.18,4.04-.3v15.35c0,1.11,.13,1.78,.39,2,.26,.23,.88,.37,1.88,.42v1.67h-1.99c-.98,0-1.97,0-2.97,.03s-2.02,.05-3.05,.09l-.12-2.77c-.81,1.03-1.83,1.81-3.05,2.33s-2.64,.78-4.25,.78c-2.14,0-3.75-.57-4.82-1.7s-1.61-2.84-1.61-5.11v-8.67Z"/><path class="d" d="M350.29,61.36l-13.44,.12v.43c0,2.52,.51,4.43,1.54,5.74,1.03,1.31,2.52,1.97,4.48,1.97,1.39,0,2.59-.35,3.59-1.05,1-.7,1.8-1.74,2.41-3.12l1.37,.43c-.61,2.05-1.67,3.57-3.17,4.55-1.51,.98-3.53,1.47-6.06,1.47-3.17,0-5.7-.89-7.57-2.68-1.87-1.79-2.81-4.2-2.81-7.23s.93-5.39,2.8-7.23c1.87-1.84,4.33-2.76,7.39-2.76,2.87,0,5.16,.81,6.88,2.42,1.72,1.61,2.58,3.76,2.58,6.43v.52Zm-5.46-1.72c-.03-2.04-.35-3.55-.98-4.52s-1.58-1.46-2.88-1.46-2.27,.54-2.99,1.61c-.72,1.07-1.09,2.58-1.13,4.53l7.98-.16Z"/></g><g><path class="d" d="M1.98,91.64c1.32,.06,2.57,.11,3.75,.14s2.17,.05,2.98,.05c.96,0,2.03-.02,3.22-.05,1.19-.03,2.44-.08,3.75-.14l-.02,2.06c-1.08,.05-1.8,.16-2.15,.35-.35,.18-.53,.51-.53,.97,0,.21,.03,.43,.1,.67,.06,.24,.16,.53,.29,.86l4.67,10.58c1.82-4.44,2.99-7.41,3.52-8.92,.53-1.51,.79-2.53,.79-3.05,0-.56-.2-.94-.61-1.15-.41-.21-1.17-.31-2.29-.31v-2.06c.75,.06,1.49,.11,2.23,.14s1.47,.05,2.2,.05c.5,0,1.07-.02,1.74-.05s1.39-.08,2.19-.14l-.02,2.06c-.78,.05-1.38,.23-1.81,.54s-.81,.88-1.16,1.71l-8.54,20.99c-1.56,3.86-2.99,6.45-4.27,7.77-1.29,1.32-2.88,1.97-4.8,1.97-1.21,0-2.2-.31-2.97-.92-.77-.61-1.15-1.4-1.15-2.36,0-.86,.3-1.57,.91-2.12,.61-.55,1.39-.83,2.35-.83,1.04,0,1.96,.37,2.76,1.1,.81,.73,1.3,1.1,1.5,1.1,.49,0,1.1-.67,1.83-2,.73-1.33,1.46-3.15,2.19-5.45l-9.31-19.08c-.53-1.04-1.01-1.7-1.46-1.97-.45-.28-1.05-.44-1.82-.47l-.02-2.06Z"/><path class="d" d="M53.79,98.94v9.55c0,1.69,.12,2.74,.37,3.14,.25,.4,.7,.6,1.35,.6,.38,0,.74-.1,1.07-.29s.64-.49,.95-.89l1.22,.93c-.88,1.37-1.85,2.35-2.92,2.93-1.07,.58-2.4,.87-4,.87-1.47,0-2.63-.34-3.47-1.03-.85-.69-1.31-1.66-1.39-2.92-1.05,1.32-2.31,2.31-3.78,2.97-1.47,.65-3.16,.98-5.07,.98-2.11,0-3.74-.5-4.9-1.5-1.16-1-1.74-2.41-1.74-4.22s.69-3.35,2.08-4.39c1.39-1.04,4.03-1.95,7.92-2.72,.69-.13,1.52-.27,2.51-.43,1.72-.27,2.59-.75,2.59-1.44v-2.85c0-1.79-.31-3.06-.93-3.82-.62-.76-1.65-1.14-3.09-1.14-.8,0-1.53,.1-2.2,.29-.67,.19-1.25,.46-1.72,.79,.14,.54,.25,.99,.31,1.35,.06,.36,.1,.68,.1,.97,0,1.15-.32,2.06-.95,2.74-.63,.68-1.48,1.02-2.55,1.02-.88,0-1.58-.27-2.12-.81-.54-.54-.8-1.27-.8-2.18,0-1.76,1.04-3.24,3.14-4.45,2.09-1.21,4.76-1.82,8.02-1.82s5.84,.64,7.5,1.93c1.67,1.29,2.5,3.2,2.5,5.73v.1Zm-7.2,5c-3.16,.56-5.28,1.22-6.37,1.97-1.09,.76-1.63,1.85-1.63,3.27,0,1.09,.28,1.95,.84,2.6,.56,.65,1.31,.97,2.25,.97s1.81-.27,2.64-.8c.84-.53,1.59-1.31,2.26-2.33v-5.67Z"/><path class="d" d="M97.18,93.39l.33-1.6h1.77v6.87h-1.77c-.29-1.66-.95-2.94-2-3.84-1.04-.9-2.38-1.35-4.01-1.35-1.4,0-2.52,.28-3.34,.83s-1.23,1.29-1.23,2.21c0,1.52,1.76,2.8,5.29,3.85,.72,.21,1.28,.38,1.68,.5,2.57,.8,4.36,1.73,5.36,2.8,1,1.07,1.51,2.52,1.51,4.36,0,2.33-.93,4.21-2.78,5.64-1.85,1.43-4.33,2.14-7.42,2.14-1.32,0-2.58-.18-3.78-.54-1.2-.36-2.32-.9-3.38-1.62l-.46,1.44h-1.82c.02-.56,.05-1.31,.1-2.25s.07-1.58,.07-1.92v-3.78h1.84c.16,2.12,.79,3.72,1.9,4.8,1.11,1.08,2.68,1.62,4.73,1.62,1.52,0,2.68-.28,3.49-.85,.81-.57,1.22-1.38,1.22-2.43,0-1.6-1.71-2.9-5.15-3.93-.29-.08-.5-.14-.65-.19-2.87-.83-4.91-1.81-6.1-2.96-1.2-1.14-1.79-2.62-1.79-4.44,0-2.22,.85-4.03,2.55-5.45,1.7-1.41,3.91-2.12,6.62-2.12,1.48,0,2.81,.18,3.97,.54,1.16,.36,2.24,.91,3.23,1.66Z"/><path class="d" d="M129,98.94v9.55c0,1.69,.12,2.74,.37,3.14,.25,.4,.7,.6,1.35,.6,.38,0,.74-.1,1.07-.29s.64-.49,.95-.89l1.22,.93c-.88,1.37-1.85,2.35-2.92,2.93-1.07,.58-2.4,.87-4,.87-1.47,0-2.63-.34-3.47-1.03-.85-.69-1.31-1.66-1.39-2.92-1.05,1.32-2.31,2.31-3.78,2.97-1.47,.65-3.16,.98-5.07,.98-2.11,0-3.74-.5-4.9-1.5-1.16-1-1.74-2.41-1.74-4.22s.69-3.35,2.08-4.39c1.39-1.04,4.03-1.95,7.92-2.72,.69-.13,1.52-.27,2.51-.43,1.72-.27,2.59-.75,2.59-1.44v-2.85c0-1.79-.31-3.06-.93-3.82-.62-.76-1.65-1.14-3.09-1.14-.8,0-1.53,.1-2.2,.29-.67,.19-1.25,.46-1.72,.79,.14,.54,.25,.99,.31,1.35,.06,.36,.1,.68,.1,.97,0,1.15-.32,2.06-.95,2.74-.63,.68-1.48,1.02-2.55,1.02-.88,0-1.58-.27-2.12-.81-.54-.54-.8-1.27-.8-2.18,0-1.76,1.04-3.24,3.14-4.45,2.09-1.21,4.76-1.82,8.02-1.82s5.84,.64,7.5,1.93c1.67,1.29,2.5,3.2,2.5,5.73v.1Zm-7.2,5c-3.16,.56-5.28,1.22-6.37,1.97-1.09,.76-1.63,1.85-1.63,3.27,0,1.09,.28,1.95,.84,2.6,.56,.65,1.31,.97,2.25,.97s1.81-.27,2.64-.8c.84-.53,1.59-1.31,2.26-2.33v-5.67Z"/><path class="d" d="M139.45,84.13c0-1.02-.2-1.69-.61-2.01-.41-.32-1.34-.49-2.81-.53v-2.11c1.74-.05,3.51-.12,5.3-.22s3.62-.22,5.47-.38v16.09c1.07-1.29,2.21-2.25,3.41-2.86,1.2-.61,2.54-.92,4.01-.92,2.87,0,5.23,1.09,7.07,3.28,1.84,2.19,2.76,5,2.76,8.45,0,3.91-1.03,7.03-3.09,9.37-2.06,2.34-4.79,3.51-8.19,3.51-2.19,0-4.51-.7-6.97-2.11-.72-.41-1.17-.62-1.36-.62-.26,0-.66,.22-1.22,.66-.56,.44-1.29,1.13-2.2,2.07h-1.58v-31.67Zm7.35,15.2v11.54c.62,.78,1.33,1.38,2.12,1.81s1.61,.63,2.45,.63c1.77,0,3.04-.74,3.81-2.23,.77-1.48,1.15-4,1.15-7.54,0-3.16-.38-5.46-1.14-6.89-.76-1.44-1.97-2.15-3.63-2.15-1.1,0-2.11,.46-3.02,1.37s-1.49,2.07-1.75,3.47Z"/><path class="d" d="M194.15,102.77l-16.61,.14v.53c0,3.11,.63,5.48,1.9,7.1,1.27,1.62,3.12,2.43,5.54,2.43,1.72,0,3.2-.43,4.44-1.29,1.24-.86,2.23-2.15,2.98-3.85l1.7,.53c-.75,2.54-2.06,4.41-3.92,5.62-1.87,1.21-4.37,1.82-7.49,1.82-3.93,0-7.05-1.1-9.36-3.32-2.31-2.21-3.47-5.19-3.47-8.94s1.15-6.67,3.46-8.94c2.31-2.27,5.35-3.41,9.13-3.41,3.54,0,6.38,1,8.51,2.99,2.13,2,3.2,4.64,3.2,7.95v.65Zm-6.75-2.13c-.03-2.52-.43-4.38-1.21-5.59-.77-1.2-1.96-1.81-3.55-1.81s-2.81,.66-3.7,1.99c-.89,1.33-1.35,3.19-1.4,5.6l9.86-.19Z"/><path class="d" d="M202.87,96.65c0-1.13-.2-1.86-.61-2.19s-1.49-.51-3.24-.56v-2.06c2.15-.08,4.11-.17,5.88-.28s3.4-.23,4.9-.37v5.24c1.1-1.69,2.41-2.99,3.91-3.89,1.51-.9,3.15-1.35,4.92-1.35,2.09,0,3.75,.45,4.97,1.34s1.95,2.19,2.19,3.9c1.12-1.77,2.4-3.09,3.84-3.95,1.44-.86,3.11-1.29,4.99-1.29,2.44,0,4.29,.7,5.55,2.09s1.89,3.44,1.89,6.14v10.79c0,1.39,.18,2.23,.55,2.53,.37,.3,1.17,.48,2.42,.56l.02,2.06c-1.87-.1-3.29-.16-4.26-.19-.97-.03-1.78-.05-2.42-.05s-1.44,.02-2.45,.05c-1.01,.03-2.5,.1-4.46,.19v-2.06c1.58-.13,2.56-.34,2.93-.63,.38-.3,.56-1.19,.56-2.69v-10.65c0-1.53-.28-2.66-.84-3.38-.56-.72-1.43-1.08-2.61-1.08-1.29,0-2.44,.46-3.45,1.38-1.01,.92-1.7,2.16-2.08,3.72v10.01c0,1.52,.19,2.43,.57,2.74,.38,.31,1.21,.51,2.47,.59v2.06c-1.87-.1-3.29-.16-4.26-.19s-1.77-.05-2.39-.05-1.46,.02-2.48,.05-2.49,.1-4.44,.19v-2.06c1.58-.13,2.55-.34,2.92-.63,.37-.3,.55-1.19,.55-2.69v-10.65c0-1.48-.28-2.6-.85-3.34-.57-.74-1.42-1.11-2.57-1.11-1.32,0-2.48,.45-3.47,1.36-.99,.91-1.68,2.15-2.08,3.73v10.01c0,1.5,.18,2.4,.54,2.71,.36,.3,1.18,.51,2.45,.62v2.06c-2-.1-3.48-.16-4.45-.19-.97-.03-1.76-.05-2.35-.05-.67,0-1.52,.02-2.55,.05s-2.53,.1-4.51,.19v-2.06c1.79-.16,2.87-.39,3.24-.71s.56-1.18,.56-2.62v-13.33Z"/><path class="d" d="M263.18,91.19c3.83,0,6.9,1.12,9.21,3.36s3.47,5.22,3.47,8.94-1.19,6.56-3.58,8.86-5.42,3.45-9.11,3.45-6.91-1.12-9.24-3.38-3.49-5.23-3.49-8.93,1.2-6.52,3.6-8.83c2.4-2.31,5.45-3.47,9.13-3.47Zm-.1,2.06c-1.63,0-2.85,.86-3.67,2.58s-1.23,4.28-1.23,7.66,.41,6.02,1.23,7.71,2.06,2.54,3.72,2.54,2.98-.84,3.81-2.53c.83-1.68,1.24-4.26,1.24-7.72s-.42-6.06-1.26-7.73c-.84-1.68-2.12-2.51-3.84-2.51Z"/><path class="d" d="M298.42,93.39l.33-1.6h1.77v6.87h-1.77c-.29-1.66-.95-2.94-2-3.84-1.04-.9-2.38-1.35-4.01-1.35-1.4,0-2.52,.28-3.34,.83s-1.23,1.29-1.23,2.21c0,1.52,1.76,2.8,5.29,3.85,.72,.21,1.28,.38,1.68,.5,2.57,.8,4.36,1.73,5.36,2.8,1,1.07,1.51,2.52,1.51,4.36,0,2.33-.93,4.21-2.78,5.64-1.85,1.43-4.33,2.14-7.42,2.14-1.32,0-2.58-.18-3.78-.54-1.2-.36-2.32-.9-3.38-1.62l-.46,1.44h-1.82c.02-.56,.05-1.31,.1-2.25s.07-1.58,.07-1.92v-3.78h1.84c.16,2.12,.79,3.72,1.9,4.8,1.11,1.08,2.68,1.62,4.73,1.62,1.52,0,2.68-.28,3.49-.85,.81-.57,1.22-1.38,1.22-2.43,0-1.6-1.71-2.9-5.15-3.93-.29-.08-.5-.14-.65-.19-2.87-.83-4.91-1.81-6.1-2.96-1.2-1.14-1.79-2.62-1.79-4.44,0-2.22,.85-4.03,2.55-5.45,1.7-1.41,3.91-2.12,6.62-2.12,1.48,0,2.81,.18,3.97,.54,1.16,.36,2.24,.91,3.23,1.66Z"/><path class="d" d="M314.66,107.66c1.12,0,2.03,.38,2.75,1.14,.72,.76,1.08,1.72,1.08,2.88s-.36,2.17-1.08,2.93c-.72,.76-1.64,1.14-2.75,1.14s-2.02-.38-2.75-1.15c-.73-.77-1.1-1.74-1.1-2.92,0-1.12,.38-2.07,1.13-2.85,.75-.78,1.66-1.17,2.73-1.17Zm16.32,0c1.12,0,2.04,.38,2.75,1.14s1.08,1.72,1.08,2.88-.36,2.17-1.08,2.93-1.64,1.14-2.75,1.14-2.02-.38-2.75-1.15c-.73-.77-1.1-1.74-1.1-2.92,0-1.12,.38-2.07,1.12-2.85,.75-.78,1.66-1.17,2.73-1.17Zm16.37,0c1.12,0,2.03,.38,2.75,1.14,.72,.76,1.08,1.72,1.08,2.88s-.36,2.17-1.08,2.93c-.72,.76-1.64,1.14-2.75,1.14s-2.02-.38-2.75-1.15c-.73-.77-1.1-1.74-1.1-2.92,0-1.12,.38-2.07,1.13-2.85,.75-.78,1.66-1.17,2.73-1.17Z"/></g><g><path class="d" d="M9.16,135.26c1.01,0,1.89,.36,2.61,1.08,.73,.72,1.09,1.6,1.09,2.62,0,.97-.37,1.82-1.1,2.54-.74,.72-1.6,1.08-2.6,1.08s-1.89-.34-2.58-1.04c-.69-.69-1.04-1.55-1.04-2.58s.34-1.96,1.01-2.66c.68-.7,1.54-1.05,2.6-1.05Zm-.95,9.7h1.99c.43,3.31,.98,6.96,1.65,10.95,.68,3.99,1.01,6.3,1.01,6.94,0,1.48-.31,2.7-.93,3.65-.62,.95-1.53,1.61-2.73,2-1.21-.38-2.12-1.05-2.73-2-.62-.95-.93-2.17-.93-3.65,0-.63,.33-2.94,1-6.94,.67-3.99,1.22-7.64,1.66-10.95Z"/><path class="d" d="M29.57,135.26c1.01,0,1.89,.36,2.61,1.08,.73,.72,1.09,1.6,1.09,2.62,0,.97-.37,1.82-1.1,2.54-.74,.72-1.6,1.08-2.6,1.08s-1.89-.34-2.58-1.04c-.69-.69-1.04-1.55-1.04-2.58s.34-1.96,1.01-2.66c.68-.7,1.54-1.05,2.6-1.05Zm-.95,9.7h1.99c.43,3.31,.98,6.96,1.65,10.95,.68,3.99,1.01,6.3,1.01,6.94,0,1.48-.31,2.7-.93,3.65-.62,.95-1.53,1.61-2.73,2-1.21-.38-2.12-1.05-2.73-2-.62-.95-.93-2.17-.93-3.65,0-.63,.33-2.94,1-6.94,.67-3.99,1.22-7.64,1.66-10.95Z"/><path class="d" d="M67.86,166.2c.24,1.81,.61,3.08,1.11,3.82,.51,.73,1.23,1.1,2.17,1.1,.69,0,1.3-.26,1.82-.79,.52-.53,.94-1.3,1.25-2.32l1.63,.44c-.5,1.97-1.33,3.45-2.5,4.44-1.17,.99-2.67,1.49-4.49,1.49-2.06,0-3.66-.52-4.81-1.55-1.15-1.04-1.82-2.57-2.03-4.6-.49,.09-.96,.16-1.43,.2s-.93,.07-1.37,.07c-4.85,0-8.83-1.54-11.94-4.63-3.11-3.09-4.66-7.08-4.66-11.97,0-2.54,.46-4.88,1.38-7.01,.92-2.13,2.27-3.97,4.05-5.51,1.56-1.34,3.3-2.36,5.23-3.05s3.95-1.05,6.06-1.05,4.27,.35,6.2,1.06c1.93,.71,3.65,1.74,5.18,3.11,1.71,1.5,3,3.3,3.87,5.4,.88,2.1,1.31,4.46,1.31,7.06,0,3.17-.72,6.04-2.15,8.59s-3.39,4.46-5.88,5.72Zm-1.9-4.48c.54-1.01,.98-2.4,1.31-4.16,.33-1.76,.5-3.65,.5-5.68,0-4.57-.75-8.12-2.26-10.64s-3.62-3.78-6.34-3.78-4.7,1.27-6.2,3.8c-1.5,2.54-2.25,6.08-2.25,10.62,0,2.12,.17,4.04,.51,5.77,.34,1.73,.8,3.08,1.39,4.07,.9-1.22,1.94-2.14,3.12-2.77,1.18-.62,2.5-.94,3.94-.94s2.72,.33,3.83,.99c1.11,.66,1.93,1.57,2.46,2.71Zm-4.12,4.19c-.13-1.46-.55-2.57-1.26-3.34-.71-.77-1.65-1.16-2.84-1.16-.72,0-1.42,.16-2.11,.49s-1.36,.81-2.02,1.46c.62,.94,1.44,1.67,2.47,2.19,1.03,.52,2.17,.78,3.42,.78,.35,0,.72-.03,1.1-.1,.38-.07,.79-.17,1.23-.32Z"/><path class="d" d="M83.83,150.86c0-1.03-.17-1.69-.52-1.98s-1.28-.48-2.81-.55v-1.9c2.06-.07,3.91-.16,5.57-.25,1.65-.1,3.16-.21,4.53-.34v15.37c0,1.57,.28,2.69,.84,3.34s1.47,.98,2.73,.98c1.15,0,2.17-.29,3.05-.87s1.61-1.42,2.15-2.5v-11.29c0-1.03-.18-1.69-.53-1.98-.35-.29-1.29-.49-2.82-.57l.02-1.88c2.01-.07,3.85-.16,5.5-.25s3.19-.21,4.6-.34v17.49c0,1.26,.15,2.03,.44,2.28,.29,.26,1.01,.42,2.14,.47v1.9h-2.27c-1.12,0-2.25,.01-3.38,.03-1.14,.02-2.3,.06-3.47,.1l-.13-3.15c-.93,1.18-2.08,2.06-3.47,2.66-1.39,.6-3,.89-4.84,.89-2.44,0-4.27-.65-5.49-1.94-1.22-1.29-1.83-3.23-1.83-5.82v-9.88Z"/><path class="d" d="M136.44,156.5l-15.3,.13v.48c0,2.87,.58,5.05,1.75,6.54s2.87,2.24,5.11,2.24c1.59,0,2.95-.4,4.09-1.19,1.14-.79,2.05-1.98,2.75-3.55l1.57,.49c-.69,2.34-1.9,4.06-3.62,5.18-1.72,1.12-4.02,1.68-6.9,1.68-3.62,0-6.49-1.02-8.62-3.05-2.13-2.04-3.2-4.78-3.2-8.24s1.06-6.14,3.19-8.24c2.12-2.09,4.93-3.14,8.41-3.14,3.26,0,5.88,.92,7.84,2.76,1.96,1.84,2.94,4.28,2.94,7.32v.6Zm-6.22-1.96c-.03-2.32-.4-4.04-1.11-5.15-.71-1.11-1.8-1.67-3.27-1.67s-2.59,.61-3.41,1.83c-.82,1.22-1.25,2.94-1.29,5.16l9.09-.18Z"/><path class="d" d="M156.5,146.25c1.59,.09,2.79,.15,3.61,.18,.82,.03,1.48,.04,2,.04,.88,0,1.88-.02,2.99-.05,1.11-.04,2.39-.09,3.83-.17v1.9c-1.09,0-1.83,.09-2.22,.26-.39,.18-.58,.49-.58,.95,0,.22,.09,.59,.26,1.1,.03,.07,.04,.12,.04,.15l4.61,12.19,4.56-12.33c.09-.21,.15-.4,.2-.58,.04-.18,.07-.33,.07-.45,0-.5-.17-.84-.52-1.03-.35-.18-1.04-.28-2.08-.28v-1.9c.71,.06,1.39,.1,2.05,.13,.66,.03,1.27,.04,1.83,.04s1.14-.01,1.8-.04,1.33-.07,2.04-.13v1.9c-.9,0-1.56,.14-1.98,.43-.43,.29-.8,.85-1.12,1.69l-4.48,11.6-.04,.11c-1.19,3.04-2.11,5.22-2.76,6.53l-4.1-.31-7.37-18.19c-.31-.79-.64-1.3-1-1.52-.36-.22-.9-.33-1.62-.33v-1.9Z"/><path class="d" d="M183.54,148.32v-1.9c2.03-.07,3.92-.16,5.67-.25,1.75-.1,3.41-.21,4.98-.34v17.31c0,1.44,.2,2.3,.6,2.58,.4,.28,1.34,.44,2.82,.49v1.9c-1.94-.09-3.39-.15-4.34-.18-.96-.03-1.72-.04-2.29-.04-.84,0-1.83,.01-2.98,.04-1.15,.03-2.65,.09-4.5,.18v-1.9c1.82-.12,2.93-.32,3.32-.6,.39-.28,.58-1.1,.58-2.47v-12.28c0-1.04-.19-1.72-.56-2.02-.38-.3-1.47-.47-3.3-.52Zm7.17-12.55c1.04,0,1.84,.27,2.4,.81,.56,.54,.84,1.3,.84,2.3s-.45,1.9-1.35,2.75-1.89,1.27-2.98,1.27c-.93,0-1.67-.28-2.23-.83-.56-.55-.84-1.28-.84-2.19,0-1.03,.43-1.97,1.3-2.82s1.82-1.28,2.84-1.28Z"/><path class="d" d="M224.33,156.5l-15.3,.13v.48c0,2.87,.58,5.05,1.75,6.54s2.87,2.24,5.11,2.24c1.59,0,2.95-.4,4.09-1.19,1.14-.79,2.05-1.98,2.75-3.55l1.57,.49c-.69,2.34-1.9,4.06-3.62,5.18-1.72,1.12-4.02,1.68-6.9,1.68-3.62,0-6.49-1.02-8.62-3.05-2.13-2.04-3.2-4.78-3.2-8.24s1.06-6.14,3.19-8.24c2.12-2.09,4.93-3.14,8.41-3.14,3.26,0,5.88,.92,7.84,2.76,1.96,1.84,2.94,4.28,2.94,7.32v.6Zm-6.22-1.96c-.03-2.32-.4-4.04-1.11-5.15-.71-1.11-1.8-1.67-3.27-1.67s-2.59,.61-3.41,1.83c-.82,1.22-1.25,2.94-1.29,5.16l9.09-.18Z"/><path class="d" d="M232.37,150.86c0-1.04-.19-1.72-.56-2.02-.38-.3-1.37-.47-2.99-.52v-1.9c1.98-.07,3.81-.16,5.48-.25,1.67-.1,3.22-.21,4.66-.34v5.16c.91-1.71,2.07-2.99,3.48-3.86,1.41-.87,3.07-1.3,4.96-1.3,2.48,0,4.32,.65,5.5,1.96,1.18,1.31,1.78,3.34,1.78,6.09v9.26c0,1.35,.17,2.18,.51,2.48,.34,.3,1.1,.5,2.29,.58v1.9c-1.69-.09-3.01-.15-3.96-.18-.95-.03-1.72-.04-2.33-.04s-1.38,.01-2.33,.04c-.95,.03-2.33,.09-4.16,.18v-1.9c1.5-.15,2.41-.35,2.72-.62s.47-1.08,.47-2.45v-9.35c0-1.65-.26-2.82-.79-3.52s-1.4-1.05-2.6-1.05c-1.34,0-2.57,.57-3.68,1.72-1.12,1.15-1.68,2.27-1.68,3.37v8.82c0,1.38,.16,2.21,.48,2.49s1.08,.47,2.27,.57v1.9c-1.96-.09-3.36-.15-4.2-.18-.85-.03-1.53-.04-2.04-.04-.63,0-1.46,.01-2.48,.04-1.02,.03-2.47,.09-4.33,.18v-1.9c1.65-.15,2.64-.36,2.99-.65,.34-.29,.52-1.09,.52-2.42v-12.28Z"/><path class="d" d="M284.84,156.5l-15.3,.13v.48c0,2.87,.58,5.05,1.75,6.54s2.87,2.24,5.11,2.24c1.59,0,2.95-.4,4.09-1.19,1.14-.79,2.05-1.98,2.75-3.55l1.57,.49c-.69,2.34-1.9,4.06-3.62,5.18-1.72,1.12-4.02,1.68-6.9,1.68-3.62,0-6.49-1.02-8.62-3.05-2.13-2.04-3.2-4.78-3.2-8.24s1.06-6.14,3.19-8.24c2.12-2.09,4.93-3.14,8.41-3.14,3.26,0,5.88,.92,7.84,2.76,1.96,1.84,2.94,4.28,2.94,7.32v.6Zm-6.22-1.96c-.03-2.32-.4-4.04-1.11-5.15-.71-1.11-1.8-1.67-3.27-1.67s-2.59,.61-3.41,1.83c-.82,1.22-1.25,2.94-1.29,5.16l9.09-.18Z"/><path class="d" d="M305.75,147.86l.31-1.48h1.63v6.33h-1.63c-.26-1.53-.88-2.71-1.84-3.54-.96-.83-2.19-1.25-3.69-1.25-1.29,0-2.32,.25-3.08,.76s-1.14,1.19-1.14,2.04c0,1.4,1.62,2.58,4.87,3.55,.66,.19,1.18,.35,1.54,.46,2.37,.73,4.01,1.59,4.94,2.58,.93,.98,1.39,2.32,1.39,4.01,0,2.15-.85,3.88-2.56,5.19-1.71,1.32-3.98,1.97-6.84,1.97-1.22,0-2.38-.17-3.48-.5-1.1-.33-2.14-.83-3.11-1.49l-.42,1.32h-1.68c.01-.51,.04-1.21,.09-2.07,.04-.87,.07-1.46,.07-1.76v-3.48h1.7c.15,1.96,.73,3.43,1.75,4.42,1.02,.99,2.47,1.49,4.35,1.49,1.4,0,2.47-.26,3.22-.78,.75-.52,1.12-1.27,1.12-2.24,0-1.47-1.58-2.68-4.74-3.62-.26-.07-.46-.13-.6-.18-2.65-.76-4.52-1.67-5.62-2.72-1.1-1.05-1.65-2.41-1.65-4.09,0-2.04,.78-3.72,2.35-5.02,1.57-1.3,3.6-1.95,6.1-1.95,1.37,0,2.59,.17,3.66,.5,1.07,.33,2.07,.84,2.98,1.53Z"/><path class="d" d="M322.25,135.26c1.19,.38,2.09,1.05,2.69,2.01,.6,.96,.9,2.18,.9,3.68,0,.63-.33,2.95-.98,6.96-.65,4.01-1.2,7.65-1.62,10.93h-1.99c-.44-3.29-1-6.94-1.66-10.93-.67-3.99-1-6.31-1-6.96,0-1.48,.31-2.71,.93-3.67,.62-.96,1.53-1.63,2.73-2.02Zm.04,25.93c1.01,0,1.87,.34,2.57,1.03,.7,.68,1.05,1.54,1.05,2.57,0,1.09-.34,1.98-1.03,2.67-.68,.69-1.55,1.04-2.59,1.04s-1.92-.36-2.64-1.07-1.07-1.59-1.07-2.63c0-.97,.36-1.81,1.09-2.53,.73-.71,1.6-1.07,2.61-1.07Z"/><path class="d" d="M342.66,135.26c1.19,.38,2.09,1.05,2.69,2.01,.6,.96,.9,2.18,.9,3.68,0,.63-.33,2.95-.98,6.96-.65,4.01-1.2,7.65-1.62,10.93h-1.99c-.44-3.29-1-6.94-1.66-10.93-.67-3.99-1-6.31-1-6.96,0-1.48,.31-2.71,.93-3.67,.62-.96,1.53-1.63,2.73-2.02Zm.04,25.93c1.01,0,1.87,.34,2.57,1.03,.7,.68,1.05,1.54,1.05,2.57,0,1.09-.34,1.98-1.03,2.67-.68,.69-1.55,1.04-2.59,1.04s-1.92-.36-2.64-1.07-1.07-1.59-1.07-2.63c0-.97,.36-1.81,1.09-2.53,.73-.71,1.6-1.07,2.61-1.07Z"/></g><g><path class="d" d="M0,1c1.09,.06,2.01,.11,2.75,.14,.74,.03,1.37,.05,1.9,.05,.57,0,1.24-.01,2.02-.05,.78-.03,1.74-.08,2.87-.14l14.06,18.98V6.51c0-1.63-.2-2.67-.61-3.1-.41-.43-1.27-.64-2.6-.64h-.22V1c1.08,.06,1.97,.11,2.65,.14,.69,.03,1.28,.05,1.77,.05,.37,0,.87-.01,1.5-.05,.63-.03,1.5-.08,2.61-.14v1.77c-1.34,0-2.21,.2-2.61,.61-.4,.41-.6,1.43-.6,3.08v11.04c0,1.51-.01,3.2-.04,5.05s-.06,3.8-.11,5.84l-3.3-.29L5.29,5.47V22.62c0,1.68,.2,2.72,.6,3.12,.4,.39,1.33,.59,2.79,.59v1.77c-1.28-.07-2.24-.12-2.88-.15s-1.15-.04-1.53-.04c-.32,0-.76,.01-1.33,.04-.57,.02-1.52,.07-2.88,.15v-1.77c1.41,0,2.32-.2,2.73-.61s.61-1.44,.61-3.1V6.05c0-1.45-.2-2.36-.59-2.73-.39-.37-1.33-.55-2.82-.55V1Z"/><path class="d" d="M42.66,9.47c2.95,0,5.31,.86,7.1,2.59,1.78,1.73,2.67,4.02,2.67,6.88s-.92,5.05-2.75,6.82c-1.84,1.77-4.17,2.65-7.01,2.65s-5.32-.87-7.12-2.6c-1.79-1.73-2.69-4.02-2.69-6.88s.92-5.02,2.77-6.8c1.85-1.78,4.19-2.67,7.03-2.67Zm-.07,1.58c-1.25,0-2.2,.66-2.83,1.99-.63,1.33-.95,3.29-.95,5.9s.32,4.63,.95,5.94,1.59,1.95,2.87,1.95,2.29-.65,2.93-1.95c.64-1.3,.96-3.28,.96-5.94s-.32-4.66-.97-5.95c-.65-1.29-1.63-1.94-2.96-1.94Z"/><path class="d" d="M72.5,13.68c0-.87-.16-1.43-.47-1.69s-1.15-.4-2.5-.43v-1.59c1.73-.06,3.3-.13,4.69-.21,1.39-.08,2.67-.17,3.82-.29v3.13c.76-1.01,1.64-1.78,2.65-2.32,1-.54,2.07-.81,3.22-.81,2.37,0,4.24,.85,5.61,2.55s2.05,4.02,2.05,6.96-.69,5.1-2.06,6.75-3.23,2.47-5.57,2.47c-1.22,0-2.29-.21-3.23-.64-.94-.42-1.79-1.08-2.55-1.96v6.95c0,1.15,.14,1.85,.42,2.07,.28,.23,1.23,.38,2.84,.45l-.02,1.62c-1.43-.07-2.6-.12-3.51-.15s-1.72-.04-2.41-.04c-.65,0-1.42,.01-2.29,.04s-2.01,.07-3.4,.15v-1.62c1.25-.11,2.02-.28,2.29-.52,.28-.23,.41-.9,.41-2.01V13.68Zm5.66,9.4c.41,.82,.93,1.46,1.58,1.9,.65,.44,1.36,.66,2.13,.66,1.24,0,2.18-.61,2.82-1.83s.96-3,.96-5.34c0-2.1-.3-3.7-.9-4.78-.6-1.09-1.49-1.63-2.65-1.63-.76,0-1.48,.24-2.16,.71s-1.27,1.16-1.77,2.07v8.24Z"/><path class="d" d="M98.14,13.68c0-.86-.14-1.41-.43-1.66-.29-.25-1.07-.4-2.35-.46v-1.59c1.72-.06,3.27-.13,4.65-.21,1.38-.08,2.65-.17,3.79-.29v12.85c0,1.32,.23,2.25,.7,2.79s1.23,.82,2.29,.82c.96,0,1.81-.24,2.55-.73,.74-.49,1.34-1.18,1.8-2.09V13.68c0-.86-.15-1.41-.44-1.66-.29-.25-1.08-.41-2.36-.48l.02-1.57c1.68-.06,3.22-.13,4.6-.21,1.38-.08,2.66-.17,3.84-.29v14.62c0,1.06,.12,1.69,.37,1.91,.25,.21,.84,.35,1.79,.4v1.58h-1.9c-.93,0-1.88,0-2.83,.03s-1.92,.05-2.9,.08l-.11-2.64c-.77,.98-1.74,1.72-2.9,2.22-1.16,.5-2.51,.75-4.05,.75-2.04,0-3.57-.54-4.59-1.62-1.02-1.08-1.53-2.7-1.53-4.87V13.68Z"/><path class="d" d="M142.11,18.4l-12.79,.11v.41c0,2.4,.49,4.22,1.47,5.46s2.4,1.87,4.27,1.87c1.33,0,2.47-.33,3.42-1,.95-.66,1.72-1.65,2.29-2.97l1.31,.41c-.58,1.95-1.59,3.4-3.02,4.33-1.44,.93-3.36,1.4-5.77,1.4-3.02,0-5.42-.85-7.21-2.55-1.78-1.7-2.67-4-2.67-6.88s.89-5.13,2.66-6.88c1.78-1.75,4.12-2.63,7.03-2.63,2.73,0,4.91,.77,6.55,2.3,1.64,1.54,2.46,3.58,2.46,6.12v.5Zm-5.2-1.64c-.03-1.94-.33-3.38-.93-4.3-.6-.93-1.51-1.39-2.74-1.39s-2.17,.51-2.85,1.53c-.68,1.02-1.04,2.46-1.08,4.31l7.59-.15Z"/><path class="d" d="M160.09,4.04c0-.79-.16-1.3-.49-1.55-.33-.25-1.2-.38-2.61-.41V.46c1.4-.04,2.83-.09,4.29-.17,1.46-.07,2.95-.17,4.47-.28V24.05c0,1.09,.14,1.76,.43,2.01,.29,.25,.97,.39,2.06,.44v1.58c-1.24,.04-2.53,.08-3.85,.14-1.33,.05-2.7,.12-4.11,.19v-2.53c-.64,.85-1.42,1.48-2.33,1.9-.92,.42-1.98,.63-3.18,.63-2.46,0-4.42-.83-5.88-2.48-1.46-1.65-2.19-3.87-2.19-6.64,0-2.99,.74-5.37,2.22-7.15,1.48-1.78,3.44-2.67,5.89-2.67,1.17,0,2.18,.17,3.03,.53,.85,.35,1.61,.89,2.26,1.63V4.04Zm0,9.9c-.5-.77-1.02-1.33-1.56-1.66-.54-.33-1.18-.5-1.93-.5-1.33,0-2.32,.6-2.98,1.81s-.99,3.04-.99,5.49c0,2.3,.33,4.02,1,5.17,.66,1.15,1.65,1.72,2.97,1.72,.66,0,1.29-.16,1.87-.47,.58-.31,1.12-.78,1.61-1.41V13.93Z"/><path class="d" d="M190.92,18.4l-12.79,.11v.41c0,2.4,.49,4.22,1.47,5.46s2.4,1.87,4.27,1.87c1.33,0,2.47-.33,3.42-1,.95-.66,1.72-1.65,2.29-2.97l1.31,.41c-.58,1.95-1.59,3.4-3.02,4.33-1.44,.93-3.36,1.4-5.77,1.4-3.02,0-5.42-.85-7.21-2.55-1.78-1.7-2.67-4-2.67-6.88s.89-5.13,2.66-6.88c1.78-1.75,4.12-2.63,7.03-2.63,2.73,0,4.91,.77,6.55,2.3,1.64,1.54,2.46,3.58,2.46,6.12v.5Zm-5.2-1.64c-.03-1.94-.33-3.38-.93-4.3-.6-.93-1.51-1.39-2.74-1.39s-2.17,.51-2.85,1.53c-.68,1.02-1.04,2.46-1.08,4.31l7.59-.15Z"/><path class="d" d="M208.4,11.17l.26-1.23h1.36v5.29h-1.36c-.22-1.28-.73-2.26-1.54-2.96-.8-.69-1.83-1.04-3.09-1.04-1.08,0-1.94,.21-2.57,.64-.63,.42-.95,.99-.95,1.71,0,1.17,1.36,2.16,4.07,2.97,.55,.16,.98,.29,1.29,.39,1.98,.61,3.35,1.33,4.13,2.16,.77,.82,1.16,1.94,1.16,3.36,0,1.79-.71,3.24-2.14,4.34-1.43,1.1-3.33,1.65-5.71,1.65-1.02,0-1.99-.14-2.91-.42-.92-.28-1.79-.69-2.6-1.24l-.35,1.11h-1.4c.01-.43,.04-1.01,.07-1.73,.04-.72,.06-1.22,.06-1.47v-2.91h1.42c.12,1.63,.61,2.87,1.47,3.7,.85,.83,2.07,1.24,3.64,1.24,1.17,0,2.06-.22,2.69-.65,.63-.44,.94-1.06,.94-1.87,0-1.23-1.32-2.24-3.96-3.02-.22-.06-.39-.11-.5-.15-2.21-.64-3.78-1.4-4.7-2.28-.92-.88-1.38-2.02-1.38-3.42,0-1.71,.65-3.11,1.96-4.19,1.31-1.09,3.01-1.63,5.1-1.63,1.14,0,2.16,.14,3.06,.42,.9,.28,1.73,.7,2.49,1.28Z"/><path class="d" d="M232,12.39h-3.56v-1.66h1.59c1.3,0,1.98-.57,2.03-1.71,.01-.12,.02-.22,.02-.29,.13-2.89,.85-5.06,2.16-6.53,1.3-1.46,3.18-2.19,5.62-2.19,1.77,0,3.18,.39,4.23,1.16,1.05,.77,1.58,1.8,1.58,3.08,0,.81-.22,1.46-.65,1.95s-1.02,.73-1.76,.73-1.31-.23-1.75-.68c-.44-.45-.66-1.06-.66-1.81,0-.53,.11-1.02,.34-1.46s.34-.69,.34-.73c0-.2-.14-.37-.43-.51-.29-.14-.65-.21-1.08-.21-.85,0-1.45,.24-1.81,.73s-.53,1.36-.53,2.63v5.86h5.09v1.66h-5.09v11.81c0,1.11,.2,1.76,.61,1.97,.41,.21,1.44,.32,3.11,.33l.02,1.58c-1.22-.05-2.42-.09-3.6-.11s-2.38-.04-3.57-.04c-.55,0-1.34,.01-2.35,.04-1.01,.02-2.15,.06-3.4,.11v-1.58c1.66-.07,2.66-.23,3-.48,.34-.25,.52-.94,.52-2.08V12.39Z"/><path class="d" d="M263.33,15.45v7.35c0,1.3,.1,2.11,.29,2.42,.19,.31,.54,.46,1.04,.46,.29,0,.57-.07,.82-.22s.5-.38,.73-.68l.94,.72c-.68,1.06-1.43,1.81-2.25,2.26-.82,.45-1.85,.67-3.08,.67-1.13,0-2.02-.26-2.67-.79s-1.01-1.28-1.07-2.25c-.81,1.02-1.78,1.78-2.91,2.29-1.13,.5-2.43,.76-3.91,.76-1.62,0-2.88-.38-3.77-1.15-.89-.77-1.34-1.85-1.34-3.25s.54-2.58,1.6-3.38c1.07-.8,3.1-1.5,6.1-2.09,.53-.1,1.17-.21,1.94-.33,1.33-.21,1.99-.58,1.99-1.11v-2.19c0-1.38-.24-2.36-.72-2.94-.48-.58-1.27-.88-2.38-.88-.61,0-1.18,.07-1.7,.22-.52,.15-.96,.35-1.33,.61,.11,.42,.19,.76,.24,1.04,.05,.28,.07,.52,.07,.75,0,.88-.24,1.59-.73,2.11s-1.14,.78-1.96,.78c-.68,0-1.22-.21-1.63-.63-.41-.42-.62-.98-.62-1.68,0-1.35,.8-2.49,2.42-3.43,1.61-.93,3.67-1.4,6.17-1.4s4.49,.49,5.78,1.48,1.93,2.46,1.93,4.42v.07Zm-5.55,3.85c-2.43,.43-4.07,.94-4.9,1.52-.84,.58-1.25,1.42-1.25,2.52,0,.84,.21,1.5,.65,2,.43,.5,1.01,.75,1.73,.75s1.39-.21,2.04-.62c.65-.41,1.23-1.01,1.74-1.8v-4.37Z"/><path class="d" d="M272.18,4.04c0-.77-.17-1.29-.5-1.54-.33-.25-1.21-.39-2.62-.42V.46c1.36-.04,2.79-.09,4.27-.17,1.48-.08,2.98-.17,4.51-.29V23.94c0,1.19,.16,1.91,.48,2.15,.32,.24,1.06,.38,2.23,.42l.02,1.58c-1.63-.07-2.85-.12-3.66-.15-.81-.02-1.46-.04-1.96-.04s-1.16,.01-1.97,.04c-.81,.02-1.98,.07-3.5,.15v-1.58c1.2-.07,1.96-.24,2.26-.51,.3-.26,.45-.95,.45-2.06V4.04Z"/><path class="d" d="M290.71,4.46h1.66l-.15,5.92h4.55v1.68h-4.59l-.31,10.6v.46c0,1.04,.17,1.79,.51,2.23s.89,.66,1.65,.66c.53,0,.99-.15,1.37-.46,.39-.31,.72-.78,1-1.42l1.2,.53c-.43,1.25-1.13,2.19-2.1,2.82-.97,.63-2.21,.94-3.71,.94-1.95,0-3.37-.48-4.24-1.44-.87-.96-1.31-2.55-1.31-4.77v-.53l.26-9.62h-2.03v-1.33c1.7-.58,3.06-1.38,4.08-2.41,1.03-1.03,1.74-2.32,2.15-3.85Z"/><path class="d" d="M318.76,15.45v7.35c0,1.3,.1,2.11,.29,2.42,.19,.31,.54,.46,1.04,.46,.29,0,.57-.07,.82-.22s.5-.38,.73-.68l.94,.72c-.68,1.06-1.43,1.81-2.25,2.26-.82,.45-1.85,.67-3.08,.67-1.13,0-2.02-.26-2.67-.79s-1.01-1.28-1.07-2.25c-.81,1.02-1.78,1.78-2.91,2.29-1.13,.5-2.43,.76-3.91,.76-1.62,0-2.88-.38-3.77-1.15-.89-.77-1.34-1.85-1.34-3.25s.54-2.58,1.6-3.38c1.07-.8,3.1-1.5,6.1-2.09,.53-.1,1.17-.21,1.94-.33,1.33-.21,1.99-.58,1.99-1.11v-2.19c0-1.38-.24-2.36-.72-2.94-.48-.58-1.27-.88-2.38-.88-.61,0-1.18,.07-1.7,.22-.52,.15-.96,.35-1.33,.61,.11,.42,.19,.76,.24,1.04,.05,.28,.07,.52,.07,.75,0,.88-.24,1.59-.73,2.11s-1.14,.78-1.96,.78c-.68,0-1.22-.21-1.63-.63-.41-.42-.62-.98-.62-1.68,0-1.35,.8-2.49,2.42-3.43,1.61-.93,3.67-1.4,6.17-1.4s4.49,.49,5.78,1.48,1.93,2.46,1.93,4.42v.07Zm-5.55,3.85c-2.43,.43-4.07,.94-4.9,1.52-.84,.58-1.25,1.42-1.25,2.52,0,.84,.21,1.5,.65,2,.43,.5,1.01,.75,1.73,.75s1.39-.21,2.04-.62c.65-.41,1.23-1.01,1.74-1.8v-4.37Z"/><path class="d" d="M327.78,13.68c0-.87-.16-1.43-.47-1.69s-1.15-.4-2.5-.43v-1.59c1.62-.06,3.12-.13,4.49-.21,1.37-.08,2.65-.17,3.84-.29v4.57c.45-1.44,1.15-2.56,2.07-3.36s1.99-1.21,3.18-1.21,2.07,.3,2.74,.91c.67,.61,1,1.44,1,2.5,0,.8-.23,1.45-.68,1.95-.46,.5-1.03,.76-1.73,.76-.82,0-1.46-.23-1.91-.69s-.67-1.12-.67-1.98c0-.31,.04-.61,.12-.9,.08-.29,.21-.61,.38-.96-1.19,.15-2.19,.96-2.99,2.42-.8,1.47-1.2,3.28-1.2,5.43v5.03c0,1.13,.19,1.83,.56,2.1s1.49,.42,3.35,.46l.02,1.58c-1.24-.05-2.42-.09-3.52-.11-1.11-.02-2.14-.04-3.1-.04-.69,0-1.55,.01-2.58,.04s-2.14,.06-3.34,.11v-1.58c1.3-.07,2.12-.23,2.44-.47,.33-.24,.49-.94,.49-2.09V13.68Z"/><path class="d" d="M346.24,22.16c.86,0,1.57,.29,2.12,.88,.55,.58,.83,1.32,.83,2.22s-.28,1.67-.83,2.26c-.55,.58-1.26,.88-2.12,.88s-1.55-.29-2.12-.88-.85-1.34-.85-2.25c0-.86,.29-1.59,.87-2.19,.58-.6,1.28-.9,2.1-.9Z"/></g></g></g></g></svg>