<?xml version="1.0" encoding="UTF-8"?><svg xmlns="http://www.w3.org/2000/svg" viewBox="0 0 351.02 272.46"><defs><style>.d{fill:#844535;}</style></defs><g id="a"/><g id="b"><g id="c"><g><g><path class="d" d="M42.98,1.58c.1,2.77,.21,5.28,.34,7.55,.13,2.26,.29,4.46,.47,6.59h-3.1c-.38-4.03-1.35-6.76-2.94-8.17-1.58-1.42-4.54-2.13-8.88-2.13h-10.8V24.52h4.47c3.07,0,4.98-.46,5.73-1.39,.75-.93,1.24-3.11,1.47-6.56h3.1c-.02,.45-.05,1.1-.07,1.97-.17,3.94-.25,6.65-.25,8.12,0,1.55,.08,4.36,.25,8.44,.02,.94,.05,1.66,.07,2.15h-3.1c-.17-3.68-.73-6.15-1.7-7.4-.98-1.26-2.81-1.88-5.51-1.88h-4.47v22.2h13.05c4.55,0,7.66-.83,9.32-2.48,1.66-1.65,2.73-4.86,3.2-9.62h3.1c-.19,2.58-.35,5.17-.49,7.76-.14,2.59-.27,5.19-.39,7.79H0v-3.38c2.65,0,4.33-.37,5.05-1.09,.71-.73,1.07-2.45,1.07-5.17V11.54c0-2.72-.36-4.44-1.09-5.15-.73-.72-2.4-1.09-5.03-1.11V1.9H9.78c6.09,0,11.87-.03,17.34-.09,5.47-.06,10.75-.13,15.86-.23Z"/><path class="d" d="M59.24,7.71c0-1.48-.31-2.46-.95-2.94-.63-.48-2.3-.74-4.99-.79V.88c2.6-.07,5.32-.18,8.14-.33,2.83-.15,5.69-.34,8.6-.55V45.69c0,2.27,.3,3.64,.91,4.1,.61,.46,2.03,.72,4.26,.79l.03,3.03c-3.12-.14-5.44-.23-6.98-.28-1.54-.05-2.79-.07-3.75-.07s-2.22,.03-3.76,.07c-1.55,.05-3.78,.14-6.68,.28v-3.03c2.3-.14,3.74-.46,4.31-.97,.57-.5,.86-1.81,.86-3.92V7.71Z"/><path class="d" d="M112.8,26.1c0-1.67-.3-2.74-.9-3.22-.6-.48-2.19-.75-4.76-.82v-3.03c3.16-.11,6.04-.25,8.63-.41,2.59-.15,4.99-.33,7.19-.54v7.7c1.62-2.48,3.54-4.39,5.75-5.71,2.22-1.33,4.63-1.99,7.23-1.99,3.07,0,5.5,.66,7.29,1.97s2.87,3.22,3.22,5.73c1.64-2.6,3.52-4.54,5.64-5.8,2.12-1.26,4.56-1.9,7.33-1.9,3.59,0,6.31,1.03,8.16,3.08s2.78,5.05,2.78,9.02v15.86c0,2.04,.27,3.28,.81,3.71,.54,.43,1.72,.71,3.55,.82l.03,3.03c-2.74-.14-4.83-.23-6.26-.28-1.43-.05-2.61-.07-3.55-.07s-2.11,.03-3.6,.07c-1.49,.05-3.67,.14-6.56,.28v-3.03c2.32-.18,3.76-.5,4.31-.93,.55-.43,.83-1.75,.83-3.95v-15.65c0-2.26-.41-3.91-1.23-4.96-.82-1.05-2.1-1.58-3.83-1.58-1.9,0-3.59,.67-5.06,2.02-1.48,1.35-2.5,3.18-3.06,5.47v14.7c0,2.23,.28,3.57,.85,4.03,.56,.46,1.77,.74,3.62,.86v3.03c-2.74-.14-4.83-.23-6.26-.28-1.43-.05-2.6-.07-3.52-.07s-2.15,.03-3.64,.07c-1.49,.05-3.67,.14-6.52,.28v-3.03c2.32-.18,3.75-.5,4.29-.93,.54-.43,.81-1.75,.81-3.95v-15.65c0-2.18-.42-3.82-1.25-4.91-.83-1.09-2.1-1.64-3.78-1.64-1.95,0-3.64,.67-5.1,2s-2.47,3.16-3.06,5.49v14.7c0,2.2,.27,3.52,.79,3.97,.53,.45,1.73,.75,3.6,.91v3.03c-2.93-.14-5.11-.23-6.54-.28-1.43-.05-2.58-.07-3.45-.07-.98,0-2.23,.03-3.74,.07-1.51,.05-3.72,.14-6.63,.28v-3.03c2.63-.23,4.22-.58,4.76-1.03,.55-.46,.83-1.74,.83-3.85V26.1Z"/><path class="d" d="M218.39,35.1l-24.41,.21v.78c0,4.57,.93,8.05,2.79,10.42,1.87,2.38,4.58,3.57,8.15,3.57,2.53,0,4.71-.63,6.52-1.9,1.82-1.27,3.28-3.15,4.38-5.67l2.5,.78c-1.1,3.73-3.03,6.48-5.77,8.26s-6.41,2.67-11.01,2.67c-5.77,0-10.36-1.62-13.75-4.87-3.4-3.24-5.1-7.63-5.1-13.14s1.7-9.8,5.08-13.14c3.39-3.34,7.86-5.01,13.42-5.01,5.21,0,9.37,1.47,12.5,4.4,3.13,2.93,4.7,6.82,4.7,11.67v.95Zm-9.92-3.13c-.05-3.7-.64-6.44-1.78-8.21-1.14-1.76-2.88-2.65-5.23-2.65s-4.13,.97-5.43,2.92c-1.3,1.94-1.99,4.69-2.06,8.23l14.49-.28Z"/><path class="d" d="M243.09,18.08V54.76c0,5.02-1.23,8.85-3.71,11.5-2.48,2.65-6.03,3.97-10.68,3.97-3.26,0-5.94-.77-8.04-2.3-2.1-1.54-3.15-3.45-3.15-5.75,0-1.55,.46-2.8,1.39-3.76,.93-.97,2.12-1.45,3.6-1.45,1.31,0,2.39,.42,3.22,1.27,.83,.85,1.25,1.93,1.25,3.27,0,.94-.25,1.87-.75,2.78-.51,.91-.76,1.43-.76,1.55,0,.47,.25,.84,.76,1.11,.5,.27,1.18,.41,2.02,.41,1.55,0,2.62-.49,3.22-1.45,.6-.96,.9-3.02,.9-6.19V26.1c0-1.76-.35-2.87-1.06-3.34-.7-.47-2.7-.7-5.97-.7v-3.03c3.59-.11,6.84-.25,9.76-.41,2.92-.15,5.59-.33,8-.54Zm-7.03-16.35c1.64,0,3.03,.53,4.18,1.58,1.15,1.06,1.72,2.33,1.72,3.83,0,1.62-.53,2.91-1.58,3.88-1.06,.98-2.45,1.46-4.19,1.46-1.55,0-2.88-.54-4.01-1.63-1.13-1.09-1.68-2.38-1.68-3.86,0-1.59,.5-2.87,1.51-3.83,1.01-.96,2.35-1.44,4.04-1.44Z"/><path class="d" d="M273,18.08c5.63,0,10.14,1.65,13.54,4.94,3.4,3.3,5.1,7.67,5.1,13.14s-1.75,9.64-5.26,13.01c-3.51,3.38-7.97,5.07-13.38,5.07s-10.15-1.66-13.58-4.96c-3.42-3.31-5.13-7.68-5.13-13.12s1.76-9.58,5.29-12.98c3.53-3.4,8-5.1,13.42-5.1Zm-.14,3.03c-2.39,0-4.19,1.26-5.4,3.8-1.21,2.53-1.81,6.28-1.81,11.25s.61,8.84,1.81,11.33c1.21,2.48,3.03,3.72,5.47,3.72s4.37-1.23,5.59-3.71c1.22-2.47,1.83-6.25,1.83-11.34s-.62-8.9-1.84-11.36c-1.23-2.46-3.11-3.69-5.64-3.69Z"/><path class="d" d="M304.25,26.1c0-1.67-.3-2.74-.9-3.22-.6-.48-2.19-.75-4.76-.82v-3.03c3.09-.11,5.95-.25,8.56-.41,2.62-.15,5.06-.33,7.33-.54v8.72c.87-2.74,2.18-4.88,3.95-6.42s3.79-2.3,6.07-2.3,3.94,.58,5.22,1.74c1.28,1.16,1.92,2.75,1.92,4.76,0,1.53-.43,2.77-1.3,3.73-.87,.96-1.97,1.44-3.31,1.44-1.57,0-2.79-.44-3.64-1.32-.86-.88-1.29-2.14-1.29-3.78,0-.58,.07-1.16,.23-1.72,.15-.57,.39-1.18,.72-1.83-2.27,.28-4.18,1.82-5.69,4.62-1.53,2.8-2.29,6.25-2.29,10.36v9.6c0,2.15,.36,3.49,1.07,4.01,.71,.51,2.84,.81,6.39,.87l.03,3.03c-2.37-.09-4.61-.17-6.72-.21-2.11-.05-4.08-.07-5.91-.07-1.31,0-2.95,.02-4.92,.07-1.96,.05-4.09,.12-6.36,.21v-3.03c2.48-.14,4.04-.44,4.66-.9,.62-.46,.93-1.79,.93-3.99V26.1Z"/></g><g><path class="d" d="M30.83,186.02l-21.02,.18v.67c0,3.94,.8,6.93,2.41,8.98,1.6,2.05,3.94,3.08,7.01,3.08,2.18,0,4.06-.55,5.62-1.63,1.56-1.09,2.82-2.72,3.77-4.88l2.15,.66c-.95,3.21-2.61,5.59-4.97,7.12-2.36,1.53-5.52,2.3-9.48,2.3-4.97,0-8.92-1.4-11.84-4.2-2.93-2.8-4.39-6.57-4.39-11.31s1.46-8.44,4.38-11.31c2.92-2.88,6.77-4.32,11.56-4.32,4.48,0,8.07,1.26,10.77,3.78,2.7,2.53,4.05,5.88,4.05,10.06v.82Zm-8.54-2.7c-.04-3.19-.55-5.55-1.53-7.07-.98-1.53-2.48-2.29-4.49-2.29s-3.56,.84-4.69,2.52c-1.12,1.67-1.71,4.03-1.77,7.09l12.48-.24Z"/><path class="d" d="M59.56,174.15l.42-2.03h2.24v8.7h-2.24c-.36-2.1-1.2-3.72-2.53-4.87-1.32-1.14-3.01-1.71-5.08-1.71-1.77,0-3.19,.35-4.23,1.05s-1.56,1.63-1.56,2.8c0,1.92,2.23,3.54,6.7,4.88,.91,.26,1.61,.47,2.12,.63,3.26,1.01,5.52,2.19,6.79,3.55,1.27,1.35,1.91,3.19,1.91,5.51,0,2.95-1.17,5.33-3.52,7.13-2.34,1.81-5.47,2.71-9.39,2.71-1.67,0-3.27-.23-4.78-.68-1.52-.46-2.94-1.14-4.27-2.05l-.58,1.81h-2.3c.02-.7,.06-1.65,.12-2.84,.06-1.19,.09-2,.09-2.42v-4.79h2.34c.2,2.69,1,4.71,2.41,6.07,1.4,1.37,3.39,2.05,5.98,2.05,1.92,0,3.39-.36,4.42-1.08,1.03-.72,1.55-1.74,1.55-3.08,0-2.02-2.17-3.67-6.52-4.97-.36-.1-.63-.18-.81-.24-3.64-1.05-6.21-2.3-7.73-3.74-1.52-1.44-2.27-3.31-2.27-5.62,0-2.81,1.08-5.1,3.23-6.89,2.15-1.78,4.94-2.68,8.38-2.68,1.88,0,3.55,.23,5.03,.68,1.47,.45,2.84,1.16,4.09,2.1Z"/><path class="d" d="M118.63,175.97l4.79-4.6h2.12v39.05c0,1.43,.16,2.28,.49,2.56,.32,.27,1.13,.43,2.42,.47v2.67c-1.7-.1-3.21-.18-4.53-.23-1.33-.05-2.54-.08-3.65-.08-.87,0-2,.02-3.39,.06s-3.47,.12-6.24,.24v-2.67c2.7-.16,4.31-.44,4.83-.82,.51-.38,.77-1.49,.77-3.33v-11.18c-1.23,1.33-2.6,2.33-4.1,2.98-1.51,.66-3.14,.99-4.89,.99-3.86,0-6.95-1.32-9.28-3.95-2.33-2.64-3.5-6.16-3.5-10.56,0-4.83,1.31-8.74,3.94-11.75,2.63-3.01,6.01-4.51,10.15-4.51,1.98,0,3.81,.38,5.48,1.16,1.68,.78,3.21,1.95,4.6,3.5Zm-2.39,1.78c-.45-.91-1.1-1.62-1.99-2.13-.88-.52-1.87-.77-2.98-.77-2.28,0-4.02,1.01-5.23,3.02-1.2,2.01-1.8,4.93-1.8,8.77s.55,6.66,1.65,8.52c1.1,1.85,2.76,2.78,4.98,2.78,1.11,0,2.12-.27,3.03-.8,.91-.53,1.69-1.33,2.34-2.38v-17Z"/><path class="d" d="M138.72,178.27c0-1.41-.24-2.32-.71-2.73-.48-.4-1.77-.66-3.87-.76v-2.6c2.83-.1,5.38-.22,7.65-.35,2.27-.13,4.35-.29,6.23-.47v21.11c0,2.16,.38,3.69,1.15,4.59,.77,.9,2.02,1.35,3.76,1.35,1.58,0,2.97-.4,4.2-1.2,1.22-.8,2.2-1.94,2.95-3.44v-15.51c0-1.41-.24-2.32-.73-2.73-.49-.4-1.78-.67-3.88-.78l.03-2.58c2.77-.1,5.28-.22,7.56-.35,2.27-.13,4.38-.29,6.31-.47v24.02c0,1.74,.2,2.78,.61,3.14,.4,.35,1.38,.57,2.94,.65v2.6h-3.12c-1.53,0-3.08,.01-4.64,.05-1.57,.03-3.16,.08-4.77,.13l-.18-4.33c-1.27,1.62-2.87,2.83-4.77,3.65-1.91,.81-4.13,1.23-6.65,1.23-3.35,0-5.87-.89-7.55-2.67-1.67-1.77-2.51-4.44-2.51-7.99v-13.57Z"/><path class="d" d="M210.98,186.02l-21.02,.18v.67c0,3.94,.8,6.93,2.41,8.98,1.6,2.05,3.94,3.08,7.01,3.08,2.18,0,4.06-.55,5.62-1.63,1.56-1.09,2.82-2.72,3.77-4.88l2.15,.66c-.95,3.21-2.61,5.59-4.97,7.12-2.36,1.53-5.52,2.3-9.48,2.3-4.97,0-8.92-1.4-11.84-4.2-2.93-2.8-4.39-6.57-4.39-11.31s1.46-8.44,4.38-11.31c2.92-2.88,6.77-4.32,11.56-4.32,4.48,0,8.07,1.26,10.77,3.78,2.7,2.53,4.05,5.88,4.05,10.06v.82Zm-8.54-2.7c-.04-3.19-.55-5.55-1.53-7.07-.98-1.53-2.48-2.29-4.49-2.29s-3.56,.84-4.69,2.52c-1.12,1.67-1.71,4.03-1.77,7.09l12.48-.24Z"/><path class="d" d="M244.42,178.27c0-1.44-.26-2.36-.77-2.77-.51-.41-1.88-.65-4.1-.71v-2.6c2.73-.1,5.24-.22,7.53-.35,2.29-.13,4.43-.29,6.41-.47v7.09c1.26-2.34,2.85-4.11,4.78-5.3,1.94-1.19,4.21-1.78,6.82-1.78,3.41,0,5.93,.9,7.56,2.7s2.44,4.58,2.44,8.36v12.73c0,1.85,.23,2.99,.69,3.41s1.52,.68,3.15,.8v2.6c-2.32-.12-4.13-.2-5.44-.24-1.3-.04-2.37-.06-3.2-.06s-1.89,.02-3.2,.06c-1.3,.04-3.2,.12-5.71,.24v-2.6c2.06-.2,3.31-.49,3.74-.85,.43-.37,.65-1.48,.65-3.36v-12.85c0-2.26-.37-3.87-1.09-4.83-.73-.96-1.92-1.44-3.58-1.44-1.84,0-3.52,.79-5.06,2.37-1.53,1.58-2.3,3.12-2.3,4.63v12.12c0,1.9,.22,3.03,.67,3.42,.44,.38,1.48,.65,3.12,.79v2.6c-2.69-.12-4.61-.2-5.77-.24-1.16-.04-2.1-.06-2.8-.06-.87,0-2.01,.02-3.41,.06-1.4,.04-3.38,.12-5.95,.24v-2.6c2.26-.2,3.63-.5,4.1-.9,.47-.4,.71-1.5,.71-3.31v-16.88Z"/><path class="d" d="M301.87,171.36c4.85,0,8.74,1.42,11.66,4.26,2.93,2.84,4.39,6.61,4.39,11.31s-1.51,8.3-4.53,11.21c-3.02,2.91-6.86,4.37-11.53,4.37s-8.74-1.42-11.69-4.27c-2.95-2.85-4.42-6.62-4.42-11.3s1.52-8.25,4.56-11.17c3.04-2.93,6.89-4.39,11.56-4.39Zm-.12,2.6c-2.06,0-3.61,1.09-4.65,3.27-1.04,2.18-1.56,5.41-1.56,9.69s.52,7.62,1.56,9.75c1.04,2.15,2.61,3.21,4.71,3.21s3.77-1.07,4.81-3.2c1.05-2.13,1.58-5.39,1.58-9.77s-.53-7.66-1.59-9.78c-1.06-2.12-2.69-3.18-4.87-3.18Z"/><path class="d" d="M346.47,174.15l.42-2.03h2.24v8.7h-2.24c-.36-2.1-1.2-3.72-2.53-4.87-1.32-1.14-3.01-1.71-5.08-1.71-1.77,0-3.19,.35-4.23,1.05s-1.56,1.63-1.56,2.8c0,1.92,2.23,3.54,6.7,4.88,.91,.26,1.61,.47,2.12,.63,3.26,1.01,5.52,2.19,6.79,3.55,1.27,1.35,1.91,3.19,1.91,5.51,0,2.95-1.17,5.33-3.52,7.13-2.34,1.81-5.47,2.71-9.39,2.71-1.67,0-3.27-.23-4.78-.68-1.52-.46-2.94-1.14-4.27-2.05l-.58,1.81h-2.3c.02-.7,.06-1.65,.12-2.84,.06-1.19,.09-2,.09-2.42v-4.79h2.34c.2,2.69,1,4.71,2.41,6.07,1.4,1.37,3.39,2.05,5.98,2.05,1.92,0,3.39-.36,4.42-1.08,1.03-.72,1.55-1.74,1.55-3.08,0-2.02-2.17-3.67-6.52-4.97-.36-.1-.63-.18-.81-.24-3.64-1.05-6.21-2.3-7.73-3.74-1.52-1.44-2.27-3.31-2.27-5.62,0-2.81,1.08-5.1,3.23-6.89,2.15-1.78,4.94-2.68,8.38-2.68,1.88,0,3.55,.23,5.03,.68,1.47,.45,2.84,1.16,4.09,2.1Z"/></g><g><path class="d" d="M26.81,239.4v11.44c0,2.02,.15,3.28,.44,3.76,.3,.48,.84,.72,1.62,.72,.46,0,.88-.11,1.28-.34,.39-.23,.77-.59,1.13-1.06l1.46,1.12c-1.05,1.65-2.22,2.82-3.5,3.52-1.28,.69-2.88,1.04-4.79,1.04-1.76,0-3.14-.41-4.16-1.23s-1.57-1.99-1.66-3.5c-1.26,1.59-2.77,2.77-4.53,3.56-1.76,.79-3.79,1.18-6.08,1.18-2.52,0-4.48-.6-5.86-1.79-1.39-1.2-2.08-2.88-2.08-5.06s.83-4.01,2.49-5.26c1.66-1.26,4.83-2.34,9.49-3.26,.82-.15,1.82-.33,3.01-.52,2.06-.33,3.1-.9,3.1-1.72v-3.41c0-2.14-.37-3.66-1.12-4.57-.75-.91-1.98-1.37-3.7-1.37-.96,0-1.84,.11-2.64,.34-.8,.23-1.49,.54-2.06,.95,.17,.65,.3,1.19,.37,1.62,.07,.42,.11,.81,.11,1.16,0,1.38-.38,2.47-1.13,3.28-.76,.81-1.78,1.22-3.06,1.22-1.05,0-1.9-.33-2.54-.98-.64-.65-.96-1.52-.96-2.61,0-2.1,1.25-3.88,3.76-5.33,2.51-1.45,5.71-2.18,9.61-2.18s6.99,.77,8.99,2.31c2,1.54,3,3.83,3,6.87v.11Zm-8.63,5.99c-3.79,.67-6.33,1.46-7.63,2.37-1.3,.91-1.95,2.21-1.95,3.91,0,1.3,.33,2.34,1,3.11,.67,.78,1.57,1.16,2.7,1.16s2.16-.32,3.17-.96c1-.64,1.9-1.58,2.71-2.8v-6.8Z"/><path class="d" d="M64.65,249.78l1.86,.95c-1.26,3.02-3.03,5.25-5.31,6.69-2.28,1.45-5.16,2.17-8.66,2.17-4.76,0-8.49-1.24-11.2-3.73-2.71-2.48-4.06-5.92-4.06-10.3,0-4.74,1.47-8.51,4.4-11.28,2.93-2.79,6.92-4.18,11.97-4.18,3.56,0,6.45,.77,8.69,2.32,2.24,1.55,3.36,3.5,3.36,5.85,0,1.2-.33,2.16-1,2.87s-1.57,1.06-2.7,1.06-2.1-.38-2.87-1.15c-.76-.76-1.15-1.73-1.15-2.9,0-.63,.13-1.33,.39-2.09,.25-.76,.38-1.22,.38-1.38,0-.56-.44-1.04-1.32-1.45-.88-.41-1.97-.62-3.27-.62-2.31,0-4.16,1.07-5.55,3.2-1.39,2.13-2.08,5.02-2.08,8.67s.73,6.37,2.2,8.26c1.46,1.89,3.58,2.84,6.38,2.84,2.14,0,4-.48,5.59-1.45,1.59-.96,2.9-2.42,3.93-4.37Z"/><path class="d" d="M88.26,230.11c4.59,0,8.27,1.34,11.04,4.03,2.77,2.69,4.16,6.26,4.16,10.71s-1.43,7.86-4.29,10.61c-2.86,2.75-6.49,4.13-10.91,4.13s-8.28-1.35-11.07-4.04c-2.79-2.7-4.19-6.26-4.19-10.7s1.44-7.81,4.31-10.58c2.88-2.77,6.53-4.16,10.94-4.16Zm-.11,2.47c-1.95,0-3.42,1.03-4.4,3.1-.98,2.06-1.47,5.12-1.47,9.18s.49,7.21,1.47,9.23c.99,2.02,2.47,3.04,4.46,3.04s3.57-1.01,4.56-3.03c.99-2.01,1.49-5.1,1.49-9.25s-.5-7.26-1.51-9.26c-1-2.01-2.54-3.01-4.6-3.01Z"/><path class="d" d="M113.74,236.65c0-1.36-.24-2.23-.73-2.63-.48-.39-1.78-.61-3.88-.67v-2.47c2.58-.1,4.93-.21,7.04-.33,2.12-.13,4.07-.28,5.87-.45v6.28c1.32-2.02,2.88-3.58,4.69-4.66,1.81-1.08,3.77-1.62,5.9-1.62,2.51,0,4.49,.53,5.95,1.61,1.46,1.07,2.33,2.63,2.62,4.67,1.34-2.12,2.87-3.7,4.61-4.73,1.73-1.03,3.72-1.55,5.98-1.55,2.93,0,5.14,.84,6.65,2.51,1.51,1.67,2.27,4.12,2.27,7.35v12.93c0,1.66,.22,2.67,.66,3.02,.44,.36,1.41,.58,2.9,.68l.03,2.47c-2.24-.11-3.94-.19-5.1-.23-1.16-.04-2.13-.06-2.9-.06s-1.73,.02-2.94,.06c-1.21,.04-2.99,.11-5.35,.23v-2.47c1.89-.15,3.06-.41,3.51-.76,.45-.36,.68-1.43,.68-3.23v-12.76c0-1.84-.33-3.18-1-4.04-.67-.86-1.71-1.29-3.13-1.29-1.55,0-2.93,.55-4.13,1.65-1.2,1.1-2.04,2.58-2.49,4.46v11.99c0,1.82,.23,2.91,.69,3.29,.46,.37,1.45,.6,2.95,.7v2.47c-2.24-.11-3.94-.19-5.1-.23-1.16-.04-2.12-.06-2.87-.06s-1.76,.02-2.97,.06c-1.21,.04-2.98,.11-5.32,.23v-2.47c1.89-.15,3.06-.41,3.5-.76,.44-.36,.66-1.43,.66-3.23v-12.76c0-1.78-.34-3.11-1.02-4-.68-.88-1.7-1.33-3.08-1.33-1.59,0-2.97,.54-4.16,1.63s-2.02,2.58-2.49,4.47v11.99c0,1.8,.21,2.88,.65,3.24,.42,.36,1.41,.61,2.94,.75v2.47c-2.39-.11-4.17-.19-5.33-.23-1.16-.04-2.1-.06-2.81-.06-.8,0-1.82,.02-3.05,.06-1.24,.04-3.04,.11-5.41,.23v-2.47c2.14-.19,3.44-.47,3.88-.85,.45-.37,.68-1.42,.68-3.14v-15.97Z"/><path class="d" d="M174.03,236.65c0-1.36-.25-2.23-.73-2.63-.49-.39-1.78-.61-3.89-.67v-2.47c2.7-.1,5.13-.21,7.3-.33,2.17-.13,4.16-.28,5.95-.45v4.88c1.19-1.57,2.56-2.77,4.12-3.61,1.55-.84,3.22-1.26,5-1.26,3.69,0,6.6,1.32,8.73,3.97,2.13,2.65,3.2,6.26,3.2,10.83s-1.07,7.93-3.21,10.5c-2.14,2.56-5.03,3.84-8.66,3.84-1.89,0-3.57-.33-5.04-.99-1.46-.67-2.78-1.68-3.97-3.06v10.81c0,1.8,.22,2.87,.66,3.22,.44,.36,1.91,.59,4.42,.71l-.03,2.52c-2.22-.11-4.04-.19-5.46-.23-1.43-.04-2.67-.06-3.75-.06-1.02,0-2.2,.02-3.57,.06-1.37,.04-3.13,.11-5.29,.23v-2.52c1.95-.17,3.14-.44,3.57-.8,.44-.36,.65-1.41,.65-3.13v-29.37Zm8.8,14.63c.63,1.28,1.45,2.27,2.45,2.95,1,.69,2.1,1.03,3.31,1.03,1.93,0,3.4-.95,4.39-2.85,.99-1.9,1.49-4.67,1.49-8.31,0-3.27-.47-5.75-1.41-7.44-.93-1.69-2.31-2.54-4.13-2.54-1.19,0-2.31,.37-3.36,1.1-1.05,.74-1.97,1.81-2.75,3.23v12.82Z"/><path class="d" d="M237.25,239.4v11.44c0,2.02,.15,3.28,.44,3.76,.3,.48,.84,.72,1.62,.72,.46,0,.88-.11,1.28-.34,.39-.23,.77-.59,1.13-1.06l1.46,1.12c-1.05,1.65-2.22,2.82-3.5,3.52-1.28,.69-2.88,1.04-4.79,1.04-1.76,0-3.14-.41-4.16-1.23s-1.57-1.99-1.66-3.5c-1.26,1.59-2.77,2.77-4.53,3.56s-3.79,1.18-6.08,1.18c-2.52,0-4.48-.6-5.86-1.79-1.39-1.2-2.08-2.88-2.08-5.06s.83-4.01,2.49-5.26c1.66-1.26,4.83-2.34,9.49-3.26,.82-.15,1.82-.33,3.01-.52,2.06-.33,3.1-.9,3.1-1.72v-3.41c0-2.14-.37-3.66-1.12-4.57-.75-.91-1.98-1.37-3.7-1.37-.96,0-1.84,.11-2.64,.34-.8,.23-1.49,.54-2.06,.95,.17,.65,.3,1.19,.37,1.62,.07,.42,.11,.81,.11,1.16,0,1.38-.38,2.47-1.13,3.28-.76,.81-1.78,1.22-3.06,1.22-1.05,0-1.9-.33-2.54-.98-.64-.65-.96-1.52-.96-2.61,0-2.1,1.25-3.88,3.76-5.33,2.51-1.45,5.71-2.18,9.61-2.18s6.99,.77,8.99,2.31c2,1.54,3,3.83,3,6.87v.11Zm-8.63,5.99c-3.79,.67-6.33,1.46-7.63,2.37-1.3,.91-1.95,2.21-1.95,3.91,0,1.3,.33,2.34,1,3.11,.67,.78,1.57,1.16,2.7,1.16s2.16-.32,3.17-.96c1-.64,1.9-1.58,2.71-2.8v-6.8Z"/><path class="d" d="M251.28,236.65c0-1.36-.24-2.23-.73-2.63-.48-.39-1.78-.61-3.88-.67v-2.47c2.58-.1,4.96-.21,7.13-.33,2.17-.13,4.19-.28,6.06-.45v6.71c1.19-2.22,2.7-3.89,4.53-5.02,1.84-1.13,3.99-1.69,6.45-1.69,3.23,0,5.62,.85,7.16,2.55,1.54,1.7,2.31,4.34,2.31,7.92v12.04c0,1.76,.22,2.83,.66,3.23,.44,.39,1.43,.64,2.98,.76v2.47c-2.2-.11-3.92-.19-5.14-.23-1.24-.04-2.24-.06-3.03-.06s-1.79,.02-3.03,.06c-1.23,.04-3.03,.11-5.4,.23v-2.47c1.95-.19,3.13-.46,3.54-.8,.41-.34,.61-1.41,.61-3.18v-12.16c0-2.14-.34-3.66-1.03-4.57-.69-.91-1.82-1.37-3.38-1.37-1.74,0-3.34,.75-4.79,2.24-1.45,1.49-2.18,2.95-2.18,4.39v11.47c0,1.8,.21,2.88,.63,3.24s1.41,.61,2.95,.75v2.47c-2.54-.11-4.36-.19-5.47-.23-1.1-.04-1.98-.06-2.65-.06-.82,0-1.9,.02-3.22,.06-1.33,.04-3.21,.11-5.64,.23v-2.47c2.14-.19,3.44-.47,3.88-.85,.45-.37,.68-1.42,.68-3.14v-15.97Zm21.34-19.04h1.92c-.46,2.39-1.19,4.16-2.21,5.32-1.02,1.15-2.33,1.73-3.96,1.73-.3,0-.6-.02-.89-.06s-.56-.1-.8-.17l-3.24-.83c-.38-.1-.72-.17-1.02-.21-.29-.05-.54-.07-.73-.07-.75,0-1.35,.22-1.82,.66-.47,.44-.81,1.1-1.02,1.98h-1.92c.44-2.37,1.16-4.15,2.18-5.33,1.02-1.19,2.32-1.78,3.93-1.78,.27,0,.57,.02,.92,.07,.34,.05,.73,.11,1.18,.21l3.36,.83c.06,.02,.1,.03,.14,.03,.52,.13,.9,.2,1.15,.2,.75,0,1.34-.2,1.76-.59,.44-.4,.79-1.06,1.08-2Z"/><path class="d" d="M319.52,243.99l-19.9,.17v.63c0,3.73,.76,6.56,2.28,8.5,1.53,1.94,3.73,2.91,6.64,2.91,2.06,0,3.84-.52,5.32-1.55,1.48-1.03,2.67-2.57,3.57-4.62l2.04,.63c-.9,3.04-2.47,5.29-4.7,6.74s-5.23,2.18-8.98,2.18c-4.7,0-8.44-1.32-11.21-3.97-2.77-2.65-4.16-6.22-4.16-10.71s1.38-7.98,4.14-10.71c2.76-2.72,6.41-4.08,10.94-4.08,4.24,0,7.64,1.19,10.2,3.58,2.55,2.39,3.83,5.56,3.83,9.52v.77Zm-8.09-2.55c-.04-3.02-.52-5.25-1.45-6.69-.92-1.45-2.35-2.17-4.26-2.17s-3.37,.79-4.43,2.38c-1.07,1.59-1.62,3.83-1.68,6.71l11.82-.23Z"/><path class="d" d="M346.72,232.75l.4-1.92h2.12v8.23h-2.12c-.34-1.99-1.14-3.52-2.4-4.6-1.25-1.08-2.85-1.62-4.8-1.62-1.68,0-3.02,.33-4,.99-.99,.65-1.48,1.54-1.48,2.65,0,1.82,2.11,3.36,6.34,4.62,.86,.25,1.53,.45,2.01,.6,3.08,.96,5.22,2.08,6.42,3.36,1.2,1.28,1.81,3.02,1.81,5.22,0,2.79-1.11,5.04-3.33,6.75-2.22,1.71-5.18,2.57-8.89,2.57-1.59,0-3.1-.22-4.53-.64-1.43-.44-2.78-1.08-4.04-1.94l-.54,1.72h-2.18c.02-.67,.06-1.57,.11-2.7s.09-1.89,.09-2.29v-4.53h2.21c.19,2.54,.95,4.46,2.28,5.75,1.32,1.3,3.21,1.94,5.66,1.94,1.82,0,3.21-.34,4.19-1.02,.98-.68,1.46-1.65,1.46-2.91,0-1.91-2.05-3.48-6.17-4.7-.34-.1-.6-.17-.77-.23-3.44-.99-5.88-2.17-7.31-3.54-1.43-1.37-2.15-3.14-2.15-5.32,0-2.66,1.02-4.83,3.05-6.53,2.04-1.69,4.68-2.54,7.93-2.54,1.78,0,3.37,.22,4.76,.64,1.39,.44,2.68,1.1,3.87,2Z"/></g><g><path class="d" d="M8.37,97.26c0-2.46-.44-4.05-1.32-4.75-.89-.71-3.23-1.12-7.05-1.22v-4.47c4.58-.17,8.8-.37,12.67-.6,3.87-.22,7.48-.49,10.84-.81v12.9c1.28-4.06,3.23-7.22,5.85-9.49,2.62-2.27,5.61-3.4,8.97-3.4s5.83,.86,7.73,2.57c1.89,1.72,2.84,4.07,2.84,7.04,0,2.25-.64,4.09-1.92,5.51-1.29,1.42-2.92,2.13-4.89,2.13-2.32,0-4.12-.65-5.38-1.95-1.26-1.3-1.9-3.16-1.9-5.59,0-.87,.11-1.72,.34-2.55s.58-1.73,1.07-2.7c-3.36,.42-6.17,2.7-8.42,6.84-2.25,4.14-3.38,9.25-3.38,15.31v14.2c0,3.19,.53,5.16,1.59,5.93,1.06,.76,4.2,1.19,9.44,1.3l.06,4.47c-3.5-.14-6.81-.24-9.94-.31-3.12-.07-6.03-.11-8.73-.11-1.94,0-4.37,.04-7.28,.11-2.91,.07-6.05,.17-9.41,.31v-4.47c3.67-.21,5.97-.65,6.89-1.32,.92-.68,1.38-2.64,1.38-5.9v-28.96Z"/><path class="d" d="M111.76,110.57l-36.08,.31v1.14c0,6.76,1.38,11.9,4.13,15.41,2.75,3.52,6.77,5.28,12.03,5.28,3.75,0,6.96-.93,9.65-2.8,2.69-1.87,4.84-4.67,6.47-8.37l3.69,1.15c-1.63,5.51-4.47,9.58-8.52,12.22-4.05,2.64-9.48,3.95-16.27,3.95-8.52,0-15.31-2.4-20.33-7.2-5.03-4.8-7.54-11.27-7.54-19.42s2.5-14.48,7.52-19.42c5.01-4.93,11.62-7.41,19.83-7.41,7.69,0,13.86,2.17,18.49,6.5,4.63,4.33,6.94,10.09,6.94,17.26v1.41Zm-14.66-4.63c-.07-5.48-.94-9.52-2.62-12.14-1.69-2.62-4.26-3.93-7.73-3.93s-6.11,1.44-8.03,4.32c-1.92,2.88-2.94,6.93-3.04,12.17l21.42-.41Z"/><path class="d" d="M178.54,84.89c.14,.41,.24,.88,.31,1.41,.07,.52,.11,1.07,.11,1.66,0,1.52-.29,2.68-.86,3.46-.57,.78-1.42,1.17-2.52,1.17-.8,0-1.94-.34-3.4-1.01-1.47-.68-2.5-1.02-3.1-1.02-.49,0-.94,.16-1.37,.47-.44,.31-.91,.83-1.43,1.56,1.31,1.49,2.29,3.11,2.91,4.86,.62,1.75,.94,3.67,.94,5.75,0,5.31-2.07,9.52-6.21,12.67-4.15,3.14-9.77,4.7-16.87,4.7h-4.68c-2.01,0-3.48,.29-4.4,.86-.92,.57-1.37,1.46-1.37,2.67,0,1.74,.89,2.97,2.67,3.69,1.79,.73,6.08,1.2,12.87,1.41,10.09,.31,16.99,1.54,20.72,3.67,3.72,2.14,5.59,5.59,5.59,10.37,0,5.86-2.84,10.54-8.5,14.04-5.67,3.5-13.27,5.25-22.8,5.25-7.28,0-12.99-1.11-17.14-3.33-4.14-2.22-6.21-5.21-6.21-8.99,0-2.7,.92-5.03,2.75-6.97,1.84-1.94,4.47-3.4,7.9-4.37-2.6-1.18-4.52-2.59-5.77-4.24-1.25-1.64-1.87-3.56-1.87-5.75s.73-4.28,2.19-5.98,3.82-3.29,7.07-4.78c-3.57-1.18-6.31-3.02-8.21-5.54-1.9-2.51-2.86-5.53-2.86-9.07,0-5.44,2.05-9.82,6.16-13.13,4.1-3.31,9.6-4.96,16.51-4.96,3.09,0,5.98,.42,8.68,1.27,2.7,.85,5.06,2.07,7.08,3.67,2.15-2.35,4.03-3.98,5.66-4.86,1.63-.89,3.4-1.33,5.3-1.33,.97,0,1.77,.06,2.39,.18,.62,.12,1.22,.31,1.77,.55Zm-41.8,56.88c-1.7,.76-2.97,1.7-3.8,2.84-.83,1.12-1.25,2.45-1.25,3.98,0,2.94,1.44,5.24,4.32,6.89,2.88,1.64,6.93,2.47,12.17,2.47,5.61,0,10.08-.82,13.39-2.47,3.31-1.65,4.96-3.84,4.96-6.58,0-3.78-5.11-5.86-15.34-6.24-5.93-.21-10.74-.51-14.45-.89Zm10.92-52.1c-2.95,0-5.14,1.06-6.58,3.2-1.44,2.13-2.16,5.4-2.16,9.8,0,4.72,.71,8.13,2.11,10.24,1.4,2.12,3.61,3.17,6.63,3.17s5.16-1.05,6.55-3.14c1.39-2.1,2.08-5.42,2.08-9.96s-.69-7.94-2.08-10.09c-1.39-2.15-3.57-3.22-6.55-3.22Z"/><path class="d" d="M236.53,102.26v20.75c0,3.67,.27,5.95,.81,6.81,.54,.87,1.52,1.3,2.94,1.3,.83,0,1.6-.21,2.31-.62,.71-.41,1.4-1.06,2.05-1.92l2.65,2.03c-1.91,2.99-4.02,5.1-6.35,6.37-2.32,1.27-5.21,1.9-8.68,1.9-3.19,0-5.7-.75-7.54-2.24-1.84-1.49-2.84-3.6-3.01-6.35-2.29,2.88-5.03,5.03-8.22,6.45-3.19,1.42-6.86,2.13-11.02,2.13-4.58,0-8.12-1.09-10.64-3.25-2.51-2.17-3.77-5.23-3.77-9.18s1.51-7.27,4.52-9.54c3.02-2.27,8.76-4.23,17.21-5.9,1.49-.27,3.31-.59,5.46-.94,3.75-.59,5.61-1.62,5.61-3.12v-6.19c0-3.88-.67-6.64-2.02-8.29-1.36-1.64-3.59-2.47-6.71-2.47-1.74,0-3.33,.21-4.78,.62-1.46,.41-2.7,.99-3.75,1.71,.31,1.18,.54,2.16,.67,2.94,.14,.78,.21,1.48,.21,2.1,0,2.5-.69,4.48-2.05,5.95-1.37,1.47-3.22,2.21-5.54,2.21-1.9,0-3.44-.59-4.6-1.77-1.16-1.18-1.74-2.75-1.74-4.73,0-3.81,2.27-7.03,6.81-9.67,4.54-2.64,10.35-3.95,17.42-3.95s12.68,1.4,16.3,4.18c3.62,2.79,5.43,6.94,5.43,12.45v.21Zm-15.65,10.87c-6.86,1.21-11.47,2.64-13.83,4.29-2.36,1.64-3.53,4.01-3.53,7.09,0,2.35,.61,4.24,1.82,5.64,1.21,1.41,2.84,2.11,4.89,2.11s3.92-.58,5.75-1.74c1.82-1.16,3.45-2.85,4.91-5.07v-12.32Z"/><path class="d" d="M261.51,70.07c0-2.19-.47-3.63-1.41-4.34-.94-.71-3.4-1.1-7.38-1.17v-4.57c3.85-.11,7.86-.27,12.03-.49,4.18-.22,8.42-.49,12.72-.81V126.22c0,3.36,.45,5.38,1.35,6.06,.91,.67,3,1.06,6.3,1.17l.05,4.47c-4.61-.21-8.05-.34-10.32-.42-2.27-.07-4.12-.1-5.53-.1s-3.28,.03-5.56,.1c-2.29,.07-5.58,.21-9.88,.42v-4.47c3.4-.21,5.52-.69,6.37-1.43s1.27-2.68,1.27-5.8v-56.16Z"/><path class="d" d="M323.47,85.41c8.32,0,14.99,2.44,20.02,7.31,5.03,4.87,7.54,11.34,7.54,19.42s-2.59,14.25-7.77,19.24c-5.18,4.99-11.78,7.49-19.78,7.49s-15.01-2.44-20.07-7.33c-5.06-4.89-7.59-11.35-7.59-19.4s2.61-14.16,7.83-19.18c5.21-5.02,11.83-7.54,19.83-7.54Zm-.21,4.47c-3.53,0-6.2,1.87-7.98,5.61-1.78,3.75-2.67,9.29-2.67,16.64s.89,13.07,2.67,16.74c1.79,3.68,4.48,5.51,8.09,5.51s6.46-1.83,8.27-5.49c1.8-3.65,2.7-9.24,2.7-16.77s-.91-13.15-2.73-16.79c-1.82-3.64-4.6-5.46-8.35-5.46Z"/></g></g></g></g></svg>