<?xml version="1.0" encoding="UTF-8"?><svg xmlns="http://www.w3.org/2000/svg" viewBox="0 0 475.86 76"><defs><style>.d{fill:#844535;}</style></defs><g id="a"/><g id="b"><g id="c"><g><path class="d" d="M28.27,4.12l.33-1.81h1.52V11.35h-1.64c-.22-2.42-.98-4.31-2.3-5.65s-3.02-2.02-5.13-2.02c-1.56,0-2.81,.43-3.75,1.29-.94,.86-1.42,2-1.42,3.41,0,1.2,.33,2.17,1,2.89,.67,.72,2.33,1.58,4.97,2.56,4.06,1.49,6.7,2.91,7.92,4.26,1.22,1.35,1.83,3.15,1.83,5.41,0,2.74-1.01,4.92-3.03,6.55-2.02,1.63-4.74,2.44-8.16,2.44-1.79,0-3.43-.27-4.9-.81-1.48-.54-2.85-1.37-4.12-2.49l-.51,2.3h-1.46v-10.24h1.7c.19,2.86,1.07,5.11,2.63,6.76s3.58,2.47,6.07,2.47c1.57,0,2.8-.41,3.68-1.23,.88-.82,1.32-1.95,1.32-3.39,0-1.27-.35-2.28-1.04-3.04-.69-.75-2.06-1.5-4.09-2.26-.31-.12-.79-.3-1.44-.53-2.63-.94-4.51-1.83-5.66-2.67-1.19-.86-2.06-1.84-2.62-2.93-.55-1.09-.83-2.37-.83-3.84,0-2.79,.98-4.99,2.93-6.61,1.96-1.61,4.65-2.42,8.08-2.42,1.53,0,2.98,.22,4.34,.65s2.62,1.07,3.77,1.92Z"/><path class="d" d="M56.48,18.04v8.19c0,1.45,.11,2.35,.32,2.69,.21,.34,.6,.51,1.16,.51,.33,0,.63-.08,.91-.25s.55-.42,.81-.76l1.05,.8c-.75,1.18-1.59,2.01-2.5,2.51-.92,.5-2.06,.75-3.43,.75-1.26,0-2.25-.29-2.98-.88-.72-.59-1.12-1.42-1.19-2.5-.9,1.14-1.98,1.98-3.24,2.54-1.26,.56-2.71,.84-4.35,.84-1.81,0-3.2-.43-4.2-1.28-.99-.85-1.49-2.06-1.49-3.62s.59-2.87,1.79-3.76c1.19-.9,3.45-1.67,6.79-2.33,.59-.11,1.31-.23,2.15-.37,1.48-.23,2.22-.64,2.22-1.23v-2.44c0-1.53-.27-2.62-.8-3.27s-1.42-.97-2.65-.97c-.68,0-1.31,.08-1.89,.25-.57,.16-1.07,.39-1.48,.68,.12,.47,.21,.85,.27,1.16,.05,.31,.08,.58,.08,.83,0,.98-.27,1.77-.81,2.35-.54,.58-1.27,.87-2.19,.87-.75,0-1.36-.23-1.82-.7s-.69-1.09-.69-1.87c0-1.5,.9-2.78,2.69-3.82,1.79-1.04,4.08-1.56,6.87-1.56s5,.55,6.43,1.65c1.43,1.1,2.14,2.74,2.14,4.92v.08Zm-6.18,4.29c-2.71,.48-4.53,1.04-5.46,1.69s-1.4,1.58-1.4,2.8c0,.93,.24,1.67,.72,2.23,.48,.55,1.12,.83,1.93,.83s1.55-.23,2.27-.69c.72-.46,1.36-1.12,1.94-2v-4.86Zm2.48-16.72l-6.5,3.49h-2.03l5.68-6.09c.53-.59,1.03-1.02,1.49-1.28,.46-.27,.91-.4,1.36-.4,.56,0,1.03,.19,1.41,.56,.38,.38,.56,.84,.56,1.41,0,.45-.15,.86-.44,1.21s-.8,.72-1.53,1.11Z"/><path class="d" d="M65.43,5.33c0-.88-.17-1.45-.52-1.72s-1.15-.42-2.41-.45V1.35c1.49-.04,3.01-.1,4.54-.18s3.1-.19,4.69-.33V14.63c.92-1.11,1.89-1.93,2.92-2.45,1.03-.53,2.18-.79,3.44-.79,2.46,0,4.48,.94,6.06,2.81,1.58,1.88,2.37,4.29,2.37,7.24,0,3.35-.88,6.03-2.65,8.03s-4.1,3.01-7.02,3.01c-1.87,0-3.86-.6-5.97-1.81-.62-.36-1.01-.53-1.17-.53-.22,0-.57,.19-1.05,.56-.48,.38-1.11,.97-1.89,1.77h-1.35V5.33Zm6.3,13.03v9.89c.53,.67,1.14,1.19,1.82,1.55s1.38,.54,2.1,.54c1.52,0,2.61-.64,3.26-1.91,.66-1.27,.98-3.43,.98-6.46,0-2.71-.33-4.68-.97-5.91-.65-1.23-1.69-1.85-3.11-1.85-.94,0-1.81,.39-2.59,1.17-.78,.78-1.28,1.77-1.5,2.98Z"/><path class="d" d="M98.56,0h4.25V42.02h-4.25V0Z"/><path class="d" d="M126.37,2.36c3.49,0,6.3,1.37,8.43,4.11,2.13,2.74,3.2,6.39,3.2,10.93s-1.09,8.14-3.27,10.92-5,4.17-8.44,4.17-6.28-1.37-8.4-4.11c-2.13-2.74-3.19-6.4-3.19-10.97s1.08-8.13,3.25-10.9,4.98-4.15,8.42-4.15Zm.04,1.97c-1.67,0-2.95,1.17-3.84,3.51-.89,2.34-1.33,5.71-1.33,10.12,0,4.14,.42,7.27,1.26,9.39,.84,2.11,2.09,3.17,3.75,3.17s2.91-1.14,3.82-3.42c.9-2.28,1.35-5.5,1.35-9.66,0-4.42-.41-7.71-1.24-9.87-.83-2.16-2.08-3.24-3.77-3.24Z"/><path class="d" d="M160.46,5.77c-.45-.46-1-.81-1.63-1.05-.64-.23-1.39-.35-2.25-.35-2.26,0-3.97,1.07-5.14,3.21-1.17,2.14-1.82,5.4-1.96,9.78,1.05-1.11,2.21-1.95,3.46-2.51,1.25-.57,2.6-.85,4.03-.85,2.78,0,5.01,.79,6.7,2.36,1.69,1.57,2.53,3.65,2.53,6.22,0,3.06-.98,5.48-2.93,7.25s-4.62,2.66-7.98,2.66c-3.97,0-7.01-1.2-9.13-3.6-2.12-2.4-3.18-5.83-3.18-10.29,0-4.94,1.18-8.88,3.54-11.82,2.36-2.94,5.49-4.41,9.39-4.41,2.68,0,4.91,.61,6.68,1.83,1.77,1.22,2.66,2.7,2.66,4.43,0,.83-.24,1.51-.73,2.03-.49,.52-1.11,.78-1.88,.78-.85,0-1.54-.29-2.06-.87-.53-.58-.79-1.34-.79-2.27,0-.36,.05-.74,.16-1.15s.28-.87,.51-1.38Zm-10.9,13.83v1.09c0,3.24,.46,5.68,1.38,7.31,.92,1.63,2.28,2.44,4.08,2.44,1.56,0,2.78-.65,3.65-1.94,.88-1.29,1.31-3.09,1.31-5.41,0-2.11-.41-3.73-1.24-4.86-.83-1.14-2.01-1.7-3.54-1.7-.97,0-1.91,.25-2.82,.75-.91,.5-1.85,1.28-2.82,2.33Z"/><path class="d" d="M178.16,0h4.25V42.02h-4.25V0Z"/><path class="d" d="M205.13,1.56h3.69l9.71,26.43c.31,.82,.69,1.38,1.14,1.67s1.17,.46,2.19,.48v1.97c-1.86-.08-3.29-.14-4.3-.16-1-.03-1.83-.04-2.47-.04s-1.45,.01-2.47,.04c-1.02,.03-2.52,.08-4.5,.16l.02-1.97c1.18-.08,1.95-.22,2.33-.42,.38-.2,.56-.54,.56-1.02,0-.27,0-.47-.02-.58s-.03-.21-.06-.28l-2.16-6.24h-8.7l-1.85,5.21-.04,.14c-.27,.82-.41,1.42-.41,1.79,0,.48,.17,.82,.51,1.02s1.02,.33,2.03,.38l.02,1.97c-1.18-.08-2.07-.14-2.68-.16s-1.1-.04-1.49-.04-.85,.01-1.44,.04-1.46,.08-2.61,.16v-1.97c.94-.03,1.62-.18,2.03-.45s.8-.91,1.17-1.91L205.13,1.56Zm-.64,7.45l-3.73,10.55h7.3l-3.57-10.55Z"/><path class="d" d="M245.97,11.18c.05,.16,.09,.35,.12,.55,.03,.21,.04,.42,.04,.66,0,.6-.11,1.06-.34,1.37-.23,.31-.56,.46-1,.46-.32,0-.76-.13-1.34-.4-.58-.27-.99-.4-1.22-.4-.19,0-.37,.06-.54,.18s-.36,.33-.56,.62c.52,.59,.9,1.23,1.15,1.92,.25,.69,.37,1.45,.37,2.27,0,2.09-.82,3.76-2.45,5-1.63,1.24-3.85,1.86-6.66,1.86h-1.85c-.79,0-1.37,.11-1.73,.34-.36,.23-.54,.58-.54,1.06,0,.68,.35,1.17,1.06,1.46,.7,.29,2.4,.47,5.08,.55,3.98,.12,6.71,.61,8.18,1.45,1.47,.84,2.21,2.21,2.21,4.09,0,2.31-1.12,4.16-3.35,5.54-2.24,1.38-5.24,2.07-9,2.07-2.87,0-5.13-.44-6.76-1.31-1.63-.88-2.45-2.06-2.45-3.55,0-1.07,.36-1.98,1.09-2.75,.73-.77,1.76-1.34,3.12-1.72-1.03-.46-1.79-1.02-2.28-1.67s-.74-1.41-.74-2.27,.29-1.69,.86-2.36c.57-.67,1.5-1.3,2.79-1.89-1.41-.46-2.49-1.19-3.24-2.18-.75-.99-1.13-2.19-1.13-3.58,0-2.15,.81-3.88,2.43-5.18,1.62-1.31,3.79-1.96,6.51-1.96,1.22,0,2.36,.17,3.43,.5,1.07,.33,2,.82,2.79,1.45,.85-.93,1.59-1.57,2.24-1.92,.64-.35,1.34-.52,2.09-.52,.38,0,.7,.02,.94,.07s.48,.12,.7,.22Zm-16.5,22.45c-.67,.3-1.17,.67-1.5,1.12s-.49,.97-.49,1.57c0,1.16,.57,2.07,1.7,2.72,1.13,.65,2.74,.97,4.8,.97,2.22,0,3.98-.33,5.28-.97,1.31-.65,1.96-1.52,1.96-2.6,0-1.49-2.02-2.31-6.05-2.46-2.34-.08-4.24-.2-5.7-.35Zm4.31-20.56c-1.16,0-2.03,.42-2.6,1.26-.57,.84-.85,2.13-.85,3.87,0,1.86,.28,3.21,.83,4.04,.55,.83,1.43,1.25,2.62,1.25s2.04-.41,2.59-1.24c.55-.83,.82-2.14,.82-3.93s-.27-3.13-.82-3.98c-.55-.85-1.41-1.27-2.59-1.27Z"/><path class="d" d="M260.75,11.39c3.28,0,5.92,.96,7.9,2.88s2.98,4.48,2.98,7.66-1.02,5.62-3.07,7.59c-2.04,1.97-4.65,2.96-7.81,2.96s-5.92-.96-7.92-2.89c-2-1.93-3-4.48-3-7.65s1.03-5.59,3.09-7.57c2.06-1.98,4.67-2.97,7.83-2.97Zm-.08,1.76c-1.4,0-2.45,.74-3.15,2.22-.71,1.48-1.06,3.67-1.06,6.57s.35,5.16,1.06,6.61c.7,1.45,1.77,2.17,3.19,2.17s2.55-.72,3.26-2.17c.71-1.44,1.07-3.65,1.07-6.62s-.36-5.19-1.08-6.63c-.72-1.44-1.82-2.15-3.29-2.15Z"/><path class="d" d="M283.5,0h4.25V42.02h-4.25V0Z"/><path class="d" d="M305.42,27.58c.77-.26,1.58-.45,2.43-.57,.86-.12,1.93-.18,3.21-.18,1.15,0,2.51,.03,4.09,.1,1.58,.07,2.58,.1,3.01,.1,1.48,0,2.41-1.23,2.79-3.69,.08-.52,.14-.92,.18-1.21h1.68c-.11,1.23-.26,2.66-.46,4.29s-.46,3.56-.77,5.79c-.68,.04-1.33,.07-1.95,.09-.62,.02-1.21,.03-1.79,.03-1.42,0-3.52-.07-6.29-.21-2.77-.14-4.83-.21-6.19-.21-.85,0-1.75,.03-2.71,.09-.96,.06-1.96,.15-3,.28l-.31-.41c.7-1.34,1.51-2.57,2.45-3.68,.94-1.11,2.04-2.17,3.31-3.17l.7-.55c5.79-4.58,8.68-8.81,8.68-12.68,0-2.22-.54-3.92-1.61-5.11s-2.6-1.79-4.57-1.79c-1.66,0-3.04,.46-4.17,1.36-1.12,.91-1.78,2.11-1.97,3.6,1.14,.14,2.06,.53,2.78,1.18,.72,.65,1.08,1.42,1.08,2.31,0,.83-.24,1.5-.71,1.99-.47,.49-1.11,.74-1.9,.74-1.15,0-2.1-.44-2.84-1.32-.75-.88-1.12-2.03-1.12-3.44,0-2.6,1-4.74,3.01-6.42s4.58-2.52,7.73-2.52c3.31,0,5.94,.79,7.9,2.38,1.96,1.59,2.93,3.71,2.93,6.36,0,2.27-.65,4.27-1.95,6s-3.94,3.81-7.92,6.23c-.25,.15-.6,.37-1.07,.66-2.54,1.52-4.11,2.72-4.7,3.59Z"/><path class="d" d="M333.66,27.58c.77-.26,1.58-.45,2.43-.57,.86-.12,1.93-.18,3.21-.18,1.15,0,2.51,.03,4.09,.1,1.58,.07,2.58,.1,3.01,.1,1.48,0,2.41-1.23,2.79-3.69,.08-.52,.14-.92,.18-1.21h1.68c-.11,1.23-.26,2.66-.46,4.29s-.46,3.56-.77,5.79c-.68,.04-1.33,.07-1.95,.09-.62,.02-1.21,.03-1.79,.03-1.42,0-3.52-.07-6.29-.21-2.77-.14-4.83-.21-6.19-.21-.85,0-1.75,.03-2.71,.09-.96,.06-1.96,.15-3,.28l-.31-.41c.7-1.34,1.51-2.57,2.45-3.68,.94-1.11,2.04-2.17,3.31-3.17l.7-.55c5.79-4.58,8.68-8.81,8.68-12.68,0-2.22-.54-3.92-1.61-5.11s-2.6-1.79-4.57-1.79c-1.66,0-3.04,.46-4.17,1.36-1.12,.91-1.78,2.11-1.97,3.6,1.14,.14,2.06,.53,2.78,1.18,.72,.65,1.08,1.42,1.08,2.31,0,.83-.24,1.5-.71,1.99-.47,.49-1.11,.74-1.9,.74-1.15,0-2.1-.44-2.84-1.32-.75-.88-1.12-2.03-1.12-3.44,0-2.6,1-4.74,3.01-6.42s4.58-2.52,7.73-2.52c3.31,0,5.94,.79,7.9,2.38,1.96,1.59,2.93,3.71,2.93,6.36,0,2.27-.65,4.27-1.95,6s-3.94,3.81-7.92,6.23c-.25,.15-.6,.37-1.07,.66-2.54,1.52-4.11,2.72-4.7,3.59Z"/><path class="d" d="M363.1,0h4.25V42.02h-4.25V0Z"/><path class="d" d="M397.85,2.4V20.48h3.98v3.53h-3.98v4.1c0,.98,.14,1.59,.42,1.82,.28,.23,1.05,.34,2.31,.34v1.85c-1.23-.05-2.36-.1-3.4-.12s-1.86-.04-2.49-.04c-1,0-2.83,.04-5.5,.12-.63,.01-1.12,.03-1.48,.04v-1.85h1.15c1.27,0,2.07-.13,2.38-.4s.47-.87,.47-1.79v-4.06h-12.66l.18-2.63c.01-.46,.22-.96,.62-1.48,.07-.1,.12-.16,.14-.21l11.98-16.25c.92-.01,1.86-.11,2.83-.28,.97-.17,1.98-.43,3.04-.77Zm-5.93,4.21l-10.16,14.16h10.03l.12-14.16Z"/><path class="d" d="M409.75,16.07c0-.97-.17-1.6-.52-1.88-.35-.28-1.28-.44-2.78-.48v-1.76c1.93-.07,3.67-.15,5.22-.24,1.55-.09,2.97-.19,4.26-.32v3.49c.85-1.12,1.83-1.98,2.94-2.59,1.12-.6,2.31-.9,3.58-.9,2.64,0,4.72,.95,6.25,2.84s2.29,4.48,2.29,7.75-.77,5.68-2.3,7.51c-1.53,1.83-3.6,2.75-6.2,2.75-1.35,0-2.55-.24-3.6-.71-1.05-.47-1.99-1.2-2.84-2.19v7.74c0,1.29,.16,2.05,.47,2.31,.31,.25,1.37,.42,3.16,.5l-.02,1.81c-1.59-.08-2.89-.14-3.91-.16-1.02-.03-1.91-.04-2.68-.04-.72,0-1.58,.01-2.55,.04-.98,.03-2.24,.08-3.79,.16v-1.81c1.4-.12,2.25-.32,2.55-.58,.31-.26,.46-1,.46-2.24V16.07Zm6.3,10.47c.45,.92,1.04,1.62,1.75,2.11,.72,.49,1.51,.74,2.37,.74,1.38,0,2.43-.68,3.14-2.04s1.07-3.34,1.07-5.94c0-2.34-.34-4.11-1.01-5.33s-1.66-1.82-2.95-1.82c-.85,0-1.65,.26-2.4,.79-.75,.53-1.41,1.3-1.97,2.31v9.17Z"/><path class="d" d="M438.51,16.07c0-.97-.17-1.6-.52-1.88-.35-.28-1.28-.44-2.78-.48v-1.76c1.85-.07,3.53-.15,5.04-.24,1.51-.09,2.91-.19,4.2-.32v4.49c.94-1.45,2.06-2.56,3.35-3.33,1.29-.77,2.7-1.16,4.22-1.16,1.79,0,3.21,.38,4.26,1.15,1.05,.77,1.67,1.88,1.88,3.34,.96-1.52,2.05-2.65,3.29-3.39,1.24-.74,2.66-1.11,4.28-1.11,2.09,0,3.68,.6,4.76,1.79,1.08,1.2,1.62,2.95,1.62,5.26v9.25c0,1.19,.16,1.91,.47,2.17,.31,.25,1,.41,2.07,.48l.02,1.76c-1.6-.08-2.82-.14-3.65-.16-.83-.03-1.53-.04-2.07-.04s-1.23,.01-2.1,.04c-.87,.03-2.14,.08-3.83,.16v-1.76c1.35-.11,2.19-.29,2.51-.54s.48-1.02,.48-2.31v-9.13c0-1.31-.24-2.28-.72-2.89s-1.22-.92-2.24-.92c-1.11,0-2.09,.39-2.96,1.18-.86,.79-1.46,1.85-1.79,3.19v8.58c0,1.3,.16,2.08,.49,2.35,.33,.27,1.03,.43,2.11,.5v1.76c-1.6-.08-2.82-.14-3.65-.16-.83-.03-1.52-.04-2.05-.04s-1.25,.01-2.12,.04c-.87,.03-2.14,.08-3.81,.16v-1.76c1.35-.11,2.19-.29,2.5-.54s.47-1.02,.47-2.31v-9.13c0-1.27-.24-2.23-.73-2.86-.49-.64-1.22-.95-2.21-.95-1.14,0-2.13,.39-2.98,1.17-.85,.78-1.44,1.85-1.79,3.2v8.58c0,1.29,.15,2.06,.46,2.32,.31,.26,1.01,.44,2.1,.53v1.76c-1.71-.08-2.98-.14-3.82-.16s-1.5-.04-2.01-.04c-.57,0-1.3,.01-2.19,.04-.88,.03-2.17,.08-3.87,.16v-1.76c1.53-.14,2.46-.34,2.78-.61,.32-.27,.48-1.02,.48-2.25v-11.43Z"/></g><g><path class="d" d="M0,50.62c.96,.06,1.83,.1,2.62,.13,.79,.03,1.5,.04,2.13,.04s1.32-.01,2.13-.04c.8-.03,1.71-.07,2.71-.13v1.33c-1.04,.04-1.71,.16-1.99,.38-.28,.21-.42,.8-.42,1.75v5.44h7.93v-5.07c0-1.09-.14-1.78-.43-2.06-.28-.28-.94-.43-1.98-.45v-1.33c.94,.06,1.81,.1,2.61,.13,.8,.03,1.51,.04,2.15,.04,.6,0,1.3-.01,2.11-.04,.81-.03,1.72-.07,2.74-.13v1.34c-1.04,0-1.71,.14-1.99,.43-.28,.29-.42,.97-.42,2.06v12.9c0,1.1,.14,1.79,.43,2.07,.28,.28,.94,.42,1.98,.42v1.34c-1.04-.06-1.95-.1-2.74-.13s-1.46-.04-2.02-.04-1.23,.01-2.04,.04-1.74,.07-2.8,.13v-1.34c1.04,0,1.71-.14,1.99-.43,.28-.29,.42-.97,.42-2.06v-6.42H7.19v6.56c0,1.13,.13,1.8,.4,2.01s.93,.32,2.01,.34v1.34c-1.02-.06-1.92-.1-2.71-.13s-1.46-.04-2.02-.04-1.21,.01-2.02,.04-1.76,.07-2.85,.13v-1.34c1.04-.02,1.7-.16,1.99-.43,.29-.27,.44-.92,.44-1.95v-13.45c0-.9-.14-1.47-.42-1.69-.28-.22-.95-.35-2.01-.36v-1.34Z"/><path class="d" d="M33.18,57.05c2.24,0,4.03,.66,5.39,1.97s2.03,3.05,2.03,5.23-.7,3.83-2.09,5.18c-1.39,1.34-3.17,2.01-5.32,2.01s-4.04-.66-5.4-1.97c-1.36-1.32-2.04-3.05-2.04-5.22s.7-3.81,2.11-5.16c1.4-1.35,3.18-2.03,5.34-2.03Zm-.06,1.2c-.95,0-1.67,.5-2.15,1.51-.48,1.01-.72,2.5-.72,4.48s.24,3.52,.72,4.5c.48,.99,1.21,1.48,2.18,1.48s1.74-.49,2.22-1.48c.48-.98,.73-2.49,.73-4.51s-.25-3.54-.74-4.52c-.49-.98-1.24-1.47-2.25-1.47Z"/><path class="d" d="M48.71,53.25h1.26l-.11,4.49h3.46v1.27h-3.48l-.24,8.04v.35c0,.79,.13,1.36,.38,1.69s.67,.5,1.25,.5c.4,0,.75-.12,1.04-.35s.55-.59,.76-1.08l.91,.41c-.33,.95-.86,1.67-1.59,2.14-.74,.48-1.67,.71-2.81,.71-1.48,0-2.56-.36-3.22-1.09-.66-.73-.99-1.93-.99-3.62v-.41l.2-7.3h-1.54v-1.01c1.29-.44,2.32-1.05,3.1-1.83,.78-.78,1.32-1.76,1.63-2.92Z"/><path class="d" d="M71.23,63.82l-9.71,.08v.31c0,1.82,.37,3.2,1.11,4.15,.74,.95,1.82,1.42,3.24,1.42,1.01,0,1.87-.25,2.6-.75,.72-.5,1.3-1.25,1.74-2.25l.99,.31c-.44,1.48-1.2,2.58-2.29,3.29-1.09,.71-2.55,1.06-4.38,1.06-2.29,0-4.12-.65-5.47-1.94s-2.03-3.03-2.03-5.23,.67-3.9,2.02-5.23c1.35-1.33,3.13-1.99,5.34-1.99,2.07,0,3.73,.58,4.97,1.75,1.25,1.17,1.87,2.71,1.87,4.64v.38Zm-3.95-1.25c-.02-1.47-.25-2.56-.71-3.27-.45-.7-1.15-1.06-2.08-1.06s-1.64,.39-2.16,1.16c-.52,.77-.79,1.87-.82,3.27l5.76-.11Z"/><path class="d" d="M76.2,52.92c0-.59-.13-.98-.38-1.17-.25-.19-.91-.3-1.99-.31v-1.23c1.04-.03,2.11-.07,3.24-.13,1.12-.06,2.26-.13,3.42-.22v18.17c0,.91,.12,1.45,.36,1.63,.24,.18,.81,.29,1.69,.31v1.2c-1.23-.06-2.15-.09-2.76-.11-.61-.02-1.11-.03-1.49-.03s-.88,0-1.5,.03c-.62,.02-1.5,.06-2.66,.11v-1.2c.91-.06,1.49-.18,1.71-.38s.34-.72,.34-1.56v-15.11Z"/><path class="d" d="M95.91,50.62c.6,.04,1.22,.07,1.88,.08,.66,.02,1.38,.03,2.16,.03,1.34,0,2.7-.02,4.06-.06,1.36-.04,2.05-.06,2.07-.06,2.42,0,4.22,.41,5.41,1.24,1.19,.83,1.78,2.08,1.78,3.77,0,1.52-.47,2.7-1.4,3.53-.93,.83-2.34,1.34-4.23,1.5,2.11,.13,3.71,.63,4.82,1.49,1.11,.86,1.66,2.05,1.66,3.56,0,1.91-.63,3.3-1.88,4.17-1.25,.87-3.29,1.3-6.11,1.3-.59,0-1.54-.02-2.85-.06s-2.33-.06-3.05-.06c-.93,0-2.35,.04-4.24,.11h-.08v-1.34c1.05,0,1.72-.14,2.01-.43,.28-.29,.43-.97,.43-2.06v-12.9c0-1.08-.15-1.76-.43-2.05-.29-.28-.96-.43-2-.44v-1.34Zm7.11,1.43v7.96h1.69c1.36,0,2.33-.31,2.91-.93,.58-.62,.87-1.65,.87-3.1s-.29-2.47-.87-3.06c-.58-.58-1.64-.87-3.18-.87h-1.43Zm0,9.35v8.37h1.75c1.64,0,2.77-.32,3.39-.97s.93-1.79,.93-3.46c0-1.42-.32-2.43-.96-3.04s-1.72-.91-3.25-.91h-1.86Z"/><path class="d" d="M119.37,60.24c0-.65-.11-1.07-.33-1.26s-.81-.3-1.78-.35v-1.2c1.31-.05,2.48-.1,3.53-.16,1.05-.06,2.01-.13,2.88-.22v9.75c0,1,.18,1.7,.53,2.12,.35,.42,.93,.62,1.73,.62,.73,0,1.37-.18,1.94-.55s1.02-.9,1.36-1.59v-7.16c0-.65-.11-1.07-.34-1.26-.22-.19-.82-.31-1.79-.36v-1.19c1.29-.05,2.46-.1,3.5-.16,1.05-.06,2.02-.13,2.92-.22v11.09c0,.8,.09,1.29,.28,1.45s.64,.26,1.36,.3v1.2h-1.44c-.71,0-1.42,0-2.15,.02-.72,.01-1.46,.03-2.2,.06l-.08-2c-.59,.75-1.32,1.31-2.2,1.69-.88,.38-1.91,.57-3.07,.57-1.55,0-2.71-.41-3.48-1.23-.77-.82-1.16-2.05-1.16-3.69v-6.27Z"/><path class="d" d="M152.74,63.82l-9.71,.08v.31c0,1.82,.37,3.2,1.11,4.15,.74,.95,1.82,1.42,3.24,1.42,1.01,0,1.87-.25,2.6-.75,.72-.5,1.3-1.25,1.74-2.25l.99,.31c-.44,1.48-1.2,2.58-2.29,3.29-1.09,.71-2.55,1.06-4.38,1.06-2.29,0-4.12-.65-5.47-1.94s-2.03-3.03-2.03-5.23,.67-3.9,2.02-5.23c1.35-1.33,3.13-1.99,5.34-1.99,2.07,0,3.73,.58,4.97,1.75,1.25,1.17,1.87,2.71,1.87,4.64v.38Zm-3.95-1.25c-.02-1.47-.25-2.56-.71-3.27-.45-.7-1.15-1.06-2.08-1.06s-1.64,.39-2.16,1.16c-.52,.77-.79,1.87-.82,3.27l5.76-.11Z"/><path class="d" d="M157.84,60.24c0-.66-.12-1.09-.36-1.28-.24-.19-.87-.3-1.9-.33v-1.2c1.26-.05,2.42-.1,3.48-.16s2.04-.13,2.96-.22v3.27c.58-1.08,1.31-1.9,2.21-2.45,.9-.55,1.95-.83,3.15-.83,1.58,0,2.74,.42,3.49,1.25s1.13,2.12,1.13,3.86v5.88c0,.86,.11,1.38,.32,1.57,.21,.19,.7,.32,1.46,.37v1.2c-1.07-.06-1.91-.09-2.51-.11-.6-.02-1.09-.03-1.48-.03s-.87,0-1.48,.03c-.6,.02-1.48,.06-2.64,.11v-1.2c.95-.09,1.53-.22,1.73-.39,.2-.17,.3-.69,.3-1.55v-5.93c0-1.04-.17-1.79-.5-2.23-.34-.44-.89-.67-1.65-.67-.85,0-1.63,.36-2.34,1.09-.71,.73-1.06,1.44-1.06,2.14v5.6c0,.88,.1,1.4,.31,1.58,.21,.18,.69,.3,1.44,.36v1.2c-1.24-.06-2.13-.09-2.67-.11-.54-.02-.97-.03-1.29-.03-.4,0-.93,0-1.57,.03-.65,.02-1.56,.06-2.75,.11v-1.2c1.04-.09,1.68-.23,1.9-.41,.22-.18,.33-.69,.33-1.53v-7.79Z"/><path class="d" d="M184.37,57.05c2.24,0,4.03,.66,5.39,1.97s2.03,3.05,2.03,5.23-.7,3.83-2.09,5.18c-1.39,1.34-3.17,2.01-5.32,2.01s-4.04-.66-5.4-1.97c-1.36-1.32-2.04-3.05-2.04-5.22s.7-3.81,2.11-5.16c1.4-1.35,3.18-2.03,5.34-2.03Zm-.06,1.2c-.95,0-1.67,.5-2.15,1.51-.48,1.01-.72,2.5-.72,4.48s.24,3.52,.72,4.5c.48,.99,1.21,1.48,2.18,1.48s1.74-.49,2.22-1.48c.48-.98,.73-2.49,.73-4.51s-.25-3.54-.74-4.52c-.49-.98-1.24-1.47-2.25-1.47Z"/><path class="d" d="M204.97,58.34l.2-.94h1.04v4.02h-1.04c-.17-.97-.56-1.72-1.17-2.25-.61-.53-1.39-.79-2.34-.79-.82,0-1.47,.16-1.95,.48-.48,.32-.72,.75-.72,1.29,0,.89,1.03,1.64,3.09,2.25,.42,.12,.75,.22,.98,.29,1.5,.47,2.55,1.01,3.13,1.64,.59,.62,.88,1.47,.88,2.55,0,1.36-.54,2.46-1.62,3.29s-2.53,1.25-4.34,1.25c-.77,0-1.51-.11-2.21-.31-.7-.21-1.36-.53-1.97-.95l-.27,.84h-1.06c0-.33,.03-.76,.06-1.32,.03-.55,.04-.92,.04-1.12v-2.21h1.08c.09,1.24,.46,2.17,1.11,2.8s1.57,.94,2.76,.94c.89,0,1.57-.17,2.04-.5s.71-.8,.71-1.42c0-.93-1-1.7-3.01-2.29-.17-.05-.29-.08-.38-.11-1.68-.48-2.87-1.06-3.57-1.73s-1.05-1.53-1.05-2.6c0-1.3,.5-2.36,1.49-3.18s2.28-1.24,3.87-1.24c.87,0,1.64,.1,2.32,.31,.68,.21,1.31,.53,1.89,.97Z"/><path class="d" d="M228.39,50.35h2.52l6.62,18.02c.21,.56,.47,.94,.78,1.14,.3,.2,.8,.31,1.49,.33v1.34c-1.27-.06-2.25-.09-2.93-.11-.69-.02-1.25-.03-1.69-.03s-.99,0-1.69,.03c-.69,.02-1.72,.06-3.07,.11v-1.34c.82-.06,1.34-.15,1.6-.29,.26-.13,.38-.37,.38-.69,0-.19,0-.32-.01-.4,0-.08-.02-.14-.04-.19l-1.47-4.25h-5.93l-1.26,3.55-.03,.1c-.19,.56-.28,.97-.28,1.22,0,.33,.12,.56,.35,.69,.23,.13,.69,.22,1.38,.26v1.34c-.79-.06-1.4-.09-1.81-.11-.42-.02-.75-.03-1.01-.03s-.58,0-.98,.03c-.4,.02-.99,.06-1.78,.11v-1.34c.64-.02,1.1-.12,1.38-.31,.28-.19,.55-.62,.8-1.3l6.67-17.88Zm-.43,5.08l-2.55,7.19h4.98l-2.43-7.19Z"/><path class="d" d="M240.9,58.63v-1.2c1.29-.05,2.49-.1,3.6-.16,1.11-.06,2.16-.13,3.16-.22v10.98c0,.92,.13,1.46,.38,1.64,.25,.18,.85,.28,1.79,.31v1.2c-1.23-.06-2.15-.09-2.76-.11-.61-.02-1.09-.03-1.46-.03-.53,0-1.16,0-1.89,.03-.73,.02-1.68,.06-2.85,.11v-1.2c1.16-.07,1.86-.2,2.11-.38,.25-.18,.37-.7,.37-1.57v-7.79c0-.66-.12-1.09-.36-1.28-.24-.19-.93-.3-2.09-.33Zm4.55-7.96c.66,0,1.17,.17,1.52,.51s.53,.83,.53,1.46-.29,1.21-.85,1.74c-.57,.54-1.2,.8-1.89,.8-.59,0-1.06-.18-1.41-.53s-.53-.81-.53-1.39c0-.65,.28-1.25,.83-1.79,.55-.54,1.15-.81,1.8-.81Z"/><path class="d" d="M254.31,60.24c0-.66-.12-1.09-.36-1.28-.24-.19-.87-.3-1.9-.33v-1.2c1.23-.05,2.37-.1,3.41-.16s2.01-.13,2.92-.22v3.47c.34-1.09,.87-1.94,1.57-2.55,.7-.61,1.51-.92,2.41-.92s1.57,.23,2.08,.69c.51,.46,.76,1.09,.76,1.9,0,.61-.17,1.1-.52,1.48-.34,.38-.78,.57-1.31,.57-.62,0-1.11-.17-1.45-.52s-.51-.85-.51-1.5c0-.23,.03-.46,.09-.69s.16-.47,.29-.73c-.91,.11-1.66,.73-2.27,1.84-.61,1.12-.91,2.49-.91,4.12v3.82c0,.86,.14,1.39,.43,1.6,.28,.21,1.13,.32,2.54,.35v1.2c-.93-.04-1.82-.07-2.66-.08-.84-.02-1.62-.03-2.35-.03-.52,0-1.17,0-1.96,.03-.78,.02-1.63,.05-2.53,.08v-1.2c.99-.06,1.61-.17,1.85-.36,.25-.18,.37-.71,.37-1.59v-7.79Z"/><path class="d" d="M282.13,63.82l-9.71,.08v.31c0,1.82,.37,3.2,1.11,4.15,.74,.95,1.82,1.42,3.24,1.42,1.01,0,1.87-.25,2.6-.75,.72-.5,1.3-1.25,1.74-2.25l.99,.31c-.44,1.48-1.2,2.58-2.29,3.29-1.09,.71-2.55,1.06-4.38,1.06-2.29,0-4.12-.65-5.47-1.94s-2.03-3.03-2.03-5.23,.67-3.9,2.02-5.23c1.35-1.33,3.13-1.99,5.34-1.99,2.07,0,3.73,.58,4.97,1.75,1.25,1.17,1.87,2.71,1.87,4.64v.38Zm-3.95-1.25c-.02-1.47-.25-2.56-.71-3.27-.45-.7-1.15-1.06-2.08-1.06s-1.64,.39-2.16,1.16c-.52,.77-.79,1.87-.82,3.27l5.76-.11Z"/><path class="d" d="M295.4,58.34l.2-.94h1.04v4.02h-1.04c-.17-.97-.56-1.72-1.17-2.25-.61-.53-1.39-.79-2.34-.79-.82,0-1.47,.16-1.95,.48-.48,.32-.72,.75-.72,1.29,0,.89,1.03,1.64,3.09,2.25,.42,.12,.75,.22,.98,.29,1.5,.47,2.55,1.01,3.13,1.64,.59,.62,.88,1.47,.88,2.55,0,1.36-.54,2.46-1.62,3.29s-2.53,1.25-4.34,1.25c-.77,0-1.51-.11-2.21-.31-.7-.21-1.36-.53-1.97-.95l-.27,.84h-1.06c0-.33,.03-.76,.06-1.32,.03-.55,.04-.92,.04-1.12v-2.21h1.08c.09,1.24,.46,2.17,1.11,2.8s1.57,.94,2.76,.94c.89,0,1.57-.17,2.04-.5s.71-.8,.71-1.42c0-.93-1-1.7-3.01-2.29-.17-.05-.29-.08-.38-.11-1.68-.48-2.87-1.06-3.57-1.73s-1.05-1.53-1.05-2.6c0-1.3,.5-2.36,1.49-3.18s2.28-1.24,3.87-1.24c.87,0,1.64,.1,2.32,.31,.68,.21,1.31,.53,1.89,.97Z"/><path class="d" d="M302.51,76l-.66-1.04c.98-.59,1.71-1.19,2.19-1.81s.73-1.28,.76-1.97c-.14,.04-.28,.07-.41,.08s-.28,.03-.43,.03c-.63,0-1.15-.21-1.55-.63s-.59-.97-.59-1.67,.23-1.29,.69-1.73,1.07-.65,1.83-.65,1.39,.3,1.88,.89c.48,.59,.73,1.36,.73,2.3,0,1.24-.37,2.38-1.11,3.41-.74,1.03-1.85,1.96-3.33,2.78Z"/><path class="d" d="M321.86,50.62c.6,.04,1.22,.07,1.88,.08,.66,.02,1.38,.03,2.16,.03,1.34,0,2.7-.02,4.06-.06,1.36-.04,2.05-.06,2.07-.06,2.42,0,4.22,.41,5.41,1.24,1.19,.83,1.78,2.08,1.78,3.77,0,1.52-.47,2.7-1.4,3.53-.93,.83-2.34,1.34-4.23,1.5,2.11,.13,3.71,.63,4.82,1.49,1.11,.86,1.66,2.05,1.66,3.56,0,1.91-.63,3.3-1.88,4.17-1.25,.87-3.29,1.3-6.11,1.3-.59,0-1.54-.02-2.85-.06s-2.33-.06-3.05-.06c-.93,0-2.35,.04-4.24,.11h-.08v-1.34c1.05,0,1.72-.14,2.01-.43,.28-.29,.43-.97,.43-2.06v-12.9c0-1.08-.15-1.76-.43-2.05-.29-.28-.96-.43-2-.44v-1.34Zm7.11,1.43v7.96h1.69c1.36,0,2.33-.31,2.91-.93,.58-.62,.87-1.65,.87-3.1s-.29-2.47-.87-3.06c-.58-.58-1.64-.87-3.18-.87h-1.43Zm0,9.35v8.37h1.75c1.64,0,2.77-.32,3.39-.97s.93-1.79,.93-3.46c0-1.42-.32-2.43-.96-3.04s-1.72-.91-3.25-.91h-1.86Z"/><path class="d" d="M356.69,61.58v5.58c0,.99,.07,1.6,.22,1.83s.41,.35,.79,.35c.22,0,.43-.06,.62-.17,.19-.11,.38-.28,.55-.52l.71,.55c-.51,.8-1.08,1.37-1.71,1.71-.62,.34-1.4,.51-2.34,.51-.86,0-1.54-.2-2.03-.6-.49-.4-.76-.97-.81-1.71-.62,.77-1.35,1.35-2.21,1.73-.86,.38-1.85,.57-2.97,.57-1.23,0-2.18-.29-2.86-.88-.68-.58-1.01-1.41-1.01-2.47s.41-1.96,1.22-2.57,2.36-1.14,4.63-1.59c.4-.08,.89-.16,1.47-.25,1.01-.16,1.51-.44,1.51-.84v-1.67c0-1.04-.18-1.79-.55-2.23-.36-.44-.96-.66-1.8-.66-.47,0-.9,.06-1.29,.17-.39,.11-.73,.27-1.01,.46,.08,.32,.14,.58,.18,.79s.06,.4,.06,.57c0,.67-.18,1.21-.55,1.6s-.87,.59-1.49,.59c-.51,0-.93-.16-1.24-.48-.31-.32-.47-.74-.47-1.27,0-1.03,.61-1.89,1.83-2.6,1.22-.71,2.78-1.06,4.69-1.06s3.41,.38,4.39,1.13c.97,.75,1.46,1.87,1.46,3.35v.06Zm-4.21,2.92c-1.85,.33-3.09,.71-3.72,1.15-.63,.44-.95,1.08-.95,1.91,0,.63,.16,1.14,.49,1.52,.33,.38,.76,.57,1.32,.57s1.06-.16,1.55-.47c.49-.31,.93-.77,1.32-1.36v-3.32Z"/><path class="d" d="M363.54,60.24c0-.66-.12-1.09-.36-1.28-.24-.19-.87-.3-1.9-.33v-1.2c1.23-.05,2.37-.1,3.41-.16s2.01-.13,2.92-.22v3.47c.34-1.09,.87-1.94,1.57-2.55,.7-.61,1.51-.92,2.41-.92s1.57,.23,2.08,.69c.51,.46,.76,1.09,.76,1.9,0,.61-.17,1.1-.52,1.48-.34,.38-.78,.57-1.31,.57-.62,0-1.11-.17-1.45-.52s-.51-.85-.51-1.5c0-.23,.03-.46,.09-.69s.16-.47,.29-.73c-.91,.11-1.66,.73-2.27,1.84-.61,1.12-.91,2.49-.91,4.12v3.82c0,.86,.14,1.39,.43,1.6,.28,.21,1.13,.32,2.54,.35v1.2c-.93-.04-1.82-.07-2.66-.08-.84-.02-1.62-.03-2.35-.03-.52,0-1.17,0-1.96,.03-.78,.02-1.63,.05-2.53,.08v-1.2c.99-.06,1.61-.17,1.85-.36,.25-.18,.37-.71,.37-1.59v-7.79Z"/><path class="d" d="M376.43,58.63v-1.2c1.29-.05,2.49-.1,3.6-.16,1.11-.06,2.16-.13,3.16-.22v10.98c0,.92,.13,1.46,.38,1.64,.25,.18,.85,.28,1.79,.31v1.2c-1.23-.06-2.15-.09-2.76-.11-.61-.02-1.09-.03-1.46-.03-.53,0-1.16,0-1.89,.03-.73,.02-1.68,.06-2.85,.11v-1.2c1.16-.07,1.86-.2,2.11-.38,.25-.18,.37-.7,.37-1.57v-7.79c0-.66-.12-1.09-.36-1.28-.24-.19-.93-.3-2.09-.33Zm4.55-7.96c.66,0,1.17,.17,1.52,.51s.53,.83,.53,1.46-.29,1.21-.85,1.74c-.57,.54-1.2,.8-1.89,.8-.59,0-1.06-.18-1.41-.53s-.53-.81-.53-1.39c0-.65,.28-1.25,.83-1.79,.55-.54,1.15-.81,1.8-.81Z"/><path class="d" d="M401.45,66.65l.91,.46c-.62,1.47-1.48,2.56-2.59,3.27s-2.52,1.06-4.23,1.06c-2.32,0-4.14-.61-5.46-1.82-1.32-1.21-1.98-2.89-1.98-5.02,0-2.31,.71-4.15,2.15-5.5,1.43-1.36,3.38-2.04,5.84-2.04,1.74,0,3.15,.38,4.24,1.13,1.09,.76,1.64,1.71,1.64,2.85,0,.59-.16,1.05-.49,1.4-.33,.34-.76,.52-1.32,.52s-1.03-.19-1.4-.56c-.37-.37-.56-.84-.56-1.41,0-.31,.06-.65,.19-1.02s.19-.6,.19-.67c0-.27-.21-.51-.64-.71s-.96-.3-1.59-.3c-1.13,0-2.03,.52-2.71,1.56-.68,1.04-1.01,2.45-1.01,4.23s.36,3.11,1.07,4.03c.71,.92,1.75,1.38,3.11,1.38,1.04,0,1.95-.24,2.73-.71,.77-.47,1.41-1.18,1.92-2.13Z"/><path class="d" d="M411.53,49.86v10.44c.74-1.11,1.55-1.93,2.43-2.46,.89-.53,1.9-.79,3.05-.79,1.61,0,2.79,.41,3.53,1.24,.74,.83,1.11,2.15,1.11,3.98v5.76c0,.88,.11,1.41,.32,1.59,.21,.18,.69,.3,1.45,.36v1.2c-1.07-.06-1.91-.09-2.5-.11-.6-.02-1.09-.03-1.47-.03s-.9,0-1.53,.03c-.62,.02-1.5,.06-2.63,.11v-1.2c.9-.07,1.47-.2,1.71-.38,.23-.18,.35-.7,.35-1.57v-5.9c0-1.14-.15-1.91-.46-2.32-.3-.41-.83-.61-1.57-.61-.91,0-1.77,.42-2.57,1.25-.8,.83-1.2,1.71-1.2,2.64v4.94c0,.87,.1,1.39,.3,1.57s.68,.31,1.43,.37v1.2c-1.27-.06-2.18-.09-2.71-.11-.53-.02-.94-.03-1.23-.03-.4,0-.93,0-1.57,.03-.65,.02-1.57,.06-2.75,.11v-1.2c1.04-.09,1.68-.23,1.9-.4,.22-.17,.33-.69,.33-1.55v-15.11c0-.58-.11-.96-.34-1.15s-.83-.3-1.8-.34v-1.23c1.04-.03,2.09-.07,3.18-.13,1.08-.06,2.17-.13,3.26-.22Z"/><path class="d" d="M439.53,61.58v5.58c0,.99,.07,1.6,.22,1.83s.41,.35,.79,.35c.22,0,.43-.06,.62-.17,.19-.11,.38-.28,.55-.52l.71,.55c-.51,.8-1.08,1.37-1.71,1.71-.62,.34-1.4,.51-2.34,.51-.86,0-1.54-.2-2.03-.6-.49-.4-.76-.97-.81-1.71-.62,.77-1.35,1.35-2.21,1.73-.86,.38-1.85,.57-2.97,.57-1.23,0-2.18-.29-2.86-.88-.68-.58-1.01-1.41-1.01-2.47s.41-1.96,1.22-2.57,2.36-1.14,4.63-1.59c.4-.08,.89-.16,1.47-.25,1.01-.16,1.51-.44,1.51-.84v-1.67c0-1.04-.18-1.79-.55-2.23-.36-.44-.96-.66-1.8-.66-.47,0-.9,.06-1.29,.17-.39,.11-.73,.27-1.01,.46,.08,.32,.14,.58,.18,.79s.06,.4,.06,.57c0,.67-.18,1.21-.55,1.6s-.87,.59-1.49,.59c-.51,0-.93-.16-1.24-.48-.31-.32-.47-.74-.47-1.27,0-1.03,.61-1.89,1.83-2.6,1.22-.71,2.78-1.06,4.69-1.06s3.41,.38,4.39,1.13c.97,.75,1.46,1.87,1.46,3.35v.06Zm-4.21,2.92c-1.85,.33-3.09,.71-3.72,1.15-.63,.44-.95,1.08-.95,1.91,0,.63,.16,1.14,.49,1.52,.33,.38,.76,.57,1.32,.57s1.06-.16,1.55-.47c.49-.31,.93-.77,1.32-1.36v-3.32Z"/><path class="d" d="M446.38,60.24c0-.66-.12-1.09-.36-1.28-.24-.19-.87-.3-1.9-.33v-1.2c1.23-.05,2.37-.1,3.41-.16s2.01-.13,2.92-.22v3.47c.34-1.09,.87-1.94,1.57-2.55,.7-.61,1.51-.92,2.41-.92s1.57,.23,2.08,.69c.51,.46,.76,1.09,.76,1.9,0,.61-.17,1.1-.52,1.48-.34,.38-.78,.57-1.31,.57-.62,0-1.11-.17-1.45-.52s-.51-.85-.51-1.5c0-.23,.03-.46,.09-.69s.16-.47,.29-.73c-.91,.11-1.66,.73-2.27,1.84-.61,1.12-.91,2.49-.91,4.12v3.82c0,.86,.14,1.39,.43,1.6,.28,.21,1.13,.32,2.54,.35v1.2c-.93-.04-1.82-.07-2.66-.08-.84-.02-1.62-.03-2.35-.03-.52,0-1.17,0-1.96,.03-.78,.02-1.63,.05-2.53,.08v-1.2c.99-.06,1.61-.17,1.85-.36,.25-.18,.37-.71,.37-1.59v-7.79Z"/><path class="d" d="M472.96,61.58v5.58c0,.99,.07,1.6,.22,1.83s.41,.35,.79,.35c.22,0,.43-.06,.62-.17,.19-.11,.38-.28,.55-.52l.71,.55c-.51,.8-1.08,1.37-1.71,1.71-.62,.34-1.4,.51-2.34,.51-.86,0-1.54-.2-2.03-.6-.49-.4-.76-.97-.81-1.71-.62,.77-1.35,1.35-2.21,1.73-.86,.38-1.85,.57-2.97,.57-1.23,0-2.18-.29-2.86-.88-.68-.58-1.01-1.41-1.01-2.47s.41-1.96,1.22-2.57,2.36-1.14,4.63-1.59c.4-.08,.89-.16,1.47-.25,1.01-.16,1.51-.44,1.51-.84v-1.67c0-1.04-.18-1.79-.55-2.23-.36-.44-.96-.66-1.8-.66-.47,0-.9,.06-1.29,.17-.39,.11-.73,.27-1.01,.46,.08,.32,.14,.58,.18,.79s.06,.4,.06,.57c0,.67-.18,1.21-.55,1.6s-.87,.59-1.49,.59c-.51,0-.93-.16-1.24-.48-.31-.32-.47-.74-.47-1.27,0-1.03,.61-1.89,1.83-2.6,1.22-.71,2.78-1.06,4.69-1.06s3.41,.38,4.39,1.13c.97,.75,1.46,1.87,1.46,3.35v.06Zm-4.21,2.92c-1.85,.33-3.09,.71-3.72,1.15-.63,.44-.95,1.08-.95,1.91,0,.63,.16,1.14,.49,1.52,.33,.38,.76,.57,1.32,.57s1.06-.16,1.55-.47c.49-.31,.93-.77,1.32-1.36v-3.32Z"/></g></g></g></svg>